<?xml version="1.0" encoding="utf-8"?>
<!-- Generator: Adobe Illustrator 25.2.1, SVG Export Plug-In . SVG Version: 6.00 Build 0)  -->
<svg version="1.1" id="Layer_1" xmlns="http://www.w3.org/2000/svg" xmlns:xlink="http://www.w3.org/1999/xlink" x="0px" y="0px"
	 viewBox="0 0 654.55 368.18" style="enable-background:new 0 0 654.55 368.18;" xml:space="preserve">
<style type="text/css">
	.st0{fill:#263238;}
	.st1{fill:#455A64;}
	.st2{fill:#FFFFFF;}
	.st3{fill:#0377C7;}
	.st4{opacity:0.3;}
	.st5{opacity:0.5;}
	.st6{fill:#EBEBEB;}
	.st7{fill:#EB996E;}
	.st8{opacity:0.4;}
	.st9{fill:#FFBE9D;}
	.st10{fill:#FAFAFA;}
	.st11{opacity:0.2;}
</style>
<g id="Group_317" transform="translate(-25.772 -138.417)">
	<g id="Floor" transform="translate(25.772 455.789)">
		<g id="Group_15">
			<g id="Group_14">
				<path id="Path_27" class="st0" d="M574.99,20.42c0,0.16-111.02,0.29-247.95,0.29c-136.97,0-247.97-0.13-247.97-0.29
					s111-0.29,247.97-0.29C463.96,20.13,574.99,20.26,574.99,20.42z"/>
			</g>
		</g>
	</g>
	<g id="Device" transform="translate(168.643 138.417)">
		<g id="Group_28">
			<g id="Group_22">
				<g id="Group_17">
					<g id="Group_16">
						<path id="Rectangle_6" class="st1" d="M90.61,20.13h182.47c6.38,0,11.55,5.17,11.55,11.55v294.2
							c0,6.38-5.17,11.55-11.55,11.55H90.61c-6.38,0-11.55-5.17-11.55-11.55V31.68C79.06,25.3,84.24,20.13,90.61,20.13z"/>
					</g>
				</g>
				<g id="Group_19" transform="translate(93.307 294.062)">
					<g id="Group_18">
						<path id="Path_28" class="st0" d="M94.84,28.62c0,4.69-3.53,8.48-7.89,8.48s-7.89-3.8-7.89-8.48s3.53-8.48,7.89-8.48
							S94.84,23.93,94.84,28.62z"/>
					</g>
				</g>
				<g id="Group_21" transform="translate(71.827 9.138)">
					<g id="Group_20">
						<path id="Rectangle_7" class="st0" d="M80.28,20.13h59.48c0.67,0,1.22,0.54,1.22,1.21v1.08c0,0.67-0.54,1.22-1.22,1.22H80.28
							c-0.67,0-1.22-0.54-1.22-1.22v-1.08C79.06,20.68,79.61,20.13,80.28,20.13z"/>
					</g>
				</g>
			</g>
			<g id="Group_23" transform="translate(7.01 18.208)">
				<rect id="Rectangle_8" x="79.06" y="20.13" class="st0" width="192.6" height="267.7"/>
			</g>
			<g id="Group_27" transform="translate(41.876 229.743)">
				<g id="Group_25">
					<g id="Group_24">
						<path id="Path_29" class="st2" d="M186.8,48.67c0,0,0.24-0.03,0.71-0.07c0.69-0.04,1.38-0.13,2.06-0.27
							c1.1-0.24,2.17-0.61,3.18-1.11c3.14-1.51,5.6-4.16,6.87-7.41c0.81-2.14,1.12-4.43,0.89-6.71c-0.53-5.68-4.5-10.44-9.99-11.98
							c-0.75-0.21-1.51-0.35-2.28-0.44c-0.78-0.05-1.57-0.09-2.39-0.07l-5,0.01l-10.6,0.02l-23.39,0.03L93.27,20.7
							c-2.32,0.01-4.61,0.61-6.65,1.73c-2,1.12-3.69,2.73-4.91,4.67c-1.21,1.91-1.92,4.1-2.05,6.35c-0.17,2.22,0.17,4.45,0.99,6.52
							c0.85,2.01,2.16,3.8,3.82,5.22c1.64,1.38,3.59,2.35,5.67,2.84c2.08,0.37,4.2,0.5,6.31,0.37l6.25,0.01l43.76,0.06l29.5,0.09
							l8.02,0.05l2.09,0.03c0.47,0.01,0.71,0.03,0.71,0.03s-0.24,0.02-0.71,0.03l-2.09,0.03l-8.02,0.05l-29.5,0.09l-43.76,0.06
							l-6.25,0.01h-3.18c-0.54-0.03-1.09-0.04-1.63-0.1c-0.54-0.07-1.08-0.16-1.62-0.29c-2.17-0.51-4.19-1.52-5.9-2.95
							c-1.73-1.47-3.1-3.33-3.99-5.42c-0.86-2.15-1.22-4.46-1.04-6.77c0.14-2.35,0.87-4.63,2.13-6.62c1.27-2.03,3.03-3.7,5.11-4.87
							c2.12-1.17,4.5-1.79,6.92-1.8l53.58,0.02l23.39,0.03l10.6,0.02l5,0.01c0.81-0.01,1.63,0.03,2.44,0.08
							c0.79,0.1,1.58,0.25,2.35,0.47c5.63,1.6,9.69,6.51,10.2,12.33c0.21,2.32-0.11,4.66-0.96,6.83c-0.72,1.82-1.82,3.47-3.23,4.83
							c-1.11,1.09-2.4,1.98-3.82,2.63c-1.03,0.48-2.11,0.84-3.23,1.07c-0.69,0.13-1.38,0.2-2.08,0.22
							C187.04,48.68,186.8,48.67,186.8,48.67z"/>
					</g>
				</g>
				<g id="Group_26" transform="translate(30.48 11.492)">
					<path id="Path_30" class="st2" d="M85.32,21.2l-0.68,0.85c-0.5-0.54-1.19-0.86-1.92-0.88c-1.34-0.03-2.45,1.04-2.48,2.38
						s1.04,2.45,2.38,2.48c0.03,0,0.07,0,0.1,0c0.72-0.02,1.41-0.31,1.92-0.82l0.69,0.77c-0.71,0.71-1.67,1.11-2.67,1.13
						c-1.93,0.06-3.54-1.45-3.6-3.38c-0.06-1.93,1.45-3.54,3.38-3.6c0.09,0,0.17,0,0.26,0C83.67,20.14,84.61,20.52,85.32,21.2z"/>
					<path id="Path_31" class="st2" d="M93.11,23.61c0.1,2.02-1.46,3.74-3.48,3.84c-2.02,0.1-3.74-1.46-3.84-3.48
						s1.46-3.74,3.48-3.84c0.06,0,0.12,0,0.18,0c1.95-0.07,3.59,1.46,3.66,3.41C93.11,23.56,93.11,23.59,93.11,23.61z M86.97,23.61
						c0.01,1.36,1.12,2.46,2.49,2.46c1.35-0.02,2.43-1.13,2.41-2.48c-0.02-1.35-1.13-2.43-2.48-2.41
						C88.05,21.2,86.98,22.28,86.97,23.61z"/>
					<path id="Path_32" class="st2" d="M99.19,27.07l-3.68-4.95v4.95h-1.16v-6.9h1.14l3.7,4.96v-4.96h1.14v6.9H99.19z"/>
					<path id="Path_33" class="st2" d="M103.32,21.21v1.99h3.14v1.04h-3.14v2.83h-1.17v-6.9h4.64l-0.01,1.05L103.32,21.21z"/>
					<path id="Path_34" class="st2" d="M107.83,27.07v-6.9h1.16v6.9H107.83z"/>
					<path id="Path_35" class="st2" d="M113.92,24.98c-0.1,0.01-0.21,0.01-0.32,0.01h-1.64v2.08h-1.16v-6.9h2.8
						c1.76,0,2.78,0.86,2.78,2.36c0.07,0.98-0.51,1.89-1.43,2.24l1.55,2.31h-1.32L113.92,24.98z M113.61,23.94
						c1.07,0,1.68-0.45,1.68-1.39c0-0.91-0.61-1.34-1.68-1.34h-1.64v2.73L113.61,23.94z"/>
					<path id="Path_36" class="st2" d="M124.16,27.07l-0.01-5.16l-2.18,4.44h-0.76l-2.18-4.44v5.16h-1.1v-6.9h1.38l2.28,4.59
						l2.27-4.59h1.37v6.9H124.16z"/>
					<path id="Path_37" class="st2" d="M128.22,21.21v1.86h3.37v1.05h-3.37v1.9h3.89v1.05h-5.05v-6.9h4.93v1.05L128.22,21.21z"/>
					<path id="Path_38" class="st2" d="M136.35,20.16c1.91-0.09,3.53,1.37,3.62,3.28s-1.37,3.53-3.28,3.62
						c-0.12,0.01-0.25,0.01-0.37,0h-2.8v-6.9H136.35z M134.69,26.03h1.7c1.28,0.03,2.34-0.98,2.37-2.26c0-0.05,0-0.09,0-0.14
						c0.04-1.3-0.99-2.38-2.29-2.42c-0.04,0-0.09,0-0.13,0h-1.65V26.03z"/>
				</g>
			</g>
		</g>
	</g>
	<g id="Envelope" transform="translate(196.423 190.025)">
		<g id="Group_52">
			<g id="Group_47">
				<g id="Group_46">
					<g id="Group_43">
						<g id="Group_30" transform="translate(0.003 58.87)">
							<g id="Group_29">
								<path id="Path_39" class="st3" d="M80.17,21.19l145.89-1.06l4.07,99.18l-151.06-1.4L80.17,21.19z"/>
							</g>
						</g>
						<g id="Group_32" transform="translate(1.11)">
							<g id="Group_31">
								<path id="Path_40" class="st3" d="M79.06,80.06l74.06-59.93L224.95,79"/>
							</g>
						</g>
						<g id="Group_34" transform="translate(1.11)" class="st4">
							<g id="Group_33">
								<path id="Path_41" d="M79.06,80.06l74.06-59.93L224.95,79"/>
							</g>
						</g>
						<g id="Group_37" transform="translate(0 100.311)">
							<g id="Group_36">
								<g id="Group_35">
									<path id="Path_42" class="st0" d="M79.07,76.48c-0.18-0.17,11.5-12.92,26.08-28.48s26.56-28.03,26.74-27.86
										s-11.5,12.92-26.08,28.48S79.25,76.65,79.07,76.48z"/>
								</g>
							</g>
						</g>
						<g id="Group_40" transform="translate(100.929 101.643)">
							<g id="Group_39">
								<g id="Group_38">
									<path id="Path_43" class="st0" d="M129.2,76.54c-0.19,0.17-11.56-12.33-25.4-27.9S78.88,20.3,79.07,20.14
										s11.56,12.33,25.4,27.91S129.38,76.38,129.2,76.54z"/>
								</g>
							</g>
						</g>
						<g id="Group_42" transform="translate(1.11 58.87)" class="st5">
							<g id="Group_41">
								<path id="Path_44" d="M224.95,20.13l-73.26,58.52L79.06,21.19"/>
							</g>
						</g>
					</g>
					<g id="Group_45" transform="translate(8.245 19.786)">
						<g id="Group_44">
							<path id="Path_45" class="st6" d="M79.28,65.7l-0.21-42.44l127.77-3.13l1.39,46.43l-63.68,50.41L79.28,65.7z"/>
						</g>
					</g>
				</g>
			</g>
			<g id="Group_51" transform="translate(43.663 37.8)">
				<g id="Group_48">
					<path id="Path_46" class="st3" d="M110.92,83.71c-1.22,0-2.43-0.07-3.64-0.21c-17.44-1.98-29.98-17.72-28-35.16
						c1.98-17.44,17.72-29.98,35.16-28c17.44,1.98,29.98,17.72,28,35.16c0,0,0,0,0,0l0,0C140.61,71.54,127.06,83.67,110.92,83.71z
						 M110.83,21.23c-16.95,0.01-30.68,13.76-30.67,30.71s13.76,30.68,30.71,30.67c15.61-0.01,28.72-11.73,30.48-27.24l0,0
						c1.91-16.84-10.2-32.04-27.04-33.95c0,0,0,0,0,0C113.15,21.29,111.99,21.23,110.83,21.23L110.83,21.23z"/>
				</g>
				<g id="Group_50" transform="translate(10.185 14.869)">
					<g id="Group_49">
						<path id="Path_47" class="st3" d="M79.06,41.47l5.31-6.51l12.43,8.98L117,20.13l6.09,5.35L97.12,55.42L79.06,41.47z"/>
					</g>
				</g>
			</g>
		</g>
	</g>
	<g id="Character" transform="translate(318.753 284.049)">
		<g id="Group_316">
			<g id="Group_53" transform="translate(83.152 6.713)">
				<path id="Path_48" class="st0" d="M86.55,36.42c0.19,0.7,0.92,1.11,1.62,0.92c0.11-0.03,0.22-0.08,0.32-0.13
					c0.69-0.49,1.03-1.34,0.86-2.16c-0.17-0.81-0.51-1.57-0.98-2.25c1.16,0.66,2.64,0.25,3.29-0.92c0.66-1.16,0.25-2.64-0.92-3.29
					c-0.35-0.2-0.75-0.31-1.16-0.31c1.04-0.15,2.03-0.56,2.87-1.2c0.84-0.67,1.17-1.8,0.81-2.82c-0.38-0.81-1.34-1.16-2.15-0.79
					c-0.16,0.07-0.3,0.17-0.42,0.29c0.57-0.32,1.06-0.75,1.46-1.26c0.39-0.53,0.43-1.25,0.08-1.82c-0.53-0.56-1.36-0.71-2.05-0.38
					c-0.67,0.34-1.32,0.72-1.93,1.14c-1.61,0.85-3.55,0.78-5.09-0.19l-4.09,3.38L86.55,36.42z"/>
			</g>
			<g id="Group_54" transform="translate(64.514 4.299)">
				<path id="Path_49" class="st0" d="M83.34,20.29c-2.32,0.76-3.98,2.8-4.26,5.22c-0.13,0.87,0.08,1.76,0.61,2.47
					c0.75,0.76,1.85,1.06,2.88,0.79c1.01-0.28,1.95-0.77,2.76-1.44c1.18-0.87,2.41-1.96,2.58-3.43c0.09-1.48-0.77-2.86-2.15-3.42
					c-1.37-0.52-2.89-0.44-4.19,0.24"/>
			</g>
			<g id="Group_55" transform="translate(56.126 8.516)">
				<path id="Path_50" class="st0" d="M95.29,36.31c-0.37,1.45-0.98,2.83-1.81,4.07c-0.85,1.25-2.19,2.09-3.69,2.3
					c-1.53,0.17-2.98-0.7-3.56-2.13c-0.25,0.87-0.94,1.54-1.82,1.76c-0.89,0.19-1.8-0.22-2.26-1.01c-0.41-0.82-0.13-1.82,0.64-2.31
					c-0.88,0.5-1.97,0.99-2.84,0.48c-0.37-0.24-0.65-0.6-0.77-1.02c-0.44-1.38,0.41-2.82,1.36-3.91s2.07-2.17,2.31-3.6
					c0.06-1.16-0.12-2.32-0.52-3.41c-0.35-1.25-0.41-2.57-0.16-3.84c0.26-1.29,1.04-2.41,2.16-3.09c1.15-0.67,2.58-0.58,3.65,0.21
					l0.19,1.87L95.29,36.31"/>
			</g>
			<g id="Group_283" transform="translate(0 5.739)">
				<g id="Group_56" transform="translate(51.436 40.358)">
					<path id="Path_51" class="st7" d="M117.01,20.44c0,0,2.56,27.01,0.41,30.52S88.98,91.24,88.98,91.24l0.06,0.04
						c-0.51,0.21-1.05,0.43-1.67,0.65c-0.92,0.33-1.88,0.5-2.86,0.51c-1.21,0.05-2.42-0.06-3.6-0.34c-1.05-0.36-2,0.74-1.42,1.57
						s3.45,1.91,7.01,1.56s-0.44,3.62-1.88,5.09s-5.66,6.23-5.56,7.03c0.15,1.17,1.43,1.23,2.83-0.28c1.42-1.52,5.91-5.71,6.65-4.92
						s-6.68,8.17-6.68,8.17s-1.84,1.33-1.01,2.27c1.49,1.71,8.79-6.73,9.46-7.55c0.47-0.57,1.3,0.27,0.77,0.85
						c-0.55,0.6-7.56,7.2-6.06,8.96c1.15,1.35,6.07-6.89,8.28-7.45s-4.36,5.86-3.21,7.1c0.43,0.46,0.81,0.75,4.06-3.49
						c2.56-3.7,4.92-7.53,7.07-11.49c3.45-3.73,37.47-40.67,37.73-47.57c0.27-7.27,1.58-31.85,1.58-31.85L117.01,20.44z"/>
				</g>
				<g id="Group_127" transform="translate(36.221 150.139)">
					<g id="Group_125">
						<g id="Group_124">
							<g id="Group_60" transform="translate(0.052)">
								<g id="Group_59">
									<g id="Group_58">
										<g id="Group_57">
											<path id="Path_52" class="st3" d="M91.6,30.86l-0.31-10.02l18.77-0.7l0.61,14.66l-1.16,0.12
												c-5.17,0.48-26.32,2.08-29.82,1.16C75.78,35.05,91.6,30.86,91.6,30.86z"/>
										</g>
									</g>
								</g>
							</g>
							<g id="Group_63" transform="translate(0 13.051)" class="st8">
								<g id="Group_62">
									<g id="Group_61">
										<path id="Path_53" class="st2" d="M83.93,20.13c0,0-5.53,1.82-4.8,2.72s22.17,0.08,31.59-1.11l-0.05-0.42l-25,1.16
											C85.68,22.49,85.02,20.14,83.93,20.13z"/>
									</g>
								</g>
							</g>
							<g id="Group_67" transform="translate(0.048 14.216)">
								<g id="Group_66">
									<g id="Group_65">
										<g id="Group_64">
											<path id="Path_54" class="st0" d="M110.92,20.14c-0.11,0.03-0.21,0.04-0.32,0.05l-0.93,0.09l-3.41,0.28
												c-2.88,0.21-6.86,0.45-11.26,0.63s-8.39,0.24-11.28,0.25l-3.42-0.01l-0.93-0.02c-0.11,0-0.22-0.01-0.32-0.02
												c0.11-0.02,0.22-0.03,0.32-0.02l0.93-0.02l3.42-0.06c2.89-0.05,6.87-0.14,11.27-0.31s8.38-0.39,11.26-0.56l3.41-0.2
												l0.93-0.05C110.71,20.13,110.82,20.13,110.92,20.14z"/>
										</g>
									</g>
								</g>
							</g>
							<g id="Group_71" transform="translate(4.719 12.825)">
								<g id="Group_70">
									<g id="Group_69">
										<g id="Group_68">
											<path id="Path_55" class="st0" d="M80.98,23.01c-0.28-1.15-0.95-2.17-1.91-2.87C80.24,20.61,81,21.75,80.98,23.01z"/>
										</g>
									</g>
								</g>
							</g>
							<g id="Group_75" transform="translate(11.006 11.15)">
								<g id="Group_74">
									<g id="Group_73">
										<g id="Group_72">
											<path id="Path_56" class="st0" d="M80.13,21.66c-0.05,0.04-0.33-0.28-0.62-0.7s-0.48-0.79-0.43-0.83s0.33,0.28,0.62,0.7
												S80.18,21.63,80.13,21.66z"/>
										</g>
									</g>
								</g>
							</g>
							<g id="Group_79" transform="translate(12.339 10.8)">
								<g id="Group_78">
									<g id="Group_77">
										<g id="Group_76">
											<path id="Path_57" class="st0" d="M80.28,21.15c-0.04,0.05-0.34-0.14-0.68-0.42s-0.57-0.54-0.53-0.59
												s0.35,0.14,0.68,0.42S80.32,21.1,80.28,21.15z"/>
										</g>
									</g>
								</g>
							</g>
							<g id="Group_83" transform="translate(12.488 9.932)">
								<g id="Group_82">
									<g id="Group_81">
										<g id="Group_80">
											<path id="Path_58" class="st0" d="M81.03,20.21c-0.64,0.18-1.31,0.22-1.96,0.1C79.7,20.13,80.37,20.09,81.03,20.21z"/>
										</g>
									</g>
								</g>
							</g>
							<g id="Group_87" transform="translate(12.516 8.729)">
								<g id="Group_86">
									<g id="Group_85">
										<g id="Group_84">
											<path id="Path_59" class="st0" d="M81.28,20.15c-0.67,0.39-1.47,0.48-2.21,0.25c0.37-0.07,0.74-0.11,1.11-0.12
												C80.54,20.2,80.91,20.16,81.28,20.15z"/>
										</g>
									</g>
								</g>
							</g>
							<g id="Group_91" transform="translate(7.788 9.465)">
								<g id="Group_90">
									<g id="Group_89">
										<g id="Group_88">
											<path id="Path_60" class="st0" d="M82.64,21.73c-0.4,0.08-0.81,0.1-1.21,0.04c-0.44-0.04-0.87-0.12-1.3-0.23
												c-0.26-0.06-0.51-0.16-0.75-0.27c-0.15-0.08-0.26-0.21-0.31-0.36c-0.05-0.18,0.02-0.37,0.16-0.49
												c0.93-0.5,2.09-0.27,2.76,0.54c0.19,0.23,0.34,0.5,0.42,0.79c0.04,0.1,0.06,0.21,0.04,0.33
												c-0.14-0.37-0.34-0.71-0.59-1.01c-0.28-0.31-0.65-0.53-1.06-0.63c-0.48-0.14-1-0.09-1.43,0.15
												c-0.19,0.15-0.1,0.37,0.11,0.49c0.22,0.11,0.45,0.2,0.69,0.26c0.41,0.12,0.83,0.22,1.25,0.28
												C82.18,21.71,82.64,21.7,82.64,21.73z"/>
										</g>
									</g>
								</g>
							</g>
							<g id="Group_95" transform="translate(10.881 8.756)">
								<g id="Group_94">
									<g id="Group_93">
										<g id="Group_92">
											<path id="Path_61" class="st0" d="M79.24,22.51c-0.16-0.25-0.22-0.54-0.17-0.83c0.03-0.32,0.13-0.62,0.3-0.89
												c0.19-0.37,0.56-0.62,0.98-0.65c0.26,0.05,0.43,0.29,0.39,0.54c-0.02,0.19-0.08,0.38-0.18,0.55
												c-0.15,0.27-0.33,0.53-0.54,0.75c-0.18,0.22-0.41,0.4-0.67,0.52c-0.02-0.03,0.23-0.23,0.55-0.62
												c0.19-0.23,0.35-0.48,0.48-0.74c0.16-0.26,0.25-0.72-0.05-0.77c-0.3-0.02-0.6,0.3-0.77,0.54
												c-0.16,0.24-0.27,0.51-0.31,0.8C79.21,21.97,79.21,22.24,79.24,22.51z"/>
										</g>
									</g>
								</g>
							</g>
							<g id="Group_99" transform="translate(24.851 9.006)">
								<g id="Group_98">
									<g id="Group_97">
										<g id="Group_96">
											<path id="Path_62" class="st0" d="M85.54,20.23c0,0.04-0.54-0.03-1.39,0.1c-2.25,0.33-4.11,1.93-4.77,4.11
												c-0.26,0.82-0.26,1.36-0.31,1.35c-0.03-0.12-0.03-0.25-0.01-0.38c0.02-0.34,0.08-0.69,0.17-1.02
												c0.6-2.29,2.55-3.96,4.9-4.22c0.34-0.04,0.69-0.04,1.03-0.01C85.3,20.15,85.42,20.18,85.54,20.23z"/>
										</g>
									</g>
								</g>
							</g>
							<g id="Group_103" transform="translate(29.055 1.36)">
								<g id="Group_102">
									<g id="Group_101">
										<g id="Group_100">
											<path id="Path_63" class="st0" d="M79.1,20.13c0.28,2.56,0.41,5.14,0.39,7.71c-0.18-1.28-0.28-2.56-0.31-3.85
												C79.07,22.71,79.05,21.42,79.1,20.13z"/>
										</g>
									</g>
								</g>
							</g>
							<g id="Group_107" transform="translate(16.928 13.012)">
								<g id="Group_106">
									<g id="Group_105">
										<g id="Group_104">
											<path id="Path_64" class="st0" d="M84.55,20.15c-1.8,0.41-3.66,0.5-5.48,0.26c0-0.07,1.23-0.04,2.74-0.11
												S84.54,20.08,84.55,20.15z"/>
										</g>
									</g>
								</g>
							</g>
							<g id="Group_111" transform="translate(25.589 12.877)">
								<g id="Group_110">
									<g id="Group_109">
										<g id="Group_108">
											<path id="Path_65" class="st0" d="M79.57,20.14c0.05,0.04-0.09,0.26-0.2,0.55s-0.17,0.54-0.24,0.54s-0.11-0.29,0.03-0.62
												S79.53,20.1,79.57,20.14z"/>
										</g>
									</g>
								</g>
							</g>
							<g id="Group_115" transform="translate(26.727 11.097)">
								<g id="Group_114">
									<g id="Group_113">
										<g id="Group_112">
											<path id="Path_66" class="st0" d="M79.75,20.14c0.05,0.04-0.07,0.24-0.25,0.45s-0.38,0.33-0.42,0.29s0.07-0.24,0.25-0.45
												S79.7,20.1,79.75,20.14z"/>
										</g>
									</g>
								</g>
							</g>
							<g id="Group_119" transform="translate(28.31 10.145)">
								<g id="Group_118">
									<g id="Group_117">
										<g id="Group_116">
											<path id="Path_67" class="st0" d="M80.12,20.23c-0.01,0.06-0.26,0.07-0.53,0.18s-0.47,0.26-0.52,0.22s0.1-0.31,0.43-0.43
												S80.14,20.17,80.12,20.23z"/>
										</g>
									</g>
								</g>
							</g>
							<g id="Group_123" transform="translate(30.207 9.776)">
								<g id="Group_122">
									<g id="Group_121">
										<g id="Group_120">
											<path id="Path_68" class="st0" d="M79.62,20.17c0.02,0.06-0.08,0.16-0.23,0.23s-0.3,0.07-0.32,0.02s0.08-0.16,0.23-0.23
												S79.6,20.11,79.62,20.17z"/>
										</g>
									</g>
								</g>
							</g>
						</g>
					</g>
					<g id="Group_126" transform="translate(12.46 6.735)" class="st4">
						<path id="Path_69" d="M97.89,21.99l-18.77,0.4l-0.06-2.26l18.93,0.67L97.89,21.99z"/>
					</g>
				</g>
				<g id="Group_131" transform="translate(43.614 92.045)">
					<g id="Group_130">
						<g id="Group_129">
							<g id="Group_128">
								<path id="Path_70" class="st0" d="M154.95,20.95l-59.36-0.81c0,0-16.52,1.58-16.52,23.05l2.1,42.37h25.29l-1.73-40.6
									c1.42,0.02,20.57,0.64,20.57,0.64L154.95,20.95z"/>
							</g>
						</g>
					</g>
				</g>
				<g id="Group_133" transform="translate(43.161 93.08)">
					<g id="Group_132">
						<path id="Path_71" class="st1" d="M81.61,84.52c-0.05-0.24-0.08-0.49-0.08-0.73c-0.03-0.54-0.07-1.24-0.12-2.1
							c-0.11-1.9-0.26-4.52-0.45-7.74c-0.39-6.53-1.13-15.55-1.62-25.53c-0.17-4.99-0.55-9.77,0.04-14.11
							c0.14-1.06,0.36-2.11,0.65-3.13c0.31-0.96,0.71-1.89,1.21-2.78c0.91-1.57,2.07-2.98,3.44-4.16c1.13-0.97,2.39-1.78,3.73-2.44
							c1.02-0.47,2.07-0.85,3.15-1.14l1.19-0.29l0.88-0.14c0.24-0.05,0.49-0.08,0.73-0.08c-0.23,0.09-0.47,0.15-0.71,0.19
							l-0.87,0.19l-1.16,0.33c-1.06,0.32-2.08,0.73-3.07,1.22c-1.3,0.67-2.5,1.49-3.6,2.45c-1.32,1.17-2.43,2.55-3.3,4.09
							c-0.47,0.86-0.85,1.76-1.14,2.69c-0.28,1-0.48,2.03-0.61,3.06c-0.56,4.26-0.17,9.03,0.01,14.02
							c0.49,9.97,1.17,18.99,1.45,25.54c0.16,3.27,0.23,5.92,0.26,7.75c0.01,0.87,0.01,1.57,0.01,2.11
							C81.66,84.03,81.65,84.27,81.61,84.52z"/>
					</g>
				</g>
				<g id="Group_204" transform="translate(147.627 141.45)">
					<g id="Group_202">
						<g id="Group_201">
							<g id="Group_137" transform="translate(0 0.232)">
								<g id="Group_136">
									<g id="Group_135">
										<g id="Group_134">
											<path id="Path_72" class="st3" d="M90.44,39.34L80.43,40l-1.36-18.74l14.63-1.13l0.16,1.16
												c0.66,5.15,3.01,26.23,2.21,29.76C95.18,55,90.44,39.34,90.44,39.34z"/>
										</g>
									</g>
								</g>
							</g>
							<g id="Group_140" transform="translate(13.966 0.232)" class="st8">
								<g id="Group_139">
									<g id="Group_138">
										<path id="Path_73" class="st2" d="M79.07,46.97c0,0,2.02,5.46,2.88,4.7s-0.7-22.16-2.22-31.53l-0.42,0.06l2.04,24.94
											C81.36,45.13,79.03,45.87,79.07,46.97z"/>
									</g>
								</g>
							</g>
							<g id="Group_144" transform="translate(14.179)">
								<g id="Group_143">
									<g id="Group_142">
										<g id="Group_141">
											<path id="Path_74" class="st0" d="M79.07,20.14c0.03,0.1,0.05,0.21,0.06,0.32l0.12,0.92c0.11,0.92,0.24,2.06,0.4,3.4
												c0.31,2.87,0.7,6.84,1.02,11.23s0.53,8.38,0.64,11.26c0.04,1.35,0.08,2.49,0.11,3.42c0,0.35,0.01,0.65,0.01,0.93
												c0.01,0.11,0,0.22-0.01,0.33c-0.02-0.11-0.03-0.21-0.04-0.32c-0.02-0.28-0.04-0.58-0.06-0.93
												c-0.05-0.93-0.11-2.07-0.18-3.41c-0.15-2.88-0.39-6.86-0.71-11.25s-0.68-8.36-0.95-11.23c-0.13-1.34-0.24-2.48-0.32-3.4
												c-0.03-0.34-0.06-0.65-0.08-0.93C79.07,20.36,79.06,20.25,79.07,20.14z"/>
										</g>
									</g>
								</g>
							</g>
							<g id="Group_148" transform="translate(13.744 25.184)">
								<g id="Group_147">
									<g id="Group_146">
										<g id="Group_145">
											<path id="Path_75" class="st0" d="M81.87,20.15c-1.14,0.32-2.14,1.03-2.8,2.01C79.5,20.98,80.61,20.17,81.87,20.15z"/>
										</g>
									</g>
								</g>
							</g>
							<g id="Group_152" transform="translate(11.849 19.875)">
								<g id="Group_151">
									<g id="Group_150">
										<g id="Group_149">
											<path id="Path_76" class="st0" d="M80.55,20.14c0.04,0.05-0.27,0.34-0.68,0.64s-0.77,0.51-0.81,0.46s0.27-0.34,0.67-0.64
												S80.52,20.09,80.55,20.14z"/>
										</g>
									</g>
								</g>
							</g>
							<g id="Group_156" transform="translate(11.452 18.42)">
								<g id="Group_155">
									<g id="Group_154">
										<g id="Group_153">
											<path id="Path_77" class="st0" d="M80.04,20.14c0.05,0.04-0.13,0.35-0.39,0.69s-0.52,0.59-0.57,0.55s0.12-0.35,0.39-0.69
												S79.99,20.1,80.04,20.14z"/>
										</g>
									</g>
								</g>
							</g>
							<g id="Group_160" transform="translate(10.528 17.595)">
								<g id="Group_159">
									<g id="Group_158">
										<g id="Group_157">
											<path id="Path_78" class="st0" d="M79.12,20.13c0.35-2.34,2.53-3.96,4.87-3.62c2.34,0.35,3.96,2.53,3.62,4.87
												s-2.53,3.96-4.87,3.62c-1.97-0.29-3.48-1.9-3.65-3.89C79.03,20.79,79.04,20.46,79.12,20.13z"/>
										</g>
									</g>
								</g>
							</g>
							<g id="Group_164" transform="translate(9.3 17.356)">
								<g id="Group_163">
									<g id="Group_162">
										<g id="Group_161">
											<path id="Path_79" class="st0" d="M79.08,20.13c0.42,0.66,0.54,1.46,0.33,2.2C79.31,21.6,79.2,20.87,79.08,20.13z"/>
										</g>
									</g>
								</g>
							</g>
							<g id="Group_168" transform="translate(10.235 20.638)">
								<g id="Group_167">
									<g id="Group_166">
										<g id="Group_165">
											<path id="Path_80" class="st0" d="M80.58,20.13c0.1,0.39,0.13,0.8,0.08,1.2c-0.02,0.44-0.09,0.87-0.19,1.3
												c-0.05,0.26-0.14,0.51-0.25,0.76c-0.07,0.15-0.2,0.26-0.35,0.33c-0.18,0.05-0.38,0-0.5-0.15
												c-0.53-0.91-0.35-2.08,0.45-2.78c0.22-0.2,0.49-0.36,0.77-0.45c0.1-0.04,0.21-0.06,0.32-0.05
												c-0.36,0.15-0.7,0.36-0.99,0.62c-0.3,0.29-0.5,0.67-0.59,1.08c-0.13,0.48-0.05,1,0.2,1.43c0.16,0.18,0.38,0.09,0.49-0.13
												c0.1-0.22,0.18-0.46,0.24-0.7c0.11-0.41,0.19-0.84,0.23-1.26C80.58,20.6,80.54,20.14,80.58,20.13z"/>
										</g>
									</g>
								</g>
							</g>
							<g id="Group_172" transform="translate(9.416 19.509)">
								<g id="Group_171">
									<g id="Group_170">
										<g id="Group_169">
											<path id="Path_81" class="st0" d="M81.48,21.57c-0.24,0.17-0.54,0.24-0.83,0.2c-0.32-0.01-0.63-0.1-0.9-0.26
												c-0.38-0.18-0.64-0.54-0.69-0.96c0.04-0.26,0.27-0.44,0.53-0.41c0.19,0.01,0.38,0.07,0.55,0.17
												c0.28,0.14,0.54,0.31,0.77,0.52c0.23,0.17,0.42,0.39,0.54,0.65c-0.03,0.02-0.23-0.23-0.64-0.53
												c-0.24-0.18-0.49-0.33-0.76-0.45c-0.27-0.15-0.73-0.23-0.77,0.08c-0.01,0.3,0.32,0.59,0.57,0.76
												c0.25,0.15,0.52,0.25,0.81,0.28C80.94,21.62,81.21,21.61,81.48,21.57z"/>
										</g>
									</g>
								</g>
							</g>
							<g id="Group_176" transform="translate(9.017 0.758)">
								<g id="Group_175">
									<g id="Group_174">
										<g id="Group_173">
											<path id="Path_82" class="st0" d="M79.13,20.13c0.04,0-0.01,0.54,0.15,1.38c0.41,2.24,2.08,4.03,4.27,4.62
												c0.82,0.23,1.36,0.21,1.36,0.26c-0.12,0.03-0.25,0.04-0.38,0.03c-0.35-0.01-0.69-0.05-1.03-0.13
												c-2.31-0.52-4.05-2.41-4.39-4.75c-0.05-0.34-0.07-0.69-0.05-1.03C79.07,20.38,79.09,20.25,79.13,20.13z"/>
										</g>
									</g>
								</g>
							</g>
							<g id="Group_180" transform="translate(1.429 2.591)">
								<g id="Group_179">
									<g id="Group_178">
										<g id="Group_177">
											<path id="Path_83" class="st0" d="M79.06,20.82c2.55-0.37,5.12-0.59,7.69-0.66C84.21,20.52,81.64,20.75,79.06,20.82z"/>
										</g>
									</g>
								</g>
							</g>
							<g id="Group_184" transform="translate(13.312 9.529)">
								<g id="Group_183">
									<g id="Group_182">
										<g id="Group_181">
											<path id="Path_84" class="st0" d="M79.08,20.13c0.48,1.78,0.63,3.64,0.45,5.47c-0.07,0-0.08-1.23-0.21-2.74
												S79.01,20.15,79.08,20.13z"/>
										</g>
									</g>
								</g>
							</g>
							<g id="Group_188" transform="translate(13.044 5.847)">
								<g id="Group_187">
									<g id="Group_186">
										<g id="Group_185">
											<path id="Path_85" class="st0" d="M79.07,20.14c0.04-0.05,0.27,0.08,0.56,0.18s0.54,0.15,0.55,0.22s-0.29,0.12-0.62-0.01
												S79.03,20.19,79.07,20.14z"/>
										</g>
									</g>
								</g>
							</g>
							<g id="Group_192" transform="translate(11.219 4.589)">
								<g id="Group_191">
									<g id="Group_190">
										<g id="Group_189">
											<path id="Path_86" class="st0" d="M79.07,20.15c0.04-0.05,0.24,0.06,0.46,0.24s0.35,0.36,0.31,0.41s-0.24-0.06-0.46-0.24
												S79.03,20.19,79.07,20.15z"/>
										</g>
									</g>
								</g>
							</g>
							<g id="Group_196" transform="translate(10.208 2.677)">
								<g id="Group_195">
									<g id="Group_194">
										<g id="Group_193">
											<path id="Path_87" class="st0" d="M79.15,20.13c0.07,0.01,0.08,0.26,0.2,0.52s0.28,0.46,0.24,0.51s-0.31-0.09-0.45-0.42
												S79.09,20.12,79.15,20.13z"/>
										</g>
									</g>
								</g>
							</g>
							<g id="Group_200" transform="translate(9.784 1.29)">
								<g id="Group_199">
									<g id="Group_198">
										<g id="Group_197">
											<path id="Path_88" class="st0" d="M79.1,20.14c0.06-0.03,0.16,0.07,0.23,0.23s0.08,0.3,0.03,0.32s-0.16-0.07-0.23-0.23
												S79.04,20.16,79.1,20.14z"/>
										</g>
									</g>
								</g>
							</g>
						</g>
					</g>
					<g id="Group_203" transform="translate(7.386 0.758)" class="st4">
						<path id="Path_89" d="M80.26,20.2l1.06,18.74l-2.26,0.14V20.13L80.26,20.2z"/>
					</g>
				</g>
				<g id="Group_216" transform="translate(64.313 87.797)">
					<g id="Group_213">
						<g id="Group_206">
							<g id="Group_205">
								<path id="Path_90" class="st0" d="M112.36,74.69l0.01,0.02c0,0,50.58-27.62,56.31-36.6c3.49-5.34,4.12-12.07,1.69-17.97
									l-42.56,5.67L97.55,56.13l0,0c-6.6,5.23-18.49,16.15-18.49,26.91c0,18.43,23.83,15.42,40.93,15.46
									c23.39,0.05,49.62,0.16,49.62,0.16l0.07-25.12L112.36,74.69z"/>
							</g>
						</g>
						<g id="Group_209" transform="translate(21.291 54.464)">
							<g id="Group_208">
								<g id="Group_207">
									<path id="Path_91" class="st1" d="M79.07,25.48c4.21-1.48,8.31-3.26,12.26-5.34C87.12,21.62,83.02,23.4,79.07,25.48z"/>
								</g>
							</g>
						</g>
						<g id="Group_212" transform="translate(25.269 53.512)">
							<g id="Group_211">
								<g id="Group_210">
									<path id="Path_92" class="st1" d="M79.06,20.27c2.93,0.42,5.91,0.52,8.86,0.29C84.99,20.14,82.02,20.04,79.06,20.27z"/>
								</g>
							</g>
						</g>
					</g>
					<g id="Group_215" transform="translate(0.024 9.92)">
						<g id="Group_214">
							<path id="Path_93" class="st1" d="M124.45,20.13c-0.14,0.19-0.3,0.37-0.48,0.53l-1.44,1.43l-5.38,5.18L99.26,44.2
								c-3.49,3.31-6.89,6.39-9.84,9.32c-2.65,2.55-4.99,5.4-6.97,8.5c-1.32,2.1-2.29,4.39-2.88,6.8l-0.25,1.14
								c-0.05,0.32-0.08,0.6-0.12,0.85c-0.02,0.24-0.06,0.47-0.13,0.7c-0.02-0.24-0.01-0.47,0.02-0.71
								c0.02-0.25,0.04-0.54,0.07-0.86c0.05-0.34,0.12-0.72,0.2-1.16c0.51-2.46,1.44-4.81,2.74-6.96c1.95-3.16,4.29-6.07,6.94-8.66
								c2.95-2.97,6.33-6.05,9.82-9.36l18.01-16.81l5.5-5.05l1.52-1.35C124.07,20.41,124.25,20.26,124.45,20.13z"/>
						</g>
					</g>
				</g>
				<g id="Group_279">
					<g id="Group_255" transform="translate(63.165)">
						<g id="Group_254">
							<g id="Group_253">
								<g id="Group_244">
									<g id="Group_243">
										<g id="Group_219">
											<g id="Group_218">
												<g id="Group_217">
													<path id="Path_94" class="st9" d="M110.43,62.97L110.43,62.97c-4.21,2.27-9.47,0.7-11.74-3.51
														c-0.14-0.26-0.27-0.53-0.38-0.81c-1.07-2.58-1.92-4.69-1.92-4.69s-6.53,2.32-9.86-3.67c-1.87-3.36-4.51-9.11-6.46-13.5
														c-1.65-3.71-1.25-8.01,1.06-11.35l0,0c5.36-6.76,9.6-5.63,18.12-4.25l1.26,0.21l13.71,30.4
														C116.08,55.94,114.43,60.81,110.43,62.97z"/>
												</g>
											</g>
										</g>
										<g id="Group_227" transform="translate(2.434 16.645)">
											<g id="Group_222" transform="translate(0.817 1.643)">
												<g id="Group_221">
													<g id="Group_220">
														<path id="Path_95" class="st0" d="M81,21.46c0.18-0.52-0.09-1.09-0.61-1.27c-0.52-0.18-1.09,0.09-1.27,0.61
															c-0.18,0.52,0.09,1.08,0.61,1.27C80.25,22.25,80.81,21.98,81,21.46C81,21.46,81,21.46,81,21.46z"/>
													</g>
												</g>
											</g>
											<g id="Group_226">
												<g id="Group_225">
													<g id="Group_224">
														<g id="Group_223">
															<path id="Path_96" class="st0" d="M79.12,22.1c0.15,0.05,0.5-0.72,1.32-1.17s1.66-0.35,1.7-0.51
																c0.02-0.07-0.18-0.21-0.55-0.27c-1.01-0.13-1.99,0.41-2.41,1.34C79.03,21.84,79.04,22.08,79.12,22.1z"/>
														</g>
													</g>
												</g>
											</g>
										</g>
										<g id="Group_235" transform="translate(11.505 12.537)">
											<g id="Group_230" transform="translate(0.746 1.696)">
												<g id="Group_229">
													<g id="Group_228">
														<path id="Path_97" class="st0" d="M79.2,20.63c-0.28,0.48-0.11,1.08,0.36,1.36c0.48,0.28,1.08,0.11,1.36-0.36
															c0.27-0.48,0.11-1.08-0.36-1.36C80.08,19.99,79.47,20.16,79.2,20.63z"/>
													</g>
												</g>
											</g>
											<g id="Group_234">
												<g id="Group_233">
													<g id="Group_232">
														<g id="Group_231">
															<path id="Path_98" class="st0" d="M79.11,22.1c0.15,0.05,0.5-0.72,1.33-1.17s1.66-0.35,1.7-0.51
																c0.02-0.07-0.18-0.21-0.55-0.27c-1.01-0.13-1.99,0.41-2.41,1.34C79.03,21.84,79.04,22.08,79.11,22.1z"/>
														</g>
													</g>
												</g>
											</g>
										</g>
										<g id="Group_239" transform="translate(8.806 15.815)">
											<g id="Group_238">
												<g id="Group_237">
													<g id="Group_236">
														<path id="Path_99" class="st0" d="M82.52,27.61c-0.52,0.06-1.03,0.21-1.5,0.44c-0.23,0.09-0.43,0.14-0.51,0.03
															c-0.12-0.21-0.19-0.46-0.18-0.7c-0.08-0.66-0.17-1.34-0.25-2.04c-0.15-1.76-0.47-3.5-0.97-5.2
															c-0.03,1.77,0.12,3.53,0.44,5.27c0.1,0.7,0.2,1.37,0.3,2.03c0.01,0.35,0.14,0.69,0.37,0.97
															c0.15,0.13,0.36,0.19,0.56,0.14c0.14-0.03,0.27-0.08,0.4-0.15C81.67,28.22,82.12,27.95,82.52,27.61z"/>
													</g>
												</g>
											</g>
										</g>
										<g id="Group_242" transform="translate(17.266 27.265)">
											<g id="Group_241">
												<g id="Group_240">
													<path id="Path_100" class="st7" d="M79.06,26.61c2.81-1.45,5.13-3.7,6.65-6.47c0,0,0.48,5.34-5.82,8.04L79.06,26.61z"
														/>
												</g>
											</g>
										</g>
									</g>
								</g>
								<g id="Group_252" transform="translate(24.184 7.15)">
									<g id="Group_247">
										<g id="Group_246">
											<g id="Group_245">
												<path id="Path_101" class="st9" d="M79.06,20.99c0.1-0.1,4.82-2.91,6.22,2.25c1.21,4.46-3.83,5.23-3.89,5.08
													S79.06,20.99,79.06,20.99z"/>
											</g>
										</g>
									</g>
									<g id="Group_251" transform="translate(2.426 1.858)">
										<g id="Group_250">
											<g id="Group_249">
												<g id="Group_248">
													<path id="Path_102" class="st7" d="M79.88,23.85c0.01-0.02,0.09,0.02,0.24,0.04c0.2,0.01,0.4-0.06,0.56-0.19
														c0.43-0.56,0.52-1.31,0.24-1.96c-0.12-0.37-0.33-0.71-0.6-0.99c-0.18-0.24-0.47-0.38-0.77-0.36
														c-0.19,0.02-0.35,0.17-0.36,0.37c-0.01,0.14,0.05,0.21,0.02,0.23s-0.12-0.04-0.15-0.23c-0.02-0.11,0.01-0.23,0.07-0.33
														c0.08-0.13,0.22-0.23,0.37-0.26c0.38-0.06,0.77,0.08,1.02,0.37c0.32,0.3,0.56,0.68,0.7,1.09
														c0.33,0.76,0.17,1.64-0.4,2.24c-0.21,0.15-0.47,0.2-0.72,0.14C79.93,23.94,79.87,23.86,79.88,23.85z"/>
												</g>
											</g>
										</g>
									</g>
								</g>
							</g>
						</g>
					</g>
					<g id="Group_265" transform="translate(79.981 27.266)">
						<g id="Group_257" transform="translate(2.064 5.046)">
							<g id="Group_256">
								<path id="Path_103" class="st3" d="M82.18,29.92c0,0,11.78-19.76,29.99-3.13c11.88,10.85,31.27,33.22,38.2,41.98
									c1.55,1.97,3.98,4.95,2.28,6.79c-5.19,5.62-19.34,18.19-45.55,8.81L82.28,49.77C78.03,43.85,77.99,35.89,82.18,29.92
									L82.18,29.92z"/>
							</g>
						</g>
						<g id="Group_259">
							<g id="Group_258">
								<path id="Path_104" class="st3" d="M99.35,25.56l-3.32-5.43l-16.96,13.5l3.17,5.1L99.35,25.56z"/>
							</g>
						</g>
						<g id="Group_261" transform="translate(0.675 6.129)" class="st4">
							<g id="Group_260">
								<path id="Path_105" d="M97.95,20.13c0,0-13.35,11.55-13.55,11.36s-5.33-3.9-5.33-3.9l4.71,2.64L97.95,20.13z"/>
							</g>
						</g>
						<g id="Group_264" transform="translate(0.143 5.363)">
							<g id="Group_263">
								<g id="Group_262">
									<path id="Path_106" class="st0" d="M99.34,20.14c-0.3,0.12-0.59,0.27-0.85,0.46c-0.53,0.33-1.28,0.82-2.2,1.45
										c-1.83,1.26-4.3,3.09-7.02,5.1c-1.85,1.37-3.6,2.63-5.09,3.66l0.22-0.01c-1.58-0.86-2.91-1.56-3.84-2.04
										c-0.48-0.28-0.98-0.51-1.5-0.69c0.43,0.35,0.89,0.65,1.38,0.91c0.9,0.54,2.19,1.3,3.76,2.19l0.11,0.06l0.11-0.07
										c1.52-1,3.29-2.24,5.14-3.61l6.93-5.22l2.1-1.58C98.87,20.58,99.12,20.38,99.34,20.14z"/>
								</g>
							</g>
						</g>
					</g>
					<g id="Group_278" transform="translate(0 40.607)">
						<g id="Group_274" transform="translate(0 8.361)">
							<g id="Group_268" transform="translate(0 26.908)">
								<g id="Group_267">
									<g id="Group_266">
										<path id="Path_107" class="st9" d="M107.06,28.73l-3.22-1.31c-1.88-0.52-3.71-1.22-5.46-2.09
											c-0.88-0.42-1.68-0.99-2.36-1.68c-0.89-0.82-1.65-1.77-2.28-2.8c-0.23-0.58-0.88-0.86-1.45-0.64
											c-0.32,0.13-0.57,0.39-0.67,0.72c-0.19,0.99,1.05,3.8,3.8,6.1s-2.89,2.22-4.95,2.23s-8.42,0.33-8.91,0.96
											c-0.73,0.93,0.13,1.88,2.18,1.83c2.08-0.06,8.22,0.21,8.17,1.3c-0.05,1.07-10.51,0.96-10.51,0.96s-2.23-0.39-2.33,0.87
											c-0.18,2.26,10.96,1.55,12.02,1.46c0.73-0.07,0.72,1.12-0.07,1.14c-0.82,0.03-10.44-0.35-10.64,1.95
											c-0.15,1.77,9.16-0.5,11.12,0.69s-7.24,1-7.32,2.69c-0.03,0.63,0.04,1.1,5.33,0.45c5.42-0.67,19.82-4.87,19.82-4.87
											l-2.43-10.08"/>
									</g>
								</g>
							</g>
							<g id="Group_270" transform="translate(20.932)">
								<g id="Group_269">
									<path id="Path_108" class="st9" d="M149.06,20.13c0,0-17.32,23.88-21.34,24.82c-4.02,0.93-48.66,7.95-48.66,7.95
										l2.23,14.57c0,0,55.42-1.55,60.79-6.45s21.58-29.8,21.58-29.8L149.06,20.13z"/>
								</g>
							</g>
							<g id="Group_273" transform="translate(78.732 35.729)">
								<g id="Group_272">
									<g id="Group_271">
										<path id="Path_109" class="st7" d="M79.07,24.87c-0.02,0.02,0.12,0.2,0.46,0.4c1.31,0.73,2.96,0.32,3.77-0.94
											c0.62-0.9,0.67-2.08,0.15-3.04c-0.28-0.5-0.73-0.88-1.28-1.07c-0.51-0.17-1.07-0.12-1.56,0.12
											c-0.82,0.42-1.13,1.43-0.71,2.25c0.02,0.03,0.04,0.07,0.06,0.1c0.36,0.51,1.02,0.7,1.61,0.48
											c0.39-0.16,0.48-0.41,0.46-0.41c-0.03-0.03-0.17,0.15-0.52,0.23c-0.48,0.12-0.98-0.08-1.26-0.48
											c-0.33-0.64-0.08-1.42,0.55-1.75c0,0,0.01,0,0.01-0.01c0.38-0.17,0.81-0.2,1.2-0.07c0.43,0.15,0.78,0.46,1,0.85
											c0.44,0.8,0.4,1.78-0.1,2.55c-0.39,0.64-1.05,1.08-1.79,1.18C80.41,25.34,79.7,25.2,79.07,24.87z"/>
									</g>
								</g>
							</g>
						</g>
						<g id="Group_277" transform="translate(75.307)">
							<g id="Group_276">
								<g id="Group_275">
									<path id="Path_110" class="st3" d="M114.46,35.77L98.01,63.98l-18.94-15.7c0,0,13.12-21.49,19.33-28.15L114.46,35.77z"/>
								</g>
							</g>
						</g>
					</g>
				</g>
				<g id="Group_282" transform="translate(63.561 110.082)">
					<g id="Group_281">
						<g id="Group_280">
							<path id="Path_111" class="st1" d="M79.07,20.15c3.11,1.13,5.27,3.96,5.55,7.25C83.63,24.43,81.68,21.88,79.07,20.15z"/>
						</g>
					</g>
				</g>
			</g>
			<g id="Group_284" transform="translate(80.656 11.757)">
				<path id="Path_112" class="st0" d="M81.6,24.68c0.24,0.45,0.68,0.76,1.18,0.84c0.49,0.11,1,0.1,1.5,0.19
					c0.78,0.15,1.49,0.56,2.01,1.17c0.2,0.28,0.43,0.54,0.69,0.77c0.27,0.23,0.65,0.27,0.96,0.09c0.44-0.32,0.24-1.01,0-1.49
					l-3.07-6.12l-5.8,1.26l2.5,2.91"/>
			</g>
			<g id="Group_286" transform="translate(64.083)">
				<g id="Group_285">
					<path id="Path_113" class="st0" d="M79.2,29.5c0.67-0.8,1.67-1.46,2.46-0.76c0.73,0.76,1.2,1.73,1.36,2.78
						c0.16,1.04,0.5,2.04,1.02,2.96c1.14,1.67,3.42,2.11,5.09,0.97c0.6-0.41,1.06-0.98,1.34-1.66c0.72,1.23,1.65,2.33,2.74,3.26
						c1.12,0.93,2.63,1.22,4.02,0.78c1.36-0.51,2.04-2.03,1.53-3.39c-0.01-0.03-0.02-0.06-0.03-0.08c0.75,0.61,1.67,0.97,2.64,1.01
						c0.98,0.02,1.88-0.53,2.3-1.42c0.35-0.89-0.08-1.91-0.98-2.26c-0.03-0.01-0.06-0.02-0.09-0.03c1.1,0.72,2.52,0.69,3.59-0.08
						c1.03-0.82,1.33-2.27,0.7-3.43c-0.71-1.1-2.19-1.42-3.29-0.71c-0.01,0.01-0.02,0.01-0.03,0.02c0.76-0.37,1.4-0.94,1.86-1.65
						c0.45-0.75,0.22-1.72-0.52-2.19c-0.91-0.42-1.89,0.42-2.88,0.6c-1.62,0.3-2.94-1.16-4.25-2.16c-2.46-1.74-5.54-2.35-8.48-1.69
						c-2.91,0.68-5.59,2.1-7.79,4.13C80.03,25.79,78.61,27.65,79.2,29.5"/>
				</g>
			</g>
			<g id="Group_288" transform="translate(65.059 20.557)">
				<g id="Group_287">
					<path id="Path_114" class="st0" d="M81.66,20.76c0.01,0.48-0.46,0.88-1,1.1c-0.47,0.26-1.05,0.21-1.48-0.11
						c-0.32-0.34-0.01-1.14,0.85-1.48S81.66,20.29,81.66,20.76z"/>
				</g>
			</g>
			<g id="Group_290" transform="translate(73.273 16.311)">
				<g id="Group_289">
					<path id="Path_115" class="st0" d="M82.13,20.84c-0.09,0.47-0.68,0.77-1.26,1.04c-0.6,0.25-1.2,0.48-1.61,0.24
						c-0.19-0.13-0.26-0.43-0.11-0.79c0.44-0.93,1.49-1.39,2.47-1.1C81.99,20.37,82.16,20.61,82.13,20.84z"/>
				</g>
			</g>
			<g id="Group_292" transform="translate(77.144 27.115)">
				<g id="Group_291">
					<path id="Path_116" class="st0" d="M80.77,20.14c0.14-0.06,0.51,1.05-0.04,2.3s-1.61,1.73-1.66,1.59
						c-0.09-0.14,0.68-0.75,1.14-1.82C80.69,21.15,80.61,20.16,80.77,20.14z"/>
				</g>
			</g>
			<g id="Group_294" transform="translate(63.966 4.209)">
				<g id="Group_293">
					<path id="Path_117" class="st1" d="M106.59,25.54c0.01,0.01-0.08,0.07-0.25,0.15c-0.26,0.11-0.55,0.17-0.83,0.17
						c-1.11,0.03-2.15-0.58-2.65-1.57l0.3,0.06c-0.99,0.9-2.27,1.42-3.61,1.44c-1.67,0.07-3.29-0.6-4.42-1.83l0.49-0.19
						c0.01,0.76-0.38,1.47-1.03,1.86c-0.63,0.42-1.38,0.6-2.13,0.51c-1.17-0.25-2.22-0.89-2.98-1.82c-0.76-0.82-1.36-1.67-2.06-2.34
						c-0.61-0.66-1.41-1.13-2.29-1.33c-0.78-0.12-1.57-0.02-2.3,0.28c-1.07,0.48-2.02,1.18-2.81,2.05c-0.28,0.33-0.6,0.64-0.94,0.92
						c0.21-0.39,0.47-0.75,0.77-1.07c0.75-0.96,1.72-1.74,2.82-2.27c0.79-0.36,1.67-0.5,2.53-0.38c0.98,0.2,1.88,0.69,2.58,1.41
						c0.75,0.7,1.38,1.57,2.1,2.34c0.68,0.82,1.61,1.4,2.64,1.64c1.21,0.17,2.6-0.69,2.54-1.79L95,22.98l0.53,0.61
						c1.02,1.12,2.48,1.74,3.99,1.71c1.23,0,2.43-0.43,3.37-1.23l0.19-0.17l0.11,0.23c0.43,0.89,1.32,1.48,2.31,1.52
						C105.87,25.65,106.24,25.61,106.59,25.54z"/>
				</g>
			</g>
			<g id="Group_296" transform="translate(82.378 45.129)">
				<g id="Group_295">
					<path id="Path_118" class="st0" d="M110.14,32.63c-0.05,0-0.05-0.65-0.25-1.8c-0.3-1.62-0.91-3.16-1.79-4.55
						c-1.29-2.07-3.18-3.69-5.42-4.64c-2.76-1.14-5.83-1.24-8.65-0.3c-1.45,0.51-2.79,1.27-3.99,2.23c-1.12,0.89-2.15,1.9-3.07,3.01
						c-1.53,1.92-2.92,3.94-4.16,6.06c-1.1,1.79-2,3.24-2.66,4.22c-0.32,0.49-0.6,0.86-0.78,1.11s-0.29,0.38-0.31,0.36
						c0.26-0.55,0.56-1.09,0.9-1.6c0.64-1.1,1.48-2.55,2.5-4.31c1.2-2.17,2.57-4.23,4.1-6.19c1.88-2.45,4.4-4.33,7.28-5.45
						c2.96-0.99,6.17-0.86,9.04,0.36c3.91,1.75,6.64,5.39,7.22,9.64c0.06,0.45,0.09,0.91,0.08,1.36
						C110.19,32.31,110.18,32.47,110.14,32.63z"/>
				</g>
			</g>
			<g id="Group_298" transform="translate(89.13 53.086)">
				<g id="Group_297">
					<path id="Path_119" class="st10" d="M98.55,34.99c-0.01-0.35-0.17-0.67-0.44-0.89c-0.32-0.25-0.7-0.4-1.11-0.42
						c-0.58-0.02-1.16-0.12-1.71-0.31c-1.29-0.53-2.14-2.04-2.57-3.65c-0.23-0.81-0.4-1.66-0.71-2.48
						c-0.27-0.84-0.78-1.58-1.48-2.12c-0.74-0.49-1.59-0.79-2.48-0.86c-0.85-0.08-1.71-0.09-2.56-0.05
						c-1.51,0.17-3.03-0.06-4.42-0.66c-0.94-0.47-1.64-1.3-1.94-2.31c-0.07-0.27-0.09-0.55-0.05-0.83c0.04-0.19,0.07-0.28,0.08-0.28
						c0.03,0.35,0.09,0.7,0.18,1.05c0.35,0.89,1.04,1.62,1.91,2.02c1.34,0.51,2.8,0.68,4.22,0.49c1.62-0.06,3.65-0.22,5.39,0.97
						c0.79,0.61,1.37,1.44,1.67,2.39c0.31,0.88,0.48,1.74,0.69,2.54c0.21,1.41,1.03,2.65,2.23,3.42c0.51,0.19,1.05,0.32,1.6,0.36
						c0.45,0.05,0.88,0.25,1.21,0.57c0.22,0.2,0.35,0.47,0.36,0.77C98.62,34.9,98.56,34.99,98.55,34.99z"/>
				</g>
			</g>
			<g id="Group_300" transform="translate(82.328 63.363)">
				<g id="Group_299">
					<path id="Path_120" class="st10" d="M98.81,34.08c-0.13-0.3-0.29-0.6-0.47-0.88c-0.58-0.69-1.36-1.17-2.23-1.39
						c-1.08-0.36-2.5-0.32-4.04-0.82c-0.84-0.25-1.57-0.77-2.08-1.48c-0.52-0.73-0.8-1.58-1.27-2.28c-0.96-1.4-2.7-1.87-4.16-2.23
						c-1.39-0.23-2.71-0.73-3.9-1.48c-0.8-0.56-1.35-1.41-1.55-2.36c-0.09-0.34-0.06-0.71,0.09-1.04c0.02,0.33,0.07,0.66,0.13,0.99
						c0.27,0.85,0.82,1.59,1.57,2.08c1.17,0.67,2.45,1.11,3.79,1.3c0.81,0.16,1.61,0.41,2.37,0.73c0.86,0.35,1.6,0.94,2.14,1.7
						c0.53,0.79,0.8,1.63,1.26,2.28c0.45,0.61,1.08,1.07,1.8,1.3c1.41,0.5,2.85,0.51,3.99,0.94c0.93,0.27,1.74,0.85,2.29,1.65
						c0.14,0.22,0.23,0.47,0.28,0.73C98.83,33.99,98.83,34.08,98.81,34.08z"/>
				</g>
			</g>
			<g id="Group_302" transform="translate(100.353 62.464)">
				<g id="Group_301">
					<path id="Path_121" class="st10" d="M111.03,20.13c0.02,0.15,0,0.31-0.04,0.46c-0.09,0.43-0.25,0.85-0.48,1.23
						c-0.89,1.37-2.18,2.43-3.69,3.05c-0.92,0.43-1.96,0.82-3.03,1.29c-1.14,0.46-2.19,1.14-3.07,1.99
						c-1.87,1.84-2.78,4.69-4.09,7.47c-0.6,1.41-1.46,2.69-2.54,3.79c-0.27,0.26-0.55,0.49-0.86,0.7c-0.29,0.22-0.61,0.41-0.94,0.57
						c-0.63,0.31-1.3,0.54-1.99,0.69c-2.66,0.56-5.08,0.42-6.98,1.02c-1.52,0.37-2.84,1.32-3.67,2.66
						c-0.27,0.51-0.46,1.05-0.56,1.62c-0.04-0.15-0.04-0.31-0.01-0.46c0.05-0.44,0.17-0.87,0.38-1.26c0.8-1.45,2.15-2.51,3.75-2.94
						c1.96-0.67,4.44-0.58,6.98-1.15c0.65-0.15,1.27-0.37,1.86-0.66c0.3-0.15,0.59-0.33,0.86-0.54c0.29-0.19,0.56-0.41,0.8-0.66
						c1.02-1.05,1.84-2.28,2.42-3.63c1.29-2.73,2.22-5.65,4.23-7.6c0.94-0.89,2.05-1.59,3.25-2.05c1.1-0.47,2.14-0.82,3.05-1.22
						c1.47-0.56,2.74-1.53,3.67-2.8C110.62,21.21,110.86,20.68,111.03,20.13z"/>
				</g>
			</g>
			<g id="Group_304" transform="translate(107.115 76.019)">
				<g id="Group_303">
					<path id="Path_122" class="st10" d="M115.3,20.13c-0.08,0.62-0.32,1.21-0.7,1.71c-1.02,1.37-2.41,2.42-4,3.03
						c-1.95,0.89-4.49,1.3-6.9,2.6c-1.26,0.66-2.29,1.67-2.99,2.91c-0.7,1.39-1.31,2.82-1.85,4.28c-1.22,2.86-3.34,5.25-6.03,6.81
						c-3.7,2.13-8.18,2.44-12.14,0.84c-0.42-0.17-0.84-0.37-1.23-0.59c-0.27-0.16-0.41-0.25-0.4-0.27c0.02-0.05,0.6,0.26,1.71,0.65
						c1.56,0.54,3.2,0.82,4.85,0.81c2.44,0,4.84-0.66,6.95-1.9c2.58-1.52,4.6-3.83,5.77-6.58c0.54-1.48,1.17-2.93,1.89-4.34
						c0.75-1.32,1.87-2.4,3.22-3.1c2.54-1.33,5.09-1.69,7-2.51c1.55-0.56,2.92-1.52,3.98-2.79
						C114.77,21.22,115.06,20.69,115.3,20.13z"/>
				</g>
			</g>
			<g id="Group_306" transform="translate(125.398 86.724)">
				<g id="Group_305">
					<path id="Path_123" class="st10" d="M106.96,20.14c-1.58,0.7-3.06,1.6-4.41,2.67c-1.42,1.2-2.6,2.67-3.47,4.31
						c-0.5,0.92-0.85,1.96-1.31,3.05c-0.43,1.18-1.19,2.22-2.2,2.97c-1.07,0.65-2.27,1.02-3.52,1.11c-1.17,0.13-2.28,0.17-3.31,0.34
						c-1.84,0.29-3.63,0.86-5.31,1.67c-1.53,0.8-2.99,1.74-4.36,2.79c0.28-0.38,0.62-0.71,0.99-1c0.98-0.83,2.05-1.56,3.18-2.15
						c1.7-0.89,3.52-1.51,5.41-1.83c1.07-0.19,2.2-0.24,3.33-0.38c1.15-0.08,2.27-0.43,3.27-1.02c0.91-0.7,1.61-1.64,2-2.72
						c0.45-1.05,0.83-2.12,1.36-3.07c0.92-1.69,2.18-3.17,3.68-4.38c1.01-0.8,2.12-1.46,3.32-1.95c0.32-0.13,0.65-0.25,0.99-0.34
						C106.83,20.15,106.96,20.12,106.96,20.14z"/>
				</g>
			</g>
			<g id="Group_308" transform="translate(109.304 50.629)">
				<g id="Group_307">
					<path id="Path_124" class="st10" d="M79.07,35.95c0.93-0.35,1.78-0.89,2.5-1.58c0.74-0.78,1.33-1.69,1.75-2.68
						c0.49-1.24,0.88-2.52,1.17-3.83c0.3-1.34,0.73-2.64,1.3-3.89c0.49-1.03,1.19-1.94,2.06-2.68c0.58-0.5,1.28-0.86,2.02-1.06
						c0.27-0.09,0.55-0.11,0.83-0.07c-0.96,0.28-1.84,0.77-2.59,1.43c-0.78,0.74-1.41,1.63-1.85,2.61c-0.52,1.23-0.93,2.5-1.22,3.8
						c-0.3,1.33-0.71,2.64-1.25,3.9c-0.46,1.04-1.13,1.98-1.95,2.76c-0.56,0.53-1.23,0.93-1.96,1.17
						C79.63,35.93,79.34,35.98,79.07,35.95z"/>
				</g>
			</g>
			<g id="Group_310" transform="translate(106.14 41.786)">
				<g id="Group_309">
					<path id="Path_125" class="st10" d="M79.09,25.12c0.46-2.38,2.21-4.3,4.54-4.96c0.07,0.15-1.31,0.85-2.55,2.22
						C79.82,23.74,79.25,25.18,79.09,25.12z"/>
				</g>
			</g>
			<g id="Group_312" transform="translate(84.185 35.506)">
				<g id="Group_311">
					<path id="Path_126" class="st10" d="M93.36,20.14c-0.49,0.91-1.07,1.77-1.72,2.58c-0.64,0.93-1.33,1.82-2.06,2.68
						c-0.47,0.52-1.03,0.94-1.67,1.24c-0.7,0.27-1.45,0.39-2.19,0.36c-0.7-0.03-1.39-0.02-2.08,0.04c-1.71,0.24-3.18,1.34-3.87,2.92
						c-0.36,0.94-0.51,1.95-0.45,2.96c-0.14-0.25-0.22-0.53-0.22-0.82c-0.08-0.78,0.02-1.56,0.3-2.29c0.42-1.1,1.2-2.03,2.22-2.63
						c0.6-0.36,1.26-0.59,1.95-0.69c0.72-0.07,1.44-0.09,2.16-0.06c0.67,0.04,1.34-0.07,1.97-0.3c0.57-0.26,1.08-0.63,1.51-1.09
						c0.84-0.89,1.51-1.83,2.12-2.56C91.93,21.63,92.61,20.85,93.36,20.14z"/>
				</g>
			</g>
			<g id="Group_313" transform="translate(97.444 61.162)" class="st11">
				<path id="Path_127" d="M94.65,20.13l-8.32,33.69l-7.27-10.14L94.65,20.13z"/>
			</g>
			<g id="Group_315" transform="translate(148.817 147.053)">
				<g id="Group_314">
					<path id="Path_128" class="st1" d="M79.35,45.14c-0.16,0-0.29-5.6-0.29-12.5s0.13-12.5,0.29-12.5s0.29,5.6,0.29,12.5
						S79.51,45.14,79.35,45.14z"/>
				</g>
			</g>
		</g>
	</g>
</g>
</svg>
