<?xml version="1.0" encoding="utf-8"?>
<!-- Generator: Adobe Illustrator 25.2.1, SVG Export Plug-In . SVG Version: 6.00 Build 0)  -->
<svg version="1.1" id="Layer_1" xmlns="http://www.w3.org/2000/svg" xmlns:xlink="http://www.w3.org/1999/xlink" x="0px" y="0px"
	 viewBox="0 0 232.85 210.61" style="enable-background:new 0 0 232.85 210.61;" xml:space="preserve">
<style type="text/css">
	.st0{clip-path:url(#SVGID_2_);}
	.st1{fill:#3C74CC;}
</style>
<g>
	<defs>
		<rect id="SVGID_1_" x="22.18" y="11.3" width="188" height="188"/>
	</defs>
	<clipPath id="SVGID_2_">
		<use xlink:href="#SVGID_1_"  style="overflow:visible;"/>
	</clipPath>
	<g id="Mask_Group_3" transform="translate(-866 -2913)" class="st0">
		<g id="noun_Document_4307698" transform="translate(859.733 2881.667)">
			<path id="Path_11805" class="st1" d="M141.25,92.77c-0.2,3.26,2.29,6.07,5.55,6.27c0.24,0.01,0.48,0.01,0.71,0h46.37
				c-0.63-0.63-1.25-1.25-1.25-1.88l-48.88-48.88c-0.63-0.63-1.25-1.25-1.88-1.25v45.75H141.25z"/>
			<path id="Path_11806" class="st1" d="M147.51,111.57c-10.2,0.19-18.61-7.93-18.8-18.12c0-0.23,0-0.45,0-0.68V42.64H66.05
				c-10.2-0.19-18.61,7.93-18.8,18.12c0,0.23,0,0.45,0,0.68v150.4c-0.19,10.2,7.93,18.61,18.12,18.8c0.23,0,0.45,0,0.68,0h112.8
				c10.2,0.19,18.61-7.93,18.8-18.12c0-0.23,0-0.45,0-0.68V111.57H147.51z M141.25,186.77H91.11c-3.46-0.04-6.23-2.88-6.19-6.35
				c0.04-3.4,2.79-6.14,6.19-6.19h50.13c3.46,0.04,6.23,2.88,6.19,6.35C147.39,183.98,144.65,186.73,141.25,186.77z M153.78,149.17
				H91.11c-3.46,0.04-6.3-2.73-6.35-6.19s2.73-6.3,6.19-6.35c0.05,0,0.11,0,0.16,0h62.67c3.46,0.04,6.23,2.88,6.19,6.35
				C159.93,146.38,157.18,149.13,153.78,149.17L153.78,149.17z"/>
		</g>
	</g>
</g>
</svg>
