<?xml version="1.0" encoding="utf-8"?>
<!-- Generator: Adobe Illustrator 25.2.1, SVG Export Plug-In . SVG Version: 6.00 Build 0)  -->
<svg version="1.1" id="Layer_1" xmlns="http://www.w3.org/2000/svg" xmlns:xlink="http://www.w3.org/1999/xlink" x="0px" y="0px"
	 viewBox="0 0 213.74 211.7" style="enable-background:new 0 0 213.74 211.7;" xml:space="preserve">
<style type="text/css">
	.st0{clip-path:url(#SVGID_2_);}
	.st1{fill:#3C74CC;}
</style>
<g>
	<defs>
		<rect id="SVGID_1_" x="12.63" y="11.85" width="188" height="188"/>
	</defs>
	<clipPath id="SVGID_2_">
		<use xlink:href="#SVGID_1_"  style="overflow:visible;"/>
	</clipPath>
	<g id="Mask_Group_6" transform="translate(-1431 -2606)" class="st0">
		<g id="noun_PDF_4291991" transform="translate(1417.763 2565.786)">
			<path id="Path_11807" class="st1" d="M38.77,119.09c-7.07,0.03-12.78,5.8-12.74,12.87c0,0.07,0,0.13,0,0.2v54.62
				c0,7.03,5.69,12.73,12.72,12.73c0,0,0.01,0,0.01,0h108.25c7.07-0.04,12.77-5.8,12.74-12.87c0-0.07,0-0.13,0-0.2v-54.29
				c0.03-7.1-5.64-12.91-12.73-13.07H38.77z M49.49,139.2h10.05c7.4,0,13.4,6,13.4,13.4c0,7.4-6,13.4-13.4,13.4h-6.7v10.05
				c0.11,1.75-1.22,3.25-2.97,3.35c-0.13,0.01-0.25,0.01-0.38,0c-1.75,0.11-3.25-1.22-3.35-2.97c-0.01-0.13-0.01-0.25,0-0.38v-33.51
				c-0.11-1.75,1.22-3.25,2.96-3.36C49.24,139.19,49.36,139.19,49.49,139.2z M83,139.2h3.01c11.18-0.11,20.33,8.86,20.44,20.04
				c0,0.02,0,0.05,0,0.07c0,11.06-9.38,20.11-20.44,20.11H83c-1.75,0.11-3.25-1.22-3.35-2.97c-0.01-0.13-0.01-0.25,0-0.38v-33.51
				c-0.11-1.75,1.22-3.25,2.96-3.36C82.75,139.19,82.88,139.19,83,139.2L83,139.2z M116.52,139.2h20.11
				c1.85,0.05,3.31,1.58,3.27,3.43c-0.04,1.79-1.48,3.22-3.27,3.27h-16.76v9.72h16.76c1.85-0.05,3.39,1.42,3.43,3.27
				c0.05,1.85-1.42,3.39-3.27,3.43c-0.05,0-0.11,0-0.16,0h-16.76v13.74c0.05,1.85-1.42,3.39-3.27,3.43
				c-1.85,0.05-3.39-1.42-3.43-3.27c0-0.05,0-0.11,0-0.16v-33.5c-0.11-1.75,1.22-3.25,2.96-3.36
				C116.26,139.19,116.39,139.19,116.52,139.2L116.52,139.2z M52.84,145.9v13.4h6.7c3.7,0,6.7-2.99,6.71-6.69
				c0-3.7-2.99-6.7-6.69-6.71c0,0-0.01,0-0.01,0H52.84z M86.36,145.9v26.81c7.71-0.34,13.4-6.03,13.4-13.4S94.06,146.24,86.36,145.9
				L86.36,145.9z"/>
			<path id="Path_11808" class="st1" d="M89.71,52.07c-9.16-0.09-16.67,7.26-16.76,16.43c0,0.11,0,0.22,0,0.33v43.57h74.4
				c10.8,0.17,19.46,8.97,19.44,19.77v54.62c0.02,10.8-8.64,19.61-19.44,19.77h-74.4v16.76c-0.09,9.16,7.26,16.67,16.43,16.76
				c0.11,0,0.22,0,0.33,0h107.24c9.16,0.09,16.67-7.26,16.76-16.43c0-0.11,0-0.22,0-0.33V105.68h-40.21
				c-7.39-0.02-13.38-6.01-13.4-13.4V52.07H89.71z M166.78,53.74v38.54c0.01,3.7,3,6.69,6.7,6.7h37.87c-0.34-0.33-0.67-1-1.01-1.34
				l-41.22-42.22C168.5,54.68,167.69,54.1,166.78,53.74L166.78,53.74z"/>
		</g>
	</g>
</g>
</svg>
