<?xml version="1.0" encoding="utf-8"?>
<!-- Generator: Adobe Illustrator 25.2.1, SVG Export Plug-In . SVG Version: 6.00 Build 0)  -->
<svg version="1.1" id="Layer_1" xmlns="http://www.w3.org/2000/svg" xmlns:xlink="http://www.w3.org/1999/xlink" x="0px" y="0px"
	 viewBox="0 0 1690.42 816.67" style="enable-background:new 0 0 1690.42 816.67;" xml:space="preserve">
<style type="text/css">
	.st0{fill:#FFFFFF;}
	.st1{opacity:0.6;fill:#DDEFFE;enable-background:new    ;}
	.st2{opacity:0.5;fill:#9BD6E8;enable-background:new    ;}
	.st3{fill:#63ACC2;}
	.st4{clip-path:url(#SVGID_2_);}
	.st5{fill:#D5EBFE;}
	.st6{fill:#303C60;}
	.st7{fill:#F09959;}
	.st8{fill:#6791C9;}
	.st9{fill:#75A1DE;}
	.st10{opacity:0.5;fill:#6791C9;enable-background:new    ;}
	.st11{fill:#E38540;}
	.st12{fill:#F5CE5C;}
	.st13{fill:#4381DB;}
	.st14{fill:#2E5B9A;}
	.st15{fill:#9CBEED;}
	.st16{fill:#232E4F;}
	.st17{fill:#1B243D;}
	.st18{fill:#FFD24F;}
	.st19{fill:#EDC055;}
	.st20{fill:#2A66C6;}
	.st21{fill:#0F2D5C;}
	.st22{fill:#9EC8FF;}
	.st23{clip-path:url(#SVGID_4_);}
	.st24{fill:#D54A41;}
	.st25{fill:#58556E;}
	.st26{fill:#7EC1D6;}
	.st27{fill:#8DDAF2;}
	.st28{fill:#3E6BAB;}
	.st29{fill:#F37168;}
	.st30{fill:#FFCB30;}
	.st31{fill:#4578BF;}
	.st32{clip-path:url(#SVGID_6_);}
	.st33{fill:#255096;}
	.st34{fill:#FFC34E;}
	.st35{fill:#A1A654;}
	.st36{fill:#C1C765;}
	.st37{clip-path:url(#SVGID_8_);}
	.st38{fill:#A8CEFF;}
	.st39{fill:#93BBF0;}
	.st40{clip-path:url(#SVGID_10_);}
	.st41{fill:#FB8627;}
	.st42{fill:url(#Path_11741_1_);}
	.st43{fill:url(#Path_11742_1_);}
	.st44{fill:url(#Path_11746_1_);}
	.st45{fill:url(#Path_11747_1_);}
	.st46{clip-path:url(#SVGID_12_);}
	.st47{fill:#C6E0F7;}
	.st48{fill:#2E2D3D;}
	.st49{fill:#BDCCD4;}
	.st50{clip-path:url(#SVGID_14_);}
	.st51{fill:#3A384D;}
	.st52{clip-path:url(#SVGID_16_);}
	.st53{fill:#7A4E34;}
	.st54{fill:#9BD6E8;}
</style>
<g id="Group_670" transform="translate(0.093 0.325)">
	<rect id="Rectangle_91" x="18.88" y="26.01" class="st0" width="1652" height="764"/>
	<g id="Group_669" transform="translate(68.232 3.854)">
		<path id="Path_11568" class="st1" d="M46.58,469.2C-0.11,264.95,135.13,104.6,412.99,72.56
			c311.2-35.88,373.76,136.23,285.35,186.2S460.56,617.22,441.35,677.48S112.23,756.37,46.58,469.2z"/>
		<path id="Path_11569" class="st1" d="M1349.69,248.89c146.65,6.41,246.24,230.05,136.41,346.47s-517.51,74.74-502.98-9.76
			s188.57-57.36,263.38-161.77S1307.85,247.06,1349.69,248.89z"/>
		<path id="Path_11570" class="st2" d="M1397.07,693.39c-114.25-0.29-369.5,4.62-570.09,15.03s-30.81,33.76,107.34,23.82
			s234.79,21.71,403.88,11.02S1529.63,693.72,1397.07,693.39z"/>
		<g id="Group_592" transform="translate(58.969 143.255)">
			<g id="Group_571">
				<g id="Group_559" transform="translate(0 181.844)">
					<path id="Path_11571" class="st3" d="M22.63,41.52c-0.42,0-0.8-0.28-0.92-0.68l-2.7-9.15c-0.13-0.45,0.08-0.93,0.5-1.13
						l8.61-4.12c0.48-0.23,1.04-0.03,1.27,0.45c0.23,0.48,0.03,1.04-0.45,1.27l0,0l-7.87,3.77l2.47,8.37
						c0.15,0.51-0.14,1.04-0.65,1.19C22.81,41.5,22.72,41.52,22.63,41.52L22.63,41.52z"/>
				</g>
				<g id="Group_560" transform="translate(7.768 212.265)">
					<path id="Path_11572" class="st3" d="M75.63,216.86c-0.42,0-0.8-0.28-0.92-0.68l-5.07-17.15c-0.15-0.51,0.14-1.04,0.64-1.19
						c0.51-0.15,1.04,0.14,1.19,0.65l0,0l5.07,17.15c0.15,0.51-0.14,1.04-0.65,1.19C75.82,216.85,75.73,216.86,75.63,216.86
						L75.63,216.86z M65.5,182.57c-0.42,0-0.79-0.28-0.91-0.68l-5.07-17.15c-0.15-0.51,0.14-1.04,0.64-1.19
						c0.51-0.15,1.04,0.14,1.19,0.65l0,0l5.07,17.15c0.15,0.51-0.14,1.04-0.65,1.19C65.69,182.56,65.6,182.57,65.5,182.57
						L65.5,182.57z M55.38,148.27c-0.42,0-0.8-0.28-0.92-0.68l-5.06-17.15c-0.15-0.51,0.14-1.04,0.64-1.19
						c0.51-0.15,1.04,0.14,1.19,0.64l5.06,17.15c0.15,0.51-0.14,1.04-0.65,1.19C55.56,148.26,55.47,148.27,55.38,148.27
						L55.38,148.27z M45.25,113.98c-0.42,0-0.8-0.28-0.92-0.68l-5.07-17.15c-0.15-0.51,0.14-1.04,0.65-1.18
						c0.5-0.15,1.03,0.14,1.18,0.64l5.07,17.15c0.15,0.51-0.14,1.04-0.65,1.19C45.43,113.97,45.34,113.98,45.25,113.98L45.25,113.98
						z M35.12,79.69c-0.42,0-0.79-0.28-0.91-0.68l-5.07-17.15c-0.15-0.5,0.14-1.04,0.64-1.19c0.5-0.15,1.04,0.14,1.19,0.64
						c0,0,0,0,0,0.01l5.07,17.15c0.15,0.51-0.14,1.04-0.65,1.19C35.3,79.67,35.21,79.69,35.12,79.69L35.12,79.69z M24.99,45.39
						c-0.42,0-0.8-0.28-0.92-0.68l-5.07-17.14c-0.15-0.51,0.14-1.04,0.64-1.19c0.51-0.15,1.04,0.14,1.19,0.64l5.06,17.15
						c0.15,0.51-0.14,1.04-0.64,1.18C25.17,45.38,25.08,45.39,24.99,45.39L24.99,45.39z"/>
				</g>
				<g id="Group_561" transform="translate(68.544 418.031)">
					<path id="Path_11573" class="st3" d="M22.63,37.39c-0.42,0-0.8-0.28-0.91-0.68l-2.7-9.15c-0.15-0.51,0.14-1.04,0.64-1.19
						c0.51-0.15,1.04,0.14,1.19,0.64l0,0l2.41,8.17l7.99-2.96c0.49-0.18,1.04,0.07,1.23,0.56c0.18,0.49-0.07,1.04-0.56,1.23l0,0
						l-8.95,3.31C22.85,37.37,22.74,37.39,22.63,37.39z"/>
				</g>
				<g id="Group_562" transform="translate(97.833 293.364)">
					<path id="Path_11574" class="st3" d="M19.92,152.22c-0.53,0-0.95-0.43-0.95-0.96c0-0.4,0.25-0.75,0.62-0.89l17.64-6.53
						c0.49-0.18,1.04,0.07,1.23,0.56c0.18,0.49-0.07,1.04-0.56,1.23l-17.64,6.53C20.15,152.2,20.04,152.22,19.92,152.22z
						 M55.2,139.17c-0.53,0-0.95-0.43-0.95-0.96c0-0.4,0.25-0.75,0.62-0.89l17.64-6.53c0.49-0.18,1.04,0.07,1.23,0.56
						c0.18,0.49-0.07,1.04-0.56,1.23l0,0l-17.64,6.53C55.42,139.15,55.31,139.17,55.2,139.17L55.2,139.17z M90.47,126.12
						c-0.53,0-0.95-0.43-0.95-0.96c0-0.4,0.25-0.75,0.62-0.89l17.64-6.53c0.49-0.18,1.04,0.07,1.23,0.56
						c0.18,0.49-0.07,1.04-0.56,1.23l0,0l-17.64,6.53C90.7,126.1,90.59,126.12,90.47,126.12L90.47,126.12z M125.75,113.07
						c-0.53,0-0.95-0.43-0.95-0.96c0-0.4,0.25-0.75,0.62-0.89l17.64-6.53c0.49-0.18,1.04,0.07,1.23,0.56
						c0.18,0.49-0.07,1.04-0.56,1.23l0,0l-17.64,6.53C125.97,113.05,125.86,113.07,125.75,113.07L125.75,113.07z M161.02,100.02
						c-0.53,0-0.95-0.43-0.95-0.96c0-0.4,0.25-0.75,0.62-0.89l17.64-6.53c0.49-0.18,1.04,0.07,1.23,0.56
						c0.18,0.49-0.07,1.04-0.56,1.23l-17.64,6.53C161.24,100,161.13,100.02,161.02,100.02L161.02,100.02z M196.29,86.97
						c-0.53,0-0.95-0.43-0.95-0.96c0-0.4,0.25-0.75,0.62-0.89l17.64-6.53c0.49-0.18,1.04,0.07,1.23,0.56
						c0.18,0.49-0.07,1.04-0.56,1.23l-17.64,6.53C196.52,86.95,196.41,86.97,196.29,86.97L196.29,86.97z M231.57,73.92
						c-0.53,0-0.95-0.43-0.95-0.95c0-0.4,0.25-0.76,0.62-0.9l17.64-6.53c0.49-0.18,1.04,0.07,1.23,0.56
						c0.18,0.49-0.07,1.04-0.56,1.23l-17.64,6.53C231.79,73.9,231.68,73.92,231.57,73.92L231.57,73.92z M266.84,60.87
						c-0.53,0-0.95-0.43-0.95-0.96c0-0.4,0.25-0.75,0.62-0.89l17.64-6.53c0.49-0.18,1.04,0.07,1.23,0.56
						c0.18,0.49-0.07,1.04-0.56,1.23l-17.64,6.53C267.07,60.85,266.95,60.87,266.84,60.87L266.84,60.87z M302.11,47.82
						c-0.53,0-0.95-0.43-0.95-0.96c0-0.4,0.25-0.75,0.62-0.89l17.64-6.53c0.49-0.18,1.04,0.07,1.23,0.56
						c0.18,0.49-0.07,1.04-0.56,1.23l-17.64,6.53C302.34,47.8,302.23,47.82,302.11,47.82L302.11,47.82z M337.39,34.77
						c-0.53,0-0.95-0.43-0.95-0.95c0-0.4,0.25-0.76,0.62-0.9l17.64-6.53c0.49-0.18,1.04,0.07,1.23,0.56
						c0.18,0.49-0.07,1.04-0.56,1.23l-17.64,6.53C337.61,34.75,337.5,34.77,337.39,34.77L337.39,34.77z"/>
				</g>
				<g id="Group_563" transform="translate(585.238 283.528)">
					<path id="Path_11575" class="st3" d="M37.08,33.11c-0.17,0-0.34-0.05-0.49-0.13l-7.81-4.64l-8.52,3.15
						c-0.49,0.18-1.04-0.07-1.23-0.56c-0.18-0.49,0.07-1.04,0.56-1.23l8.95-3.31c0.27-0.1,0.57-0.07,0.82,0.07l8.2,4.87
						c0.45,0.27,0.6,0.85,0.33,1.31C37.72,32.93,37.41,33.11,37.08,33.11L37.08,33.11z"/>
				</g>
				<g id="Group_564" transform="translate(671.333 298.448)">
					<path id="Path_11576" class="st3" d="M273.9,178.99c-0.17,0-0.34-0.05-0.49-0.13l-16.93-10.05c-0.45-0.27-0.6-0.85-0.33-1.31
						s0.85-0.6,1.31-0.33l0,0l16.93,10.05c0.45,0.27,0.6,0.85,0.33,1.31C274.55,178.81,274.24,178.99,273.9,178.99L273.9,178.99z
						 M240.04,158.89c-0.17,0-0.34-0.05-0.49-0.13l-16.93-10.05c-0.45-0.27-0.6-0.85-0.33-1.31s0.85-0.6,1.31-0.33l16.93,10.05
						c0.45,0.27,0.6,0.85,0.33,1.31C240.69,158.71,240.38,158.89,240.04,158.89L240.04,158.89z M206.17,138.79
						c-0.17,0-0.34-0.05-0.49-0.13l-16.93-10.05c-0.45-0.27-0.6-0.85-0.33-1.31s0.85-0.6,1.31-0.33l0,0l16.93,10.05
						c0.45,0.27,0.6,0.85,0.34,1.31C206.83,138.61,206.51,138.79,206.17,138.79L206.17,138.79z M172.31,118.69
						c-0.17,0-0.34-0.05-0.49-0.13l-16.93-10.05c-0.45-0.27-0.6-0.85-0.33-1.31s0.85-0.6,1.31-0.33l16.93,10.05
						c0.45,0.27,0.6,0.85,0.34,1.31C172.96,118.51,172.65,118.69,172.31,118.69L172.31,118.69z M138.45,98.59
						c-0.17,0-0.34-0.05-0.49-0.13L121.03,88.4c-0.45-0.27-0.6-0.85-0.33-1.31s0.85-0.6,1.31-0.33l0,0l16.93,10.05
						c0.45,0.27,0.6,0.85,0.34,1.31C139.1,98.41,138.78,98.59,138.45,98.59z M104.58,78.49c-0.17,0-0.34-0.05-0.49-0.13L87.16,68.3
						c-0.45-0.27-0.6-0.85-0.33-1.31s0.85-0.6,1.31-0.33l16.93,10.05c0.45,0.27,0.6,0.85,0.33,1.31
						C105.23,78.31,104.92,78.49,104.58,78.49L104.58,78.49z M70.72,58.39c-0.17,0-0.34-0.05-0.49-0.13L53.3,48.2
						c-0.45-0.27-0.6-0.85-0.33-1.31s0.85-0.6,1.31-0.33l0,0L71.2,56.61c0.45,0.27,0.6,0.85,0.33,1.31
						C71.37,58.21,71.05,58.39,70.72,58.39L70.72,58.39z M36.85,38.29c-0.17,0-0.34-0.05-0.49-0.13L19.43,28.1
						c-0.46-0.26-0.62-0.84-0.36-1.3c0.26-0.46,0.84-0.62,1.3-0.36c0.01,0.01,0.03,0.02,0.04,0.02l16.93,10.05
						c0.45,0.27,0.6,0.85,0.33,1.31C37.5,38.11,37.19,38.29,36.85,38.29z"/>
				</g>
				<g id="Group_565" transform="translate(981.192 458.903)">
					<path id="Path_11577" class="st3" d="M28.13,33.45c-0.17,0-0.34-0.05-0.49-0.13l-8.21-4.87c-0.46-0.26-0.62-0.84-0.36-1.3
						c0.26-0.46,0.84-0.62,1.3-0.36c0.01,0.01,0.03,0.01,0.04,0.02l7.7,4.57l7.5-4.89c0.44-0.29,1.03-0.16,1.32,0.28
						c0.29,0.44,0.16,1.03-0.28,1.32l0,0l-7.99,5.21C28.5,33.4,28.32,33.45,28.13,33.45z"/>
				</g>
				<g id="Group_566" transform="translate(1104.664 304.359)">
					<path id="Path_11578" class="st3" d="M19.92,171.75c-0.53,0-0.96-0.42-0.96-0.95c0-0.32,0.16-0.63,0.43-0.8l16.94-11.04
						c0.44-0.29,1.03-0.16,1.32,0.28c0.29,0.44,0.16,1.03-0.28,1.32l0,0l-16.94,11.04C20.29,171.69,20.11,171.75,19.92,171.75z
						 M53.8,149.67c-0.53,0-0.96-0.42-0.96-0.95c0-0.32,0.16-0.63,0.43-0.8l16.94-11.04c0.44-0.29,1.03-0.16,1.32,0.28
						c0.29,0.44,0.16,1.03-0.28,1.32l0,0l-16.94,11.04C54.17,149.62,53.99,149.67,53.8,149.67L53.8,149.67z M87.68,127.59
						c-0.53,0-0.96-0.42-0.96-0.95c0-0.32,0.16-0.63,0.43-0.8l16.94-11.04c0.44-0.29,1.03-0.16,1.32,0.28
						c0.29,0.44,0.16,1.03-0.28,1.32L88.2,127.44C88.05,127.54,87.87,127.59,87.68,127.59L87.68,127.59z M121.56,105.51
						c-0.53,0-0.95-0.43-0.95-0.95c0-0.32,0.16-0.62,0.43-0.8l16.94-11.04c0.44-0.29,1.03-0.16,1.32,0.28
						c0.29,0.44,0.16,1.03-0.28,1.32l0,0l-16.94,11.04C121.93,105.46,121.75,105.51,121.56,105.51L121.56,105.51z M155.44,83.43
						c-0.53,0-0.96-0.42-0.96-0.95c0-0.32,0.16-0.63,0.43-0.8l16.94-11.04c0.45-0.28,1.04-0.14,1.31,0.31
						c0.27,0.43,0.15,1-0.27,1.29l-16.94,11.04C155.8,83.38,155.62,83.44,155.44,83.43L155.44,83.43z M189.32,61.36
						c-0.53,0-0.96-0.42-0.96-0.95c0-0.32,0.16-0.63,0.43-0.8l16.94-11.04c0.44-0.29,1.03-0.16,1.32,0.28
						c0.29,0.44,0.16,1.03-0.28,1.32L189.84,61.2C189.68,61.3,189.5,61.36,189.32,61.36L189.32,61.36z M223.2,39.28
						c-0.53,0-0.95-0.43-0.95-0.95c0-0.32,0.16-0.62,0.43-0.8l16.94-11.04c0.44-0.29,1.03-0.16,1.32,0.28
						c0.29,0.44,0.16,1.03-0.28,1.32l-16.94,11.04C223.56,39.23,223.38,39.28,223.2,39.28L223.2,39.28z"/>
				</g>
				<g id="Group_567" transform="translate(1341.814 278.713)">
					<path id="Path_11579" class="st3" d="M19.92,42.85c-0.53,0-0.96-0.42-0.96-0.95c0-0.32,0.16-0.63,0.43-0.8l7.65-4.98l1.57-8.99
						c0.09-0.52,0.59-0.87,1.1-0.77c0.52,0.09,0.87,0.59,0.77,1.1l-1.65,9.4c-0.05,0.26-0.2,0.49-0.42,0.64l-7.99,5.21
						C20.29,42.8,20.11,42.85,19.92,42.85z"/>
				</g>
				<g id="Group_568" transform="translate(1354.831 86.069)">
					<path id="Path_11580" class="st3" d="M19.93,201.62c-0.53,0-0.95-0.42-0.96-0.95c0-0.06,0-0.11,0.01-0.17l3.38-19.27
						c0.09-0.52,0.59-0.87,1.1-0.78c0.52,0.09,0.87,0.59,0.78,1.1l-3.38,19.27C20.79,201.29,20.39,201.62,19.93,201.62z
						 M26.68,163.09c-0.06,0-0.11,0-0.17-0.01c-0.52-0.09-0.86-0.58-0.77-1.1l3.38-19.27c0.09-0.52,0.59-0.87,1.1-0.78
						c0.52,0.09,0.87,0.59,0.78,1.1l-3.38,19.27C27.53,162.76,27.14,163.09,26.68,163.09z M33.43,124.56c-0.06,0-0.11,0-0.17-0.01
						c-0.52-0.09-0.86-0.58-0.77-1.1l3.38-19.26c0.09-0.52,0.59-0.87,1.1-0.78c0.52,0.09,0.87,0.59,0.78,1.1l-3.38,19.26
						C34.29,124.23,33.89,124.56,33.43,124.56L33.43,124.56z M40.18,86.04c-0.53,0-0.96-0.43-0.95-0.96c0-0.05,0-0.11,0.01-0.16
						l3.38-19.26c0.09-0.52,0.59-0.87,1.1-0.78c0.52,0.09,0.87,0.59,0.78,1.1l-3.38,19.27C41.04,85.7,40.64,86.03,40.18,86.04
						L40.18,86.04z M46.93,47.51c-0.53,0-0.96-0.43-0.96-0.95c0-0.05,0-0.11,0.01-0.16l3.38-19.26c0.09-0.52,0.59-0.87,1.1-0.78
						c0.52,0.09,0.87,0.59,0.78,1.1l-3.38,19.26C47.79,47.17,47.4,47.51,46.93,47.51L46.93,47.51z"/>
				</g>
				<g id="Group_569" transform="translate(1380.725 56.654)">
					<path id="Path_11581" class="st3" d="M27.79,38.39c-0.53,0-0.96-0.43-0.96-0.95c0-0.05,0-0.11,0.01-0.16l1.47-8.36l-8.47-0.67
						c-0.53-0.02-0.94-0.46-0.92-0.98s0.46-0.94,0.98-0.92c0.03,0,0.06,0,0.09,0.01l9.51,0.75c0.53,0.04,0.92,0.5,0.88,1.03
						c0,0.03-0.01,0.06-0.01,0.09l-1.65,9.4C28.65,38.06,28.25,38.39,27.79,38.39z"/>
				</g>
				<g id="Group_570" transform="translate(25.926)">
					<path id="Path_11582" class="st3" d="M20.22,201.79c-0.44,0.02-0.87-0.18-1.13-0.54c-0.23-0.42-0.08-0.95,0.34-1.18
						c0.08-0.04,0.16-0.07,0.24-0.09l22.68-8.3c0.59-0.24,1.27-0.05,1.67,0.45c0.3,0.47,0.04,1.04-0.59,1.27l-22.68,8.3
						C20.59,201.75,20.4,201.79,20.22,201.79z M65.58,185.19c-0.44,0.02-0.87-0.18-1.13-0.54c-0.3-0.47-0.04-1.04,0.59-1.27
						l22.68-8.3c0.59-0.24,1.27-0.05,1.67,0.45c0.3,0.47,0.04,1.04-0.59,1.27l-22.68,8.3C65.94,185.16,65.76,185.19,65.58,185.19
						L65.58,185.19z M110.93,168.59c-0.44,0.02-0.87-0.18-1.13-0.54c-0.3-0.47-0.04-1.04,0.59-1.27l22.68-8.3
						c0.59-0.24,1.27-0.05,1.67,0.45c0.3,0.47,0.03,1.04-0.59,1.27l-22.68,8.3C111.3,168.56,111.12,168.59,110.93,168.59
						L110.93,168.59z M156.29,151.99c-0.44,0.02-0.87-0.18-1.13-0.54c-0.3-0.48-0.03-1.05,0.59-1.27l22.68-8.3
						c0.59-0.24,1.27-0.05,1.67,0.45c0.3,0.48,0.03,1.05-0.59,1.27l-22.68,8.3C156.66,151.96,156.48,151.99,156.29,151.99z
						 M201.65,135.39c-0.44,0.02-0.87-0.18-1.13-0.54c-0.3-0.48-0.03-1.05,0.59-1.27l22.68-8.3c0.59-0.24,1.27-0.05,1.67,0.45
						c0.23,0.42,0.08,0.95-0.34,1.18c-0.08,0.04-0.16,0.07-0.25,0.09l-22.68,8.3C202.01,135.35,201.83,135.39,201.65,135.39z
						 M247.01,118.79c-0.44,0.02-0.87-0.18-1.13-0.54c-0.23-0.42-0.08-0.95,0.34-1.18c0.08-0.04,0.16-0.07,0.24-0.09l22.68-8.3
						c0.59-0.24,1.27-0.05,1.67,0.45c0.23,0.42,0.08,0.95-0.34,1.18c-0.08,0.04-0.16,0.07-0.24,0.09l-22.68,8.3
						C247.37,118.76,247.19,118.79,247.01,118.79z M292.36,102.19c-0.44,0.02-0.87-0.18-1.13-0.54c-0.3-0.48-0.04-1.05,0.59-1.27
						l15.01-5.49c0.06-0.02,0.13-0.04,0.19-0.05l8.16-1.82c0.6-0.18,1.25,0.09,1.55,0.65c0.19,0.51-0.19,1.04-0.85,1.18l-8.07,1.8
						l-14.91,5.46C292.73,102.15,292.55,102.19,292.36,102.19L292.36,102.19z M339.67,89.49c-0.5,0.03-0.97-0.24-1.2-0.69
						c-0.19-0.51,0.19-1.04,0.85-1.18l24.14-5.38c0.6-0.18,1.25,0.09,1.55,0.65c0.19,0.51-0.19,1.04-0.85,1.18l-24.14,5.38
						C339.91,89.47,339.79,89.49,339.67,89.49L339.67,89.49z M1355.28,83.38c-0.03,0-0.07,0-0.1,0l-25.07-1.51
						c-0.69-0.04-1.2-0.5-1.15-1.03c0.15-0.6,0.74-0.98,1.34-0.88l25.07,1.51c0.69,0.04,1.2,0.5,1.15,1.03
						C1356.39,83.07,1355.86,83.44,1355.28,83.38L1355.28,83.38z M1305.14,80.36c-0.03,0-0.07,0-0.1,0l-25.07-1.51
						c-0.69-0.04-1.2-0.5-1.15-1.03c0.15-0.6,0.74-0.98,1.34-0.88l25.07,1.51c0.69,0.04,1.2,0.5,1.15,1.03
						C1306.25,80.04,1305.72,80.42,1305.14,80.36L1305.14,80.36z M387.95,78.72c-0.5,0.03-0.97-0.24-1.2-0.69
						c-0.19-0.51,0.19-1.04,0.85-1.18l24.14-5.39c0.6-0.17,1.25,0.09,1.55,0.65c0.19,0.51-0.19,1.04-0.85,1.18l-24.14,5.38
						C388.19,78.71,388.07,78.72,387.95,78.72L387.95,78.72z M1255,77.33c-0.03,0-0.07,0-0.1,0l-25.07-1.51
						c-0.69-0.04-1.2-0.5-1.15-1.03c0.15-0.6,0.74-0.98,1.34-0.88l25.07,1.51c0.69,0.04,1.2,0.5,1.15,1.03
						C1256.11,77.02,1255.58,77.39,1255,77.33L1255,77.33z M1204.86,74.31c-0.03,0-0.07,0-0.1,0l-25.07-1.51
						c-0.69-0.04-1.2-0.5-1.15-1.03c0.15-0.6,0.74-0.98,1.34-0.88l25.07,1.51c0.69,0.04,1.2,0.5,1.15,1.03
						C1205.97,73.99,1205.44,74.36,1204.86,74.31L1204.86,74.31z M1154.72,71.28c-0.03,0-0.07,0-0.1,0l-25.07-1.51
						c-0.69-0.04-1.2-0.5-1.15-1.03c0.15-0.6,0.74-0.97,1.34-0.88l25.07,1.51c0.69,0.04,1.2,0.5,1.15,1.03
						C1155.83,70.96,1155.3,71.34,1154.72,71.28L1154.72,71.28z M1104.59,68.25c-0.03,0-0.07,0-0.1,0l-25.07-1.51
						c-0.69-0.04-1.2-0.5-1.15-1.03c0.16-0.59,0.74-0.97,1.34-0.88l25.07,1.51c0.69,0.04,1.2,0.5,1.15,1.03
						C1105.69,67.94,1105.16,68.31,1104.59,68.25L1104.59,68.25z M436.23,67.95c-0.5,0.03-0.97-0.24-1.2-0.69
						c-0.19-0.51,0.19-1.04,0.85-1.18l24.14-5.38c0.6-0.17,1.25,0.1,1.55,0.65c0.19,0.51-0.19,1.04-0.85,1.18l-24.14,5.38
						C436.47,67.94,436.35,67.95,436.23,67.95L436.23,67.95z M1054.45,65.23c-0.03,0-0.07,0-0.1,0l-25.07-1.51
						c-0.69-0.04-1.2-0.5-1.15-1.03c0.15-0.6,0.74-0.98,1.34-0.88l25.07,1.51c0.69,0.04,1.2,0.5,1.15,1.03
						C1055.55,64.92,1055.02,65.29,1054.45,65.23L1054.45,65.23z M1004.34,61.96c-0.05,0-0.1,0-0.15-0.01l-24.98-2.25
						c-0.69-0.06-1.18-0.54-1.09-1.06c0.19-0.59,0.78-0.95,1.39-0.84l24.98,2.25c0.69,0.06,1.18,0.54,1.09,1.06
						C1005.42,61.66,1004.9,62.01,1004.34,61.96L1004.34,61.96z M954.39,57.46c-0.05,0-0.1,0-0.15-0.01l-24.97-2.25
						c-0.69-0.06-1.18-0.54-1.09-1.06c0.19-0.59,0.78-0.95,1.39-0.84l24.98,2.25c0.69,0.06,1.18,0.54,1.09,1.06
						C955.47,57.16,954.95,57.51,954.39,57.46L954.39,57.46z M484.51,57.18c-0.5,0.03-0.97-0.24-1.2-0.69
						c-0.19-0.51,0.19-1.04,0.85-1.18l24.14-5.38c0.6-0.17,1.25,0.1,1.55,0.65c0.19,0.51-0.19,1.04-0.85,1.18l-24.14,5.38
						C484.74,57.17,484.63,57.18,484.51,57.18L484.51,57.18z M904.44,52.96c-0.05,0-0.1,0-0.15-0.01l-24.97-2.25
						c-0.69-0.06-1.18-0.54-1.09-1.06c0.18-0.59,0.78-0.95,1.39-0.84l24.97,2.25c0.69,0.06,1.18,0.54,1.09,1.06
						C905.52,52.66,905,53.02,904.44,52.96L904.44,52.96z M854.49,48.46c-0.05,0-0.1,0-0.15-0.01l-24.97-2.25
						c-0.69-0.06-1.18-0.54-1.09-1.06c0.18-0.59,0.78-0.95,1.39-0.84l24.97,2.25c0.69,0.06,1.18,0.54,1.09,1.06
						C855.57,48.17,855.05,48.52,854.49,48.46L854.49,48.46z M532.79,46.41c-0.5,0.03-0.97-0.24-1.2-0.69
						c-0.19-0.51,0.19-1.04,0.85-1.18l24.14-5.38c0.6-0.17,1.25,0.09,1.55,0.65c0.19,0.51-0.19,1.04-0.85,1.18l-24.14,5.38
						C533.02,46.4,532.91,46.41,532.79,46.41L532.79,46.41z M804.54,43.97c-0.05,0-0.1,0-0.15-0.01l-24.97-2.25
						c-0.69-0.06-1.18-0.54-1.09-1.06c0.18-0.59,0.78-0.95,1.39-0.84l24.97,2.25c0.69,0.06,1.18,0.54,1.09,1.06
						C805.62,43.67,805.1,44.03,804.54,43.97L804.54,43.97z M754.59,39.47c-0.05,0-0.1,0-0.15-0.01l-24.97-2.25
						c-0.69-0.06-1.18-0.54-1.09-1.06c0.18-0.59,0.78-0.95,1.39-0.84l24.97,2.25c0.69,0.06,1.18,0.54,1.09,1.06
						c-0.15,0.55-0.67,0.91-1.24,0.86L754.59,39.47z M581.07,35.63c-0.5,0.03-0.97-0.24-1.2-0.69c-0.19-0.51,0.19-1.04,0.85-1.18
						l24.14-5.38c0.6-0.17,1.25,0.09,1.55,0.65c0.19,0.51-0.19,1.04-0.85,1.18l-24.14,5.38c-0.11,0.03-0.23,0.05-0.35,0.05
						L581.07,35.63z M704.64,34.97c-0.05,0-0.1,0-0.15-0.01l-24.97-2.25c-0.69-0.06-1.18-0.54-1.09-1.06
						c0.18-0.59,0.78-0.95,1.39-0.84l24.97,2.25c0.69,0.06,1.18,0.54,1.09,1.06c-0.15,0.55-0.68,0.91-1.24,0.86L704.64,34.97z
						 M654.69,30.47c-0.05,0-0.1,0-0.15-0.01l-24.97-2.25c-0.68-0.06-1.17-0.54-1.09-1.06c0.19-0.59,0.78-0.95,1.39-0.84l24.98,2.25
						c0.69,0.06,1.18,0.54,1.09,1.06c-0.15,0.55-0.67,0.91-1.24,0.86L654.69,30.47z"/>
				</g>
			</g>
			<g id="Group_577" transform="translate(7.811 8.139)">
				<g id="Group_572" transform="translate(0 179.497)">
					<path id="Path_11583" class="st3" d="M29.26,30.22c-0.07,0-0.13-0.01-0.2-0.02l-9.33-1.98c-0.52-0.11-0.84-0.62-0.73-1.13
						c0.11-0.52,0.62-0.84,1.13-0.73l9.33,1.98c0.52,0.11,0.85,0.61,0.74,1.13C30.11,29.91,29.71,30.23,29.26,30.22L29.26,30.22z"/>
				</g>
				<g id="Group_573" transform="translate(28.162 185.476)">
					<path id="Path_11584" class="st3" d="M415.31,112.18c-0.07,0-0.13-0.01-0.2-0.02l-18.83-4c-0.52-0.11-0.84-0.62-0.73-1.13
						c0.11-0.52,0.62-0.84,1.13-0.73l18.83,4c0.52,0.11,0.85,0.61,0.74,1.13C416.16,111.86,415.77,112.18,415.31,112.18z
						 M377.65,104.18c-0.07,0-0.13-0.01-0.2-0.02l-18.83-4c-0.52-0.11-0.84-0.62-0.73-1.13c0.11-0.52,0.62-0.84,1.13-0.73l18.83,4
						c0.52,0.11,0.85,0.61,0.74,1.13C378.5,103.87,378.11,104.19,377.65,104.18L377.65,104.18z M340,96.19
						c-0.07,0-0.13-0.01-0.2-0.02l-18.83-4c-0.52-0.11-0.84-0.62-0.73-1.13c0.11-0.52,0.62-0.84,1.13-0.73l18.83,4
						c0.52,0.11,0.85,0.61,0.74,1.13C340.84,95.87,340.45,96.19,340,96.19L340,96.19z M302.34,88.19c-0.07,0-0.13-0.01-0.2-0.02
						l-18.83-4c-0.52-0.11-0.84-0.62-0.73-1.13c0.11-0.52,0.62-0.84,1.13-0.73l0,0l18.83,4c0.52,0.11,0.84,0.62,0.73,1.13
						C303.18,87.88,302.79,88.19,302.34,88.19L302.34,88.19z M264.68,80.2c-0.07,0-0.13-0.01-0.2-0.02l-18.83-4
						c-0.52-0.11-0.84-0.62-0.73-1.13c0.11-0.52,0.62-0.84,1.13-0.73l0,0l18.83,4c0.52,0.11,0.84,0.62,0.73,1.14
						C265.52,79.89,265.13,80.2,264.68,80.2L264.68,80.2z M227.03,72.21c-0.07,0-0.13-0.01-0.2-0.02l-18.83-4
						c-0.52-0.11-0.84-0.62-0.73-1.13c0.11-0.52,0.62-0.84,1.13-0.73l0,0l18.83,4c0.52,0.11,0.85,0.61,0.74,1.13
						C227.88,71.89,227.48,72.21,227.03,72.21z M189.37,64.21c-0.07,0-0.13-0.01-0.2-0.02l-18.83-4c-0.52-0.11-0.84-0.62-0.73-1.13
						c0.11-0.52,0.62-0.84,1.13-0.73l18.83,4c0.52,0.11,0.85,0.61,0.74,1.13C190.22,63.9,189.83,64.22,189.37,64.21z M151.72,56.22
						c-0.07,0-0.13-0.01-0.2-0.02l-18.83-4c-0.52-0.11-0.84-0.62-0.73-1.13c0.11-0.52,0.62-0.84,1.13-0.73l18.83,4
						c0.52,0.11,0.84,0.62,0.73,1.14C152.55,55.91,152.16,56.22,151.72,56.22L151.72,56.22z M114.07,48.23
						c-0.07,0-0.13-0.01-0.2-0.02l-18.83-4c-0.52-0.11-0.84-0.62-0.73-1.13c0.11-0.52,0.62-0.84,1.13-0.73l18.83,4
						c0.52,0.11,0.84,0.62,0.73,1.13C114.91,47.91,114.52,48.22,114.07,48.23L114.07,48.23z M76.41,40.23
						c-0.07,0-0.13-0.01-0.2-0.02l-18.83-4c-0.52-0.11-0.84-0.62-0.73-1.13c0.11-0.52,0.62-0.84,1.13-0.73l18.83,4
						c0.52,0.11,0.85,0.61,0.74,1.13C77.26,39.92,76.86,40.24,76.41,40.23L76.41,40.23z M38.75,32.24c-0.07,0-0.13-0.01-0.2-0.02
						l-18.83-4c-0.52-0.11-0.84-0.62-0.73-1.13c0.11-0.52,0.62-0.84,1.13-0.73l18.83,4c0.52,0.11,0.85,0.61,0.74,1.13
						C39.6,31.92,39.21,32.24,38.75,32.24L38.75,32.24z"/>
				</g>
				<g id="Group_574" transform="translate(442.376 265.908)">
					<path id="Path_11585" class="st3" d="M29.26,37.72c-0.07,0-0.13-0.01-0.2-0.02l-9.33-1.98c-0.52-0.11-0.84-0.62-0.73-1.13
						c0.11-0.52,0.62-0.84,1.13-0.73l8.31,1.76l0.95-8.44c0.06-0.52,0.53-0.9,1.06-0.84s0.9,0.53,0.84,1.06l0,0l-1.07,9.48
						C30.16,37.36,29.75,37.72,29.26,37.72L29.26,37.72z"/>
				</g>
				<g id="Group_575" transform="translate(454.999 29.207)">
					<path id="Path_11586" class="st3" d="M19.92,245.22c-0.04,0-0.07,0-0.11-0.01c-0.52-0.06-0.9-0.53-0.84-1.05c0,0,0,0,0,0
						l2.22-19.72c0.06-0.52,0.53-0.9,1.06-0.84s0.9,0.53,0.84,1.06l0,0l-2.22,19.72C20.82,244.85,20.41,245.22,19.92,245.22z
						 M24.37,205.77c-0.04,0-0.07,0-0.11-0.01c-0.52-0.06-0.9-0.53-0.84-1.05c0,0,0,0,0,0l2.22-19.72c0.06-0.52,0.53-0.9,1.06-0.84
						s0.9,0.53,0.84,1.06l0,0l-2.22,19.72C25.26,205.4,24.85,205.77,24.37,205.77L24.37,205.77z M28.81,166.32
						c-0.04,0-0.07,0-0.11-0.01c-0.52-0.06-0.9-0.53-0.84-1.05c0,0,0,0,0,0l2.22-19.72c0.06-0.52,0.53-0.9,1.06-0.84
						s0.9,0.53,0.84,1.06l-2.22,19.72C29.7,165.95,29.3,166.32,28.81,166.32L28.81,166.32z M33.25,126.87c-0.04,0-0.07,0-0.11-0.01
						c-0.52-0.06-0.9-0.53-0.84-1.05l2.22-19.72c0.06-0.52,0.53-0.9,1.06-0.84s0.9,0.53,0.84,1.06l-2.22,19.72
						C34.15,126.5,33.74,126.87,33.25,126.87L33.25,126.87z M37.69,87.42c-0.04,0-0.07,0-0.11-0.01c-0.52-0.06-0.9-0.53-0.84-1.05
						l2.22-19.72c0.06-0.52,0.53-0.9,1.06-0.84s0.9,0.53,0.84,1.06l0,0l-2.22,19.72C38.59,87.05,38.18,87.42,37.69,87.42
						L37.69,87.42z M42.14,47.97c-0.04,0-0.07,0-0.11-0.01c-0.52-0.06-0.9-0.53-0.84-1.05c0,0,0,0,0,0l2.22-19.73
						c0.06-0.52,0.53-0.9,1.06-0.84s0.9,0.53,0.84,1.06l-2.22,19.73C43.03,47.6,42.62,47.97,42.14,47.97L42.14,47.97z"/>
				</g>
				<g id="Group_576" transform="translate(481.654)">
					<path id="Path_11587" class="st3" d="M19.92,37.72c-0.04,0-0.07,0-0.11-0.01c-0.52-0.06-0.9-0.53-0.84-1.05l1.07-9.48
						c0.06-0.52,0.53-0.9,1.06-0.84s0.9,0.53,0.84,1.06l-1.07,9.48C20.82,37.36,20.41,37.72,19.92,37.72z"/>
				</g>
			</g>
			<g id="Group_581" transform="translate(78.206 435.049)">
				<g id="Group_578">
					<path id="Path_11588" class="st3" d="M29.46,28.69h-0.04l-9.53-0.44c-0.53-0.02-0.93-0.47-0.91-1c0.02-0.53,0.47-0.93,1-0.91
						l9.53,0.44c0.53,0.02,0.93,0.47,0.91,1C30.39,28.29,29.97,28.69,29.46,28.69L29.46,28.69z"/>
				</g>
				<g id="Group_579" transform="translate(29.025 1.354)">
					<path id="Path_11589" class="st3" d="M585.24,54.6h-0.05l-19.49-0.91c-0.53-0.02-0.93-0.47-0.91-1c0.02-0.53,0.47-0.93,1-0.91
						l19.49,0.91c0.53,0.02,0.93,0.47,0.91,1C586.17,54.2,585.75,54.6,585.24,54.6L585.24,54.6z M546.25,52.78h-0.05l-19.49-0.91
						c-0.53-0.02-0.93-0.47-0.91-1c0.02-0.53,0.47-0.93,1-0.91l0,0l19.49,0.91c0.53,0.02,0.93,0.47,0.91,1
						C547.18,52.38,546.76,52.78,546.25,52.78L546.25,52.78z M507.26,50.96h-0.05l-19.49-0.91c-0.53-0.02-0.93-0.47-0.91-1
						c0.02-0.53,0.47-0.93,1-0.91l0,0l19.49,0.91c0.53,0.02,0.93,0.47,0.91,1C508.19,50.56,507.77,50.96,507.26,50.96L507.26,50.96z
						 M468.28,49.14h-0.05l-19.49-0.91c-0.53-0.02-0.93-0.47-0.91-1c0.02-0.53,0.47-0.93,1-0.91l19.49,0.91
						c0.53,0.02,0.93,0.47,0.91,1C469.2,48.74,468.79,49.14,468.28,49.14L468.28,49.14z M429.29,47.33h-0.05l-19.49-0.91
						c-0.53-0.02-0.93-0.47-0.91-1c0.02-0.53,0.47-0.93,1-0.91l0,0l19.49,0.91c0.53,0.02,0.93,0.47,0.91,1
						C430.22,46.92,429.8,47.32,429.29,47.33L429.29,47.33z M390.3,45.51h-0.04l-19.49-0.91c-0.53-0.02-0.93-0.47-0.91-1
						c0.02-0.53,0.47-0.93,1-0.91l19.49,0.91c0.53,0.01,0.94,0.45,0.93,0.98C391.27,45.11,390.83,45.53,390.3,45.51L390.3,45.51z
						 M351.31,43.7h-0.04l-19.49-0.91c-0.53-0.02-0.93-0.47-0.91-1c0.02-0.53,0.47-0.93,1-0.91l0,0l19.49,0.91
						c0.53,0.02,0.93,0.47,0.91,1C352.24,43.3,351.83,43.7,351.31,43.7L351.31,43.7z M312.33,41.88h-0.04l-19.49-0.91
						c-0.53-0.02-0.93-0.47-0.91-1c0.02-0.53,0.47-0.93,1-0.91l0,0l19.49,0.91c0.53,0.02,0.93,0.47,0.91,1
						C313.26,41.48,312.84,41.88,312.33,41.88L312.33,41.88z M273.34,40.06h-0.04l-19.49-0.91c-0.53-0.02-0.93-0.47-0.91-1
						c0.02-0.53,0.47-0.93,1-0.91l19.49,0.91c0.53,0.02,0.93,0.47,0.91,1C274.27,39.66,273.85,40.06,273.34,40.06L273.34,40.06z
						 M234.35,38.24h-0.04l-19.49-0.91c-0.53-0.02-0.93-0.47-0.91-1c0.02-0.53,0.47-0.93,1-0.91l0,0l19.49,0.91
						c0.53,0.02,0.93,0.47,0.91,1C235.28,37.84,234.86,38.24,234.35,38.24L234.35,38.24z M195.37,36.42h-0.04l-19.49-0.91
						c-0.53-0.02-0.93-0.47-0.91-1c0.02-0.53,0.47-0.93,1-0.91l0,0l19.49,0.91c0.53,0.02,0.93,0.47,0.91,1
						C196.3,36.02,195.88,36.42,195.37,36.42L195.37,36.42z M156.38,34.61h-0.04l-19.49-0.91c-0.53-0.02-0.93-0.47-0.91-1
						c0.02-0.53,0.47-0.93,1-0.91l19.49,0.91c0.53,0.02,0.93,0.47,0.91,1C157.31,34.21,156.89,34.61,156.38,34.61L156.38,34.61z
						 M117.39,32.79h-0.04l-19.49-0.91c-0.53-0.02-0.93-0.47-0.91-1c0.02-0.53,0.47-0.93,1-0.91l19.49,0.91
						c0.53,0.02,0.93,0.47,0.91,1C118.33,32.39,117.91,32.79,117.39,32.79L117.39,32.79z M78.41,30.97h-0.04l-19.49-0.91
						c-0.53-0.02-0.93-0.47-0.91-1c0.02-0.53,0.47-0.93,1-0.91l19.49,0.91c0.53,0.02,0.93,0.47,0.91,1
						C79.34,30.57,78.92,30.97,78.41,30.97L78.41,30.97z M39.42,29.15h-0.04l-19.49-0.91c-0.53-0.02-0.93-0.47-0.91-1
						c0.02-0.53,0.47-0.93,1-0.91l19.49,0.91c0.53,0.02,0.93,0.47,0.91,1C40.35,28.75,39.93,29.15,39.42,29.15L39.42,29.15z"/>
				</g>
				<g id="Group_580" transform="translate(613.831 28.62)">
					<path id="Path_11590" class="st3" d="M29.46,28.69h-0.04l-9.53-0.44c-0.53-0.02-0.93-0.47-0.91-0.99c0,0,0,0,0-0.01
						c0.03-0.52,0.48-0.93,1-0.91l9.53,0.44c0.53,0.02,0.93,0.47,0.91,1C30.39,28.28,29.97,28.68,29.46,28.69L29.46,28.69z"/>
				</g>
			</g>
			<g id="Group_587" transform="translate(798.527 93.193)">
				<g id="Group_582" transform="translate(563.545 221.482)">
					<path id="Path_11591" class="st3" d="M27.05,34.59c-0.23,0-0.46-0.09-0.63-0.24L19.29,28c-0.39-0.35-0.43-0.95-0.08-1.35
						c0.35-0.39,0.95-0.43,1.35-0.08l7.13,6.34c0.39,0.35,0.43,0.95,0.08,1.35C27.58,34.47,27.32,34.58,27.05,34.59L27.05,34.59z"/>
				</g>
				<g id="Group_583" transform="translate(335.971 18.998)">
					<path id="Path_11592" class="st3" d="M233.27,218.07c-0.23,0-0.46-0.09-0.63-0.24l-14.22-12.66c-0.39-0.35-0.43-0.95-0.08-1.35
						c0.35-0.39,0.95-0.43,1.35-0.08l14.22,12.66c0.39,0.35,0.43,0.95,0.08,1.35C233.81,217.96,233.55,218.07,233.27,218.07
						L233.27,218.07z M204.83,192.76c-0.23,0-0.46-0.09-0.63-0.24l-14.22-12.66c-0.39-0.35-0.43-0.95-0.08-1.35
						c0.35-0.39,0.95-0.43,1.35-0.08l14.22,12.66c0.39,0.35,0.43,0.95,0.08,1.35C205.36,192.64,205.1,192.76,204.83,192.76
						L204.83,192.76z M176.38,167.45c-0.23,0-0.46-0.09-0.63-0.24l-14.22-12.66c-0.39-0.35-0.43-0.95-0.08-1.35
						c0.35-0.39,0.95-0.43,1.35-0.08l14.22,12.66c0.39,0.35,0.43,0.95,0.08,1.35C176.91,167.33,176.65,167.45,176.38,167.45
						L176.38,167.45z M147.93,142.14c-0.23,0-0.46-0.09-0.63-0.24l-14.22-12.66c-0.39-0.35-0.43-0.95-0.08-1.35
						c0.35-0.39,0.95-0.43,1.35-0.08l14.22,12.66c0.39,0.35,0.43,0.95,0.08,1.35C148.47,142.02,148.21,142.14,147.93,142.14
						L147.93,142.14z M119.49,116.83c-0.23,0-0.46-0.09-0.63-0.24l-14.22-12.66c-0.39-0.35-0.43-0.95-0.08-1.35
						c0.35-0.39,0.95-0.43,1.35-0.08l14.22,12.66c0.39,0.35,0.43,0.95,0.08,1.35C120.02,116.71,119.76,116.83,119.49,116.83
						L119.49,116.83z M91.04,91.52c-0.23,0-0.46-0.09-0.63-0.24L76.18,78.62c-0.39-0.35-0.43-0.95-0.08-1.35
						c0.35-0.39,0.95-0.43,1.35-0.08l14.22,12.66c0.39,0.35,0.43,0.95,0.08,1.35C91.57,91.4,91.31,91.52,91.04,91.52L91.04,91.52z
						 M62.59,66.21c-0.23,0-0.46-0.09-0.63-0.24L47.74,53.31c-0.39-0.35-0.43-0.95-0.08-1.35c0.35-0.39,0.95-0.43,1.35-0.08
						l14.22,12.66c0.39,0.35,0.43,0.95,0.08,1.35C63.13,66.09,62.87,66.21,62.59,66.21L62.59,66.21z M34.15,40.9
						c-0.23,0-0.46-0.09-0.63-0.24L19.29,28c-0.39-0.35-0.43-0.95-0.08-1.35c0.35-0.39,0.95-0.43,1.35-0.08l14.22,12.66
						c0.39,0.35,0.43,0.95,0.08,1.35C34.68,40.78,34.42,40.9,34.15,40.9L34.15,40.9z"/>
				</g>
				<g id="Group_584" transform="translate(306.455)">
					<path id="Path_11593" class="st3" d="M35.22,34.58c-0.23,0-0.46-0.09-0.63-0.24l-6.6-5.87l-7.56,4.58
						c-0.45,0.27-1.04,0.13-1.31-0.32c-0.27-0.45-0.13-1.04,0.32-1.31l0,0l8.17-4.94c0.36-0.22,0.81-0.18,1.13,0.1l7.13,6.34
						c0.39,0.35,0.43,0.95,0.08,1.35C35.75,34.46,35.49,34.58,35.22,34.58L35.22,34.58z"/>
				</g>
				<g id="Group_585" transform="translate(23.864 14.437)">
					<path id="Path_11594" class="st3" d="M19.92,189.7c-0.53,0-0.96-0.42-0.96-0.95c0-0.34,0.17-0.65,0.46-0.82l15.7-9.5
						c0.45-0.27,1.04-0.13,1.31,0.32c0.27,0.45,0.13,1.04-0.32,1.31l-15.7,9.5C20.27,189.66,20.1,189.7,19.92,189.7z M51.32,170.7
						c-0.53,0-0.96-0.42-0.96-0.95c0-0.34,0.17-0.65,0.46-0.82l15.7-9.5c0.45-0.28,1.04-0.14,1.31,0.3c0.28,0.45,0.14,1.04-0.3,1.31
						c-0.01,0-0.02,0.01-0.02,0.01l-15.7,9.5C51.67,170.66,51.5,170.71,51.32,170.7L51.32,170.7z M82.72,151.7
						c-0.53,0-0.95-0.43-0.96-0.95c0-0.33,0.17-0.65,0.46-0.82l15.7-9.5c0.45-0.28,1.04-0.14,1.31,0.3c0.28,0.45,0.14,1.04-0.3,1.31
						c-0.01,0-0.02,0.01-0.02,0.01l-15.7,9.5C83.07,151.66,82.9,151.71,82.72,151.7L82.72,151.7z M114.12,132.7
						c-0.53,0-0.95-0.43-0.95-0.95c0-0.33,0.17-0.64,0.46-0.82l15.7-9.5c0.45-0.28,1.04-0.14,1.31,0.3c0.28,0.45,0.14,1.04-0.3,1.31
						c-0.01,0-0.02,0.01-0.02,0.01l-15.7,9.5c-0.15,0.1-0.32,0.15-0.5,0.15L114.12,132.7z M145.52,113.7
						c-0.53,0-0.96-0.42-0.96-0.95c0-0.34,0.17-0.65,0.46-0.82l15.7-9.5c0.45-0.27,1.04-0.13,1.31,0.32
						c0.27,0.45,0.13,1.04-0.32,1.31l-15.7,9.5c-0.15,0.1-0.32,0.15-0.5,0.16L145.52,113.7z M176.92,94.7
						c-0.53,0-0.95-0.43-0.95-0.95c0-0.33,0.17-0.64,0.46-0.82l15.7-9.5c0.45-0.28,1.04-0.14,1.31,0.3c0.28,0.45,0.14,1.04-0.3,1.31
						c-0.01,0-0.02,0.01-0.02,0.01l-15.7,9.5c-0.15,0.1-0.32,0.15-0.5,0.16L176.92,94.7z M208.32,75.7c-0.53,0-0.96-0.42-0.96-0.95
						c0-0.34,0.17-0.65,0.46-0.82l15.7-9.5c0.45-0.27,1.04-0.13,1.31,0.32c0.27,0.45,0.13,1.04-0.32,1.31l-15.7,9.5
						c-0.15,0.1-0.32,0.16-0.5,0.16L208.32,75.7z M239.72,56.7c-0.53,0-0.96-0.42-0.96-0.95c0-0.34,0.17-0.65,0.46-0.82l15.7-9.5
						c0.45-0.27,1.04-0.13,1.31,0.32c0.27,0.45,0.13,1.04-0.32,1.31l0,0l-15.7,9.5c-0.15,0.1-0.32,0.16-0.5,0.17L239.72,56.7z
						 M271.12,37.7c-0.53,0-0.95-0.43-0.95-0.96c0-0.33,0.17-0.64,0.46-0.81l15.7-9.5c0.45-0.27,1.04-0.13,1.31,0.32
						c0.27,0.45,0.13,1.04-0.32,1.31l0,0l-15.7,9.5c-0.15,0.1-0.32,0.16-0.5,0.17L271.12,37.7z"/>
				</g>
				<g id="Group_586" transform="translate(0 185.395)">
					<path id="Path_11595" class="st3" d="M19.93,33.18c-0.53,0-0.95-0.43-0.95-0.95c0-0.33,0.17-0.64,0.46-0.82l8.16-4.94
						c0.45-0.28,1.04-0.15,1.32,0.3c0.28,0.45,0.15,1.04-0.3,1.32c-0.01,0.01-0.02,0.01-0.03,0.02l-8.16,4.94
						C20.27,33.13,20.1,33.18,19.93,33.18z"/>
				</g>
			</g>
			<g id="Group_591" transform="translate(1060.32 69.976)">
				<g id="Group_588" transform="translate(309.411)">
					<path id="Path_11596" class="st3" d="M19.92,35.3c-0.53,0-0.96-0.42-0.96-0.95c0-0.24,0.09-0.47,0.25-0.65l6.42-7.06
						c0.35-0.39,0.96-0.42,1.35-0.06c0.39,0.35,0.42,0.96,0.06,1.35l0,0l-6.42,7.06C20.45,35.19,20.19,35.3,19.92,35.3z"/>
				</g>
				<g id="Group_589" transform="translate(19.59 21.563)">
					<path id="Path_11597" class="st3" d="M19.92,332.75c-0.53,0-0.96-0.42-0.96-0.95c0-0.24,0.09-0.47,0.25-0.65l13.17-14.5
						c0.35-0.39,0.96-0.42,1.35-0.07c0.39,0.35,0.42,0.96,0.06,1.35l0,0l-13.17,14.5C20.45,332.64,20.19,332.75,19.92,332.75z
						 M46.27,303.75c-0.53,0-0.96-0.42-0.96-0.95c0-0.24,0.09-0.47,0.25-0.65l13.17-14.5c0.35-0.39,0.96-0.42,1.35-0.07
						c0.39,0.35,0.42,0.96,0.06,1.35l-13.17,14.5C46.8,303.63,46.54,303.75,46.27,303.75L46.27,303.75z M72.62,274.75
						c-0.53,0-0.96-0.42-0.96-0.95c0-0.24,0.09-0.47,0.25-0.65l13.17-14.5c0.35-0.39,0.96-0.42,1.35-0.07
						c0.39,0.35,0.42,0.96,0.06,1.35l-13.17,14.5C73.15,274.63,72.89,274.75,72.62,274.75L72.62,274.75z M98.97,245.75
						c-0.53,0-0.96-0.42-0.96-0.95c0-0.24,0.09-0.47,0.25-0.65l13.17-14.5c0.35-0.39,0.96-0.42,1.35-0.07
						c0.39,0.35,0.42,0.96,0.06,1.35l0,0l-13.17,14.5C99.49,245.63,99.23,245.75,98.97,245.75L98.97,245.75z M125.31,216.75
						c-0.53,0-0.96-0.42-0.96-0.95c0-0.24,0.09-0.47,0.25-0.65l13.17-14.5c0.35-0.39,0.96-0.42,1.35-0.07
						c0.39,0.35,0.42,0.96,0.06,1.35l0,0l-13.17,14.5C125.84,216.63,125.58,216.75,125.31,216.75L125.31,216.75z M151.66,187.75
						c-0.53,0-0.96-0.42-0.96-0.95c0-0.24,0.09-0.47,0.25-0.65l13.17-14.5c0.35-0.39,0.96-0.42,1.35-0.07
						c0.39,0.35,0.42,0.96,0.06,1.35l-13.17,14.5C152.19,187.63,151.93,187.75,151.66,187.75L151.66,187.75z M178.01,158.75
						c-0.53,0-0.96-0.42-0.96-0.95c0-0.24,0.09-0.47,0.25-0.65l13.17-14.5c0.35-0.39,0.96-0.42,1.35-0.07
						c0.39,0.35,0.42,0.96,0.06,1.35l-13.17,14.5C178.53,158.63,178.28,158.75,178.01,158.75L178.01,158.75z M204.35,129.75
						c-0.53,0-0.96-0.42-0.96-0.95c0-0.24,0.09-0.47,0.25-0.65l13.17-14.5c0.35-0.39,0.96-0.42,1.35-0.07
						c0.39,0.35,0.42,0.96,0.06,1.35l0,0l-13.17,14.5C204.88,129.63,204.62,129.75,204.35,129.75L204.35,129.75z M230.7,100.75
						c-0.53,0-0.96-0.42-0.96-0.95c0-0.24,0.09-0.47,0.25-0.65l13.17-14.5c0.35-0.39,0.96-0.42,1.35-0.07
						c0.39,0.35,0.42,0.96,0.06,1.35l0,0l-13.17,14.5C231.23,100.63,230.97,100.74,230.7,100.75L230.7,100.75z M257.05,71.75
						c-0.53,0-0.96-0.42-0.96-0.95c0-0.24,0.09-0.47,0.25-0.65l13.17-14.5c0.35-0.39,0.96-0.42,1.35-0.06
						c0.39,0.35,0.42,0.96,0.06,1.35l0,0l-13.17,14.5C257.57,71.63,257.32,71.74,257.05,71.75L257.05,71.75z M283.39,42.75
						c-0.53,0-0.96-0.42-0.96-0.95c0-0.24,0.09-0.47,0.25-0.65l13.17-14.5c0.35-0.39,0.96-0.42,1.35-0.07
						c0.39,0.35,0.42,0.96,0.06,1.35l0,0l-13.17,14.5c-0.18,0.2-0.44,0.31-0.7,0.31L283.39,42.75z"/>
				</g>
				<g id="Group_590" transform="translate(0 340.574)">
					<path id="Path_11598" class="st3" d="M19.92,35.3c-0.53,0-0.96-0.42-0.96-0.95c0-0.24,0.09-0.47,0.25-0.65l6.42-7.06
						c0.35-0.39,0.96-0.42,1.35-0.07c0.39,0.35,0.42,0.96,0.06,1.35l0,0l-6.42,7.06C20.45,35.19,20.19,35.3,19.92,35.3z"/>
				</g>
			</g>
		</g>
		<g id="Group_606" transform="translate(480.151 243.718)">
			<g>
				<defs>
					<circle id="SVGID_1_" cx="191.79" cy="199.15" r="122.2"/>
				</defs>
				<clipPath id="SVGID_2_">
					<use xlink:href="#SVGID_1_"  style="overflow:visible;"/>
				</clipPath>
				<g id="Group_605" class="st4">
					<circle id="Ellipse_10" class="st5" cx="191.79" cy="199.15" r="122.2"/>
					<g id="Group_604" transform="translate(64.164 65.581)">
						<path id="Path_11599" class="st6" d="M107.88,35.13c18.56-16.53,32.19-6.67,42.35,4.35c8.09,8.78,9.22,10.73,15.91,19.84
							c1.05,1.29,1.68,2.87,1.79,4.53c0.19,10.06,5.34,52.61-0.39,67.29c-6.67,17.11-88.95,24.94-88.95,24.94L107.88,35.13z"/>
						<g id="Group_593" transform="translate(140.671 34.842)">
							<path id="Path_11600" class="st6" d="M19.9,106.12c-0.51,0-0.93-0.41-0.93-0.93c0-0.5,0.39-0.91,0.89-0.93
								c2.41-0.12,4.63-1.35,6.02-3.32c9.21-11.93,4.02-51.8-0.5-73.48c-0.1-0.5,0.22-1,0.72-1.1c0.5-0.1,1,0.22,1.1,0.72
								c2.66,12.89,4.43,25.95,5.32,39.09c1.06,18.01-0.68,30.1-5.17,35.91c-1.72,2.41-4.44,3.89-7.39,4.04L19.9,106.12z"/>
						</g>
						<path id="Path_11601" class="st6" d="M114.84,30.2c-35.68,19.72-13.92,86.43-59.17,110.22C43.14,147,4.62,180.44,29.86,224.52
							c16.51,28.84,65.84,22.62,82.08-2.9S114.84,30.2,114.84,30.2z"/>
						<g id="Group_594" transform="translate(0 28.752)">
							<path id="Path_11602" class="st6" d="M19.9,153.2c-0.04,0-0.08,0-0.12-0.01c-0.51-0.07-0.87-0.53-0.8-1.04c0,0,0,0,0,0
								c0.81-4.63,2.28-9.11,4.37-13.32c4.73-9.87,12.14-18.22,21.38-24.08c20.92-13.31,34.81-25.86,51.23-87.72
								c0.13-0.5,0.64-0.79,1.14-0.66c0.5,0.13,0.79,0.64,0.66,1.14l0,0c-7.94,29.92-15.82,50.14-24.79,63.65
								c-8.33,12.55-16.9,18.58-27.24,25.16c-12.89,8.11-21.89,21.15-24.91,36.08C20.76,152.86,20.37,153.2,19.9,153.2z"/>
						</g>
						<g id="Group_595" transform="translate(0.782 23.821)">
							<path id="Path_11603" class="st6" d="M19.9,140.86c-0.51,0-0.93-0.42-0.93-0.93c0-0.17,0.05-0.35,0.14-0.49
								c5-8.01,11.69-14.84,19.61-19.99c29.38-19,34.24-29.92,58.52-92.51c0.18-0.48,0.71-0.73,1.19-0.55s0.73,0.71,0.55,1.19
								c0,0.01-0.01,0.02-0.01,0.03c-12.14,31.31-19.4,49.65-27.34,62.66c-8.53,13.97-18.16,21.85-31.9,30.74
								c-7.69,5.01-14.19,11.63-19.05,19.42C20.52,140.69,20.22,140.86,19.9,140.86z"/>
						</g>
						<path id="Path_11604" class="st7" d="M113.61,71.83c-12.28,25.51-10.39,48.66-10.39,48.66s1.42,8.98,7.09,10.87
							s13.7-3.78,13.23-11.34s1.89-25.98,4.72-32.6S113.61,71.83,113.61,71.83z"/>
						<path id="Path_11605" class="st8" d="M48.71,249.09c0.77,6.96-0.97,6.38,5.22,7.54c6.19,1.16,17.21-3.09,17.21-3.09
							l-12.38-23.01L48.71,249.09z"/>
						<path id="Path_11606" class="st7" d="M104.7,106.79c-3.48,11.31-29.58,2.61-38.72,5.22s-16.97,40.89-18.27,75.26
							s0.44,61.78,3.92,66.13c3.48,4.35,60.91,6.09,66.13,4.35s-43.5-23.49-43.5-23.49s-3.05-40.02,0.87-60.47
							s39.15-47.42,39.15-47.42L104.7,106.79z"/>
						<path id="Path_11607" class="st7" d="M116.88,110.27c9.14,13.92,33.06,12.18,41.33,23.49s25.67,73.52,25.67,73.52l18.27-63.08
							c0,0,14.82-2.49,10.01,7.83c-8.56,18.35-11.75,77.57-21.03,85.98c-10.32,9.35-20.59,1.74-26.39-14.64
							c-5.61-15.84-19.58-50.03-29.58-63.08s-20.88-33.93-20.88-33.93L116.88,110.27z"/>
						<path id="Path_11608" class="st9" d="M77.29,112.01c18.27,21.32,53.95,20.45,61.78,17.84l7.83-2.61c0,0,6.09-2.18,11.31,3.92
							c5.22,6.09,17.84,44.37,20.01,53.07s5.66,23.06,5.66,23.06s-9.33,11.2-9.33,22.51s3.96,11.41,3.96,11.41s-11.6-2.6-14.21-9.56
							s-26.1-70.04-26.1-70.04l-64.82,1.31l0.87,71.35c0,0-5.66-5.22-13.49,0s-10.44,17.4-9.14,19.14s-2.61,1.74-2.61,0.44
							s-7.4-33.06-2.18-85.27s15.23-57.86,20.88-58.3C71.01,109.98,74.31,110.58,77.29,112.01z"/>
						<g id="Group_596" transform="translate(125.209 121.625)">
							<path id="Path_11609" class="st8" d="M50.64,118.68c0.06,0.02,0.13,0.04,0.19,0.04C50.84,118.72,50.76,118.71,50.64,118.68z"
								/>
							<path id="Path_11610" class="st8" d="M53.15,87.24C49.38,88.4,43,101.74,43,101.74S28.5,70.13,24.15,26.33l-5.18,29.71
								c7.15,19.19,18.36,49.29,20.12,53.98c2.39,6.37,12.02,9.02,13.34,9.32c-0.36-0.12-1.16-0.6-1.82-2.52
								c-0.38-0.35-2.56-1.37-2.97-1.74c-3.48-3.19-2.03-10.73,0.29-19.14S56.92,86.08,53.15,87.24z"/>
						</g>
						<path id="Path_11611" class="st8" d="M76.5,162.85l-7.19-32.87c-7.83,11.02-8.7,48.73-5.51,74.54
							c2.62,21.17,6.53,26.66,9.22,28.87c0.44,0.25,0.85,0.54,1.23,0.87l-0.87-71.35L76.5,162.85z"/>
						<path id="Path_11612" class="st9" d="M55.67,129.69c13.34,35.96,6.67,43.22,24.23,85.43c9.81,23.58,28.71,41.33,28.71,41.33
							c11.27,2.52,22.85,3.4,34.37,2.61c19.14-1.3,33.16-2.62,33.16-2.62s-20.1-12.17-20.97-20.44s-4.65-41.05,0.29-64.26
							c3.85-18.12-12.03-36.24-12.03-36.24l-26.54-1.31L55.67,129.69z"/>
						<path id="Path_11613" class="st10" d="M79.16,184.79c-2.32-8.41,9.86,2.61,29.88,4.64s42.35-1.16,31.32,2.32
							s-41.19-1.74-35.68,9.28c6.48,12.97,14.14,25.52,25.23,33.06c7.25,4.93,24.65,9.57,7.83,6.96s-34.8-22.33-42.64-35.1
							S79.68,186.67,79.16,184.79z"/>
						<path id="Path_11614" class="st11" d="M123.48,116.71c0.18-8.68,2.29-23.5,4.77-29.28c2.03-4.74-6.37-10.69-11.29-13.68
							l-4.17-0.18c-0.63,1.38-1.23,2.76-1.79,4.12c-4.4,28.88,8.76,40.81,15.04,43.21c2.68,0.92,5.53,1.24,8.34,0.92
							C130.57,120.55,126.9,118.83,123.48,116.71z"/>
						<g id="Group_597" transform="translate(77.554 85.713)">
							<path id="Path_11615" class="st12" d="M37.96,43.88c-1.56,0-3.12-0.19-4.64-0.56c-3.64-0.89-12.32-4.26-14.34-16.37
								c-0.05-0.29,0.15-0.56,0.43-0.61c0.29-0.05,0.56,0.15,0.61,0.43c1.92,11.49,10.11,14.68,13.55,15.52
								c5.33,1.3,10.99,0.1,13.16-2.79c1.74-2.32,0.69-7.26,0.68-7.31c-0.06-0.28,0.12-0.57,0.4-0.63c0.28-0.06,0.57,0.12,0.63,0.4
								c0.05,0.22,1.16,5.46-0.87,8.16C45.78,42.52,42.09,43.88,37.96,43.88z"/>
						</g>
						<path id="Path_11616" class="st7" d="M156.45,83.18c-2.95,15.58-9.77,28.15-21.3,25.78s-23.66-18.83-20.47-34.36
							s15.13-26.21,26.66-23.84S160.39,62.42,156.45,83.18z"/>
						<path id="Path_11617" class="st7" d="M197.5,160.14c0,0-21.32,57.28-22.33,63.23s1.02,9.72,1.59,9.72s18.71-31.04,18.71-31.04
							L197.5,160.14z"/>
						<path id="Path_11618" class="st7" d="M198.37,157.63c1.74-5.8-0.97-13.15-0.97-13.15l7.73,0.97L198.37,157.63z"/>
						<g id="Group_598" transform="translate(164.361 71.804)">
							<path id="Path_11619" class="st13" d="M42.51,75.93H20.93c-1.08,0-1.96-0.88-1.96-1.96c0-0.19,0.03-0.38,0.08-0.56
								l13.62-45.68c0.25-0.83,1.01-1.4,1.88-1.4h21.58c1.08,0,1.96,0.88,1.96,1.96c0,0.19-0.03,0.38-0.08,0.56L44.38,74.53
								C44.14,75.36,43.38,75.93,42.51,75.93z"/>
							<path id="Path_11620" class="st14" d="M45.22,75.93H23.64c-1.08,0-1.96-0.88-1.96-1.96c0-0.19,0.03-0.38,0.08-0.56
								l13.63-45.68c0.25-0.83,1.01-1.4,1.88-1.4h21.58c1.08,0,1.96,0.88,1.96,1.96c0,0.19-0.03,0.38-0.08,0.56L47.1,74.53
								C46.85,75.36,46.08,75.93,45.22,75.93z"/>
							<path id="Path_11621" class="st15" d="M29.59,42.82c-2.3,8.29-3.85,15.1-3.46,15.21s2.57-6.52,4.87-14.81
								s3.85-15.1,3.46-15.21S31.89,34.53,29.59,42.82z"/>
						</g>
						<path id="Path_11622" class="st7" d="M208.62,161.3c0.64-7.53,7.16-14.59,9.65-16.85c0.75-0.68,1.18-1.66,1.17-2.68
							c-0.04-3.76-0.2-12.62-0.98-13.65c-0.99-1.32-3.46-18.29-4.61-17.63s0.33,15.49,0.33,15.49s-2.8-1.32-4.29-1.98
							s-7.58,6.1-7.58,6.1s-2.86,7.22,4.96,4.13c9.28-3.67,2.32,6.57-3.87,13.15c-5.1,5.42-0.76,6.61-0.76,6.61l4.12-0.16
							L208.62,161.3z"/>
						<g id="Group_599" transform="translate(178.585 130.814)">
							<path id="Path_11623" class="st12" d="M27.69,36.46c-0.76,0-1.52-0.12-2.24-0.35c-2.02-0.63-5.54-2.66-6.47-9.17
								c-0.04-0.29,0.16-0.56,0.45-0.6c0.29-0.04,0.56,0.16,0.6,0.45c0.78,5.45,3.4,7.48,5.46,8.22c1.14,0.46,2.4,0.52,3.57,0.17
								c0.05-0.29,0.33-0.48,0.61-0.42c0.18,0.03,0.33,0.15,0.39,0.32c0.1,0.27,0.04,0.57-0.16,0.77
								C29.27,36.31,28.48,36.53,27.69,36.46z"/>
						</g>
						<g id="Group_600" transform="translate(177.643 133.063)">
							<path id="Path_11624" class="st12" d="M27.82,32.34c-0.65,0-1.3-0.05-1.94-0.14c-3.75-0.54-6.27-2.45-6.9-5.23
								c-0.06-0.28,0.11-0.57,0.4-0.63s0.57,0.11,0.63,0.4c0.58,2.53,2.84,3.65,4.65,4.14c2.69,0.73,5.3,0.34,5.64-0.02
								c0.14-0.25,0.45-0.33,0.7-0.19c0,0,0.01,0,0.01,0c0.25,0.15,0.34,0.47,0.19,0.73C30.83,32.05,29.41,32.34,27.82,32.34z"/>
						</g>
						<g id="Group_601" transform="translate(118.24 45.266)">
							<path id="Path_11625" class="st0" d="M24.97,46.11c-0.24,0-0.48-0.02-0.72-0.05c-3.7-0.57-5.95-5.33-5.1-10.84
								s4.41-9.38,8.11-8.82s5.95,5.33,5.1,10.84C31.57,42.38,28.41,46.11,24.97,46.11z M26.56,28.19c-2.45,0-4.94,3.2-5.57,7.29
								c-0.66,4.33,0.96,8.33,3.55,8.72s5.33-2.93,5.99-7.26s-0.96-8.33-3.55-8.72C26.84,28.2,26.7,28.19,26.56,28.19L26.56,28.19z"
								/>
						</g>
						<g id="Group_602" transform="translate(132.725 47.689)">
							<path id="Path_11626" class="st0" d="M22.57,43.69c-0.12,0-0.25-0.01-0.37-0.03c-2.47-0.38-3.77-4.38-3.01-9.31
								s3.19-8.36,5.66-7.98s3.77,4.38,3.01,9.31c-0.27,2.03-0.97,3.99-2.04,5.74C24.85,42.89,23.71,43.69,22.57,43.69z
								 M24.48,27.74c-1.38,0-3.27,2.7-3.9,6.82c-0.66,4.28,0.44,7.5,1.83,7.71c0.68,0.1,1.49-0.49,2.24-1.63
								c0.96-1.58,1.58-3.35,1.82-5.18c0.66-4.28-0.44-7.5-1.83-7.71C24.58,27.74,24.53,27.74,24.48,27.74L24.48,27.74z"/>
						</g>
						<g id="Group_603" transform="translate(90.88 40.644)">
							<path id="Path_11627" class="st0" d="M48.32,36.31c-0.09,0-0.17-0.01-0.26-0.04l-28.43-8.12c-0.49-0.15-0.77-0.67-0.61-1.16
								c0.15-0.48,0.64-0.75,1.13-0.63l28.42,8.12c0.49,0.14,0.78,0.66,0.64,1.15C49.1,36.04,48.74,36.31,48.32,36.31L48.32,36.31z"
								/>
						</g>
						<path id="Path_11628" class="st6" d="M159.51,59.21c-43.99,25.91-46.41,8.51-46.41,8.51l2.61-24.75l26.1,1.45L159.51,59.21z"
							/>
						<path id="Path_11629" class="st7" d="M116.5,73.46c1.02,4.38-0.37,8.45-3.12,9.09s-5.8-2.39-6.83-6.77s0.37-8.45,3.12-9.09
							S115.48,69.08,116.5,73.46z"/>
						<path id="Path_11630" class="st12" d="M113.49,79.22c0,0.96-0.78,1.73-1.73,1.73c-0.96,0-1.73-0.78-1.73-1.73
							s0.78-1.73,1.73-1.73S113.49,78.26,113.49,79.22L113.49,79.22z"/>
						<path id="Path_11631" class="st7" d="M126.15,244.45c0,0,11.89-5.22,15.37-2.9s13.54,12.95,13.54,12.95L126.15,244.45z"/>
						<path id="Path_11632" class="st14" d="M154.4,255.45c-0.23,0.28-0.56,0.4-0.75,0.26l-24.47-18.22
							c-1.32-0.98-1.94-2.48-1.31-3.27s2.23-0.51,3.48,0.56l23.14,19.88C154.67,254.81,154.63,255.17,154.4,255.45z"/>
						<path id="Path_11633" class="st7" d="M90.19,242.22c0,0,19.72,7.83,22.04,7.83s15.28-8.7,19.63-7.54s25.62,11.89,25.04,12.76
							c-0.58,0.87-6.67,2.9-24.65,2.32s-47.28-3.19-47.28-3.19L90.19,242.22z"/>
					</g>
				</g>
			</g>
		</g>
		<g id="Group_607" transform="translate(873.055 416.713)">
			<path id="Path_11634" class="st16" d="M176.11,273c0,0-103.42-71.83-147.17-30.42c-34.93,33.07,27.07,71.93,106.4,61.48
				c55.83-7.35,62.16,3.33,71.94,3.1c72.77-5.58,170.83-27.35,123.11-61.56c-65.01-46.6-108.98,2.8-131.63,15.1L176.11,273z"/>
			<path id="Path_11635" class="st17" d="M309.82,243.88c-27.18-5.61-130.74,32.79-130.74,32.79S88.91,249.49,67.34,246.9
				s-31.5,5.61-31.5,5.61s10.18-11.47,22-12.51s28.91-3.88,28.91-3.88s172.59-8.2,195.45-3.02S309.82,243.88,309.82,243.88z"/>
			<path id="Path_11636" class="st18" d="M163.16,104.09c-4.1,0.65-67.85,28.46-68.64,40.1s17.47,106.16,52.76,118.45
				c35.29,12.3,74.77,0,74.77,0s41.42-102.25,29.12-121.67s-67.95-36.89-67.95-36.89L163.16,104.09z"/>
			<path id="Path_11637" class="st18" d="M116.31,126.1c-60.91,32.64-75.86,91.56-59.76,104.55c11.29,9.1,53.85,29.23,90.74,27.94
				c23.87-0.69,47.75,0.03,71.53,2.18c0,0,63.28-12.88,75.9-31.84s-22.39-80.57-53.79-98.37S116.31,126.1,116.31,126.1z"/>
			<path id="Path_11638" class="st7" d="M174.38,140.98c-8.45-0.02-15.29-6.87-15.32-15.32V74.11c0-8.46,6.86-15.32,15.32-15.32
				c8.46,0,15.32,6.86,15.32,15.32v51.56C189.67,134.11,182.83,140.96,174.38,140.98z"/>
			<path id="Path_11639" class="st11" d="M174.38,58.79c-8.45,0.03-15.29,6.87-15.32,15.32v42.16c9.03,7.55,17.77,3.59,30.64-6.37
				V74.11C189.67,65.66,182.83,58.81,174.38,58.79z"/>
			<path id="Path_11640" class="st7" d="M208,76.19c-2.52,5.14-6.6,7.99-9.13,6.36s-2.53-7.1-0.02-12.24s6.6-7.99,9.13-6.36
				C210.51,65.57,210.51,71.05,208,76.19z"/>
			<path id="Path_11641" class="st7" d="M148.73,70.69c2.91,4.68,3.47,10.33,1.25,12.62s-6.38,0.36-9.29-4.31
				s-3.47-10.33-1.25-12.62S145.82,66.02,148.73,70.69z"/>
			<ellipse id="Ellipse_12" class="st7" cx="175.07" cy="75.86" rx="26.34" ry="33.92"/>
			<path id="Path_11642" class="st19" d="M232.51,159.81c17.26,9.2,32.3,44.08,32.3,44.08s-38.83,6.04-46.89,12.08
				s1.15-2.3,5.75-18.98S232.51,159.81,232.51,159.81z"/>
			<path id="Path_11643" class="st19" d="M112.35,157.3c4.03,18.41,23.3,69.8,23.3,69.8s-17.85-20.33-36.82-21.48
				s-26.01-1.44-25.89,3.16c0.02,0.91,3.16-20.42,17.83-33.65C105.45,161.9,112.35,157.3,112.35,157.3z"/>
			<path id="Path_11644" class="st20" d="M228.04,273.2H123.83c-4.2,0-7.78-3.03-8.48-7.17l-12.57-75c-0.78-4.68,2.38-9.12,7.07-9.9
				c0.47-0.08,0.94-0.12,1.41-0.12h129.34c4.75,0,8.6,3.86,8.6,8.6c0,0.47-0.04,0.94-0.12,1.41l-12.57,75
				C235.82,270.16,232.24,273.2,228.04,273.2z"/>
			<path id="Path_11645" class="st3" d="M228.04,273.2H123.83c-4.13,0.06-7.7-2.86-8.48-6.92l-12.57-72.29
				c-0.7-4.58,2.44-8.86,7.02-9.56c0.48-0.07,0.97-0.11,1.46-0.09h129.34c4.63-0.1,8.47,3.56,8.57,8.2
				c0.01,0.49-0.02,0.98-0.09,1.46l-12.57,72.29C235.75,270.34,232.17,273.26,228.04,273.2z"/>
			<path id="Path_11646" class="st17" d="M189.7,302.74c-0.62-0.11-67.3-16.8-82.19-4.5s49.83,12.51,61.48,9.81
				S189.7,302.74,189.7,302.74z"/>
			<path id="Path_11647" class="st17" d="M204.58,305.73c0,0,14.24-10.73,33.01-8.79s34.95,6.03,18.77,11.11s-33,5.72-40.77,5.07
				C210.91,312.65,206.79,309.88,204.58,305.73z"/>
			<path id="Path_11648" class="st21" d="M166.66,28.05c-17.11,5.19-11.16,53.36,8.41,51.78s20.36-22.42,18.97-35.91
				S184.32,22.69,166.66,28.05z"/>
			<path id="Path_11649" class="st21" d="M160.51,63.75c-4.76-4.56-11.31,9.8-8.73,16.11s-1.03,9.98,2.46,16.78
				s-6.43-4.32-7.82-12.45s-2.18-22.22-4.17-28.57s0.1-17.35,8.94-19.64s10.9-6.35,14.27-6.55s19.44,1.39,27.38,5.75
				s12.3,10.91,11.7,20.83s-3.17,35.31-5.55,39.48s-3.61,3.18-2.9,0.8s3.29-16.67,1.31-21.82s-0.99-17.85-6.15-18.85
				s-3.97,7.8-10.12,8.46C174.98,64.75,160.51,63.75,160.51,63.75z"/>
		</g>
		<g id="Group_608" transform="translate(763.501 296.849)">
			<path id="Path_11650" class="st22" d="M118.31,76.27H24.35c-2.97,0-5.38-2.41-5.38-5.38c0-0.02,0-0.04,0-0.06l0.49-39.04
				c0.05-3.01,2.5-5.43,5.52-5.45h93.96c2.97,0,5.38,2.41,5.38,5.38c0,0.02,0,0.04,0,0.07l-0.49,39.04
				C123.77,73.83,121.33,76.25,118.31,76.27z"/>
			<path id="Path_11651" class="st0" d="M113.69,72.18H29.07c-2.57,0-4.66-2.09-4.66-4.66c0-0.02,0-0.04,0-0.05l0.41-32.33
				c0.04-2.61,2.17-4.71,4.78-4.72h84.62c2.57,0,4.66,2.09,4.66,4.66c0,0.02,0,0.04,0,0.06l-0.41,32.33
				C118.42,70.07,116.3,72.17,113.69,72.18z"/>
			<path id="Path_11652" class="st22" d="M60.84,74c-0.56,20.58-10.33,26.93-10.33,26.93s4.39-11.8,1.13-17.55
				c-2.04-3.51-5.05-6.35-8.67-8.17L60.84,74z"/>
			<path id="Path_11653" class="st22" d="M109.86,41.92H55.31c-0.89,0-1.61-0.72-1.61-1.61c0-0.01,0-0.01,0-0.02v-0.08
				c0.02-0.9,0.75-1.62,1.65-1.63h54.55c0.89,0,1.61,0.72,1.61,1.61c0,0.01,0,0.01,0,0.02v0.08
				C111.49,41.19,110.76,41.91,109.86,41.92z"/>
			<path id="Path_11654" class="st22" d="M109.77,48.88H55.22c-0.89,0-1.61-0.72-1.61-1.61c0-0.01,0-0.01,0-0.02v-0.08
				c0.02-0.9,0.75-1.62,1.65-1.63h54.55c0.89,0,1.61,0.72,1.61,1.61c0,0.01,0,0.01,0,0.02v0.08
				C111.4,48.15,110.67,48.87,109.77,48.88z"/>
			<path id="Path_11655" class="st22" d="M109.67,56.75H55.12c-0.89,0-1.61-0.72-1.61-1.61c0-0.01,0-0.01,0-0.02v-0.08
				c0.02-0.9,0.75-1.62,1.65-1.63h54.55c0.89,0,1.61,0.72,1.61,1.61c0,0.01,0,0.01,0,0.02v0.08
				C111.3,56.02,110.57,56.74,109.67,56.75z"/>
			<path id="Path_11656" class="st22" d="M48.77,47.52c-0.07,5.93-4.07,10.74-8.91,10.74s-8.71-4.81-8.64-10.74
				s4.07-10.74,8.91-10.74S48.85,41.58,48.77,47.52z"/>
		</g>
		<g id="Group_609" transform="translate(862.593 367.308)">
			<path id="Path_11657" class="st22" d="M119.59,76.91H24.42c-3.01,0-5.45-2.44-5.45-5.45c0-0.02,0-0.04,0-0.07l0.5-39.54
				c0.06-3.05,2.54-5.5,5.59-5.52h95.17c3.01,0,5.45,2.44,5.45,5.45c0,0.02,0,0.04,0,0.07l-0.5,39.54
				C125.12,74.44,122.64,76.89,119.59,76.91z"/>
			<path id="Path_11658" class="st0" d="M114.91,72.77h-85.7c-2.61,0-4.72-2.11-4.72-4.72c0-0.02,0-0.04,0-0.06l0.42-32.74
				c0.05-2.64,2.19-4.76,4.83-4.78h85.7c2.61,0,4.72,2.11,4.72,4.72c0,0.02,0,0.04,0,0.06l-0.42,32.74
				C119.69,70.63,117.55,72.76,114.91,72.77z"/>
			<path id="Path_11659" class="st22" d="M74.35,74.61c0.04,20.84,9.77,27.28,9.77,27.28s-4.14-11.95-0.7-17.78
				c2.16-3.55,5.27-6.42,8.99-8.28L74.35,74.61z"/>
			<path id="Path_11660" class="st22" d="M81.85,44.88H35.23c-0.83,0-1.5-0.67-1.5-1.5c0-0.01,0-0.01,0-0.02v-0.34
				c0.02-0.84,0.7-1.51,1.54-1.52h46.62c0.83,0,1.5,0.67,1.5,1.5c0,0.01,0,0.01,0,0.02v0.34C83.37,44.2,82.69,44.87,81.85,44.88z"/>
			<path id="Path_11661" class="st22" d="M81.76,51.93H35.14c-0.83,0-1.5-0.67-1.5-1.5c0-0.01,0-0.01,0-0.02v-0.34
				c0.02-0.84,0.7-1.51,1.54-1.52H81.8c0.83,0,1.5,0.67,1.5,1.5c0,0.01,0,0.01,0,0.02v0.34C83.29,51.25,82.6,51.92,81.76,51.93z"/>
			<path id="Path_11662" class="st22" d="M81.66,59.9H35.04c-0.83,0-1.5-0.67-1.5-1.5c0-0.01,0-0.01,0-0.02v-0.34
				c0.02-0.84,0.7-1.51,1.54-1.52h46.62c0.83,0,1.5,0.67,1.5,1.5c0,0.01,0,0.01,0,0.02v0.34C83.18,59.22,82.5,59.89,81.66,59.9z"/>
			<path id="Path_11663" class="st22" d="M104.29,62.66h-6.74c-3.01,0-5.45-2.44-5.45-5.45c0-0.02,0-0.04,0-0.07l0.18-13.79
				c0.06-3.05,2.54-5.5,5.59-5.52h6.74c3.01,0,5.45,2.44,5.45,5.45c0,0.02,0,0.04,0,0.06l-0.18,13.79
				C109.82,60.19,107.34,62.64,104.29,62.66z"/>
		</g>
		<g id="Group_622" transform="translate(150.505 56.578)">
			<g>
				<defs>
					<circle id="SVGID_3_" cx="164.01" cy="171.37" r="145.04"/>
				</defs>
				<clipPath id="SVGID_4_">
					<use xlink:href="#SVGID_3_"  style="overflow:visible;"/>
				</clipPath>
				<g id="Group_621" class="st23">
					<circle id="Ellipse_13" class="st5" cx="164.01" cy="171.37" r="145.04"/>
					<g id="Group_620" transform="translate(15.322 50.331)">
						<path id="Path_11664" class="st24" d="M81.66,98.16c19.19,13.86,60.4,19.9,73.55,20.61s-7.3,36.95-7.3,36.95
							s-35.34,4.26-52.04,0S81.66,98.16,81.66,98.16z"/>
						<path id="Path_11665" class="st6" d="M48.73,457.48c0.24,9.47,5.64,15.11,14.45,21.67c9.24,6.88,9.71,7.63-3.08,9.32
							s-16.34-4.11-24.87-6.6s-3.08-8.53-3.55-14.21s-1.28-14.92-1.28-14.92L48.73,457.48z"/>
						<path id="Path_11666" class="st6" d="M123.35,452.74c4.13,4.66,8.56,9.04,13.26,13.12c7.58,6.54,26.77,8.77,17.53,11.21
							s-19.59,1.12-29.1,2.49s-17.8,0.05-18.51-2.49s0-20.54,0-20.54L123.35,452.74z"/>
						<path id="Path_11667" class="st25" d="M149.52,38.21c11.89-11.29,33.75,3.1,35.81,12.67c5.3,24.61,7.65,50.06,1.2,60.06
							s-59.58,12.83-63.2,12.74c-4.86-0.12-7.7-16.6,1.82-27.41S138.9,66,140.65,56.02C142.74,44.02,147.62,40.02,149.52,38.21z"/>
						<g id="Group_610" transform="translate(162.855 19.758)">
							<path id="Path_11668" class="st25" d="M28.89,85.11c-0.03,0-0.05,0-0.08-0.01c-0.31-0.04-0.53-0.33-0.49-0.64c0,0,0,0,0,0
								c2.79-20.11-0.94-43.13-9.28-57.26c-0.15-0.28-0.04-0.63,0.24-0.78c0.26-0.14,0.59-0.06,0.75,0.19
								c8.46,14.34,12.25,37.65,9.43,58C29.42,84.9,29.18,85.11,28.89,85.11z"/>
						</g>
						<g id="Group_611" transform="translate(159.229 15.945)">
							<path id="Path_11669" class="st25" d="M35.95,75.76h-0.04c-0.32-0.02-0.56-0.29-0.54-0.61c0,0,0,0,0,0
								c1.14-18.22-7.93-41.04-16.2-47.8c-0.24-0.21-0.26-0.57-0.05-0.81c0.2-0.22,0.53-0.26,0.77-0.08
								c8.48,6.92,17.78,30.22,16.62,48.76C36.51,75.52,36.26,75.76,35.95,75.76z"/>
						</g>
						<path id="Path_11670" class="st26" d="M124.97,110.16c-4.05,28.68-7.96,82.69-19.68,95.83s-18.25,44.5-18.25,44.5
							s37.89-20.69,53.4-71.57c4.86-15.96-7.01-53.23-9.89-56.78S124.97,110.16,124.97,110.16z"/>
						<g id="Group_613" transform="translate(99.401 11.507)">
							<path id="Path_11671" class="st7" d="M107.68,177.43c-2.34,2.84-8.62,16.62-11.8,16.62c-10.84,0-11.64,4.25-17.52,7.36
								c-7.55,4-5.95,10.13-5.42,10.48s16.6-2.46,21.99-5.97c4.48-2.92,7.66-4.51,9.84-7.71s14.54-12.43,14.54-12.43L107.68,177.43z
								"/>
							<path id="Path_11672" class="st27" d="M96.71,92.34c10.96,6.62,12.98,12.78,23.75,31.49c10.78,18.71,12.67,25.46,16.94,32.21
								s5.69,14.57-3.32,23.09c-8.6,8.15-12.61,11.47-17.33,10.2c-3.18-0.86-5.69-10.12-10.11-8.44s3.4-11.35,7.42-15.02
								c2.19-2,3.08-1.85,2.37-2.76s-14.21-10.98-25.46-25.55S96.71,92.34,96.71,92.34z"/>
							<g id="Group_612" transform="translate(68.158 66.011)">
								<path id="Path_11673" class="st26" d="M62.97,96.32c-5.33-2.4-12-2.05-16.9-1.13c1.26,1.06,2.05,1.72,2.21,1.92
									c0.71,0.91-0.18,0.76-2.37,2.76c-0.96,0.92-1.85,1.93-2.64,3c3.73-1.98,7.82-3.76,11.17-4.24c8.53-1.24,9.06,1.07,13.5,3.91
									S71.67,100.23,62.97,96.32z"/>
								<path id="Path_11674" class="st26" d="M39.58,36.25c-2.93-4.05-6.69-7.43-11.02-9.91c0,0-16.99,30.66-5.74,45.23
									c3.38,4.34,7.02,8.47,10.91,12.36C33.96,74.11,35,52.17,39.58,36.25z"/>
							</g>
							<path id="Path_11675" class="st27" d="M54.99,82.21c-14.68,3.32-26.54,7.65-29.57,16.17c-1.47,4.14,7.05,72.36,15.57,79.94
								c16.46,14.63,43.58,0.95,43.58,0.95s12.32-30.67,17.2-82.17c1.27-4.64-28.1-13.77-32.84-14.71S54.99,82.21,54.99,82.21z"/>
							<path id="Path_11676" class="st7" d="M59.94,444.13c0,0-20.12,27.85-8.04,26.87s19.97-13.42,19.97-13.42
								s4.19,14.1,16.27,13.45s5.27-8.05,0-16.67c-3.03-5.08-4.82-10.8-5.24-16.69L59.94,444.13z"/>
							<path id="Path_11677" class="st7" d="M61.67,95.53c-5-0.01-9.05-4.06-9.06-9.06V52.72c0-5,4.06-9.06,9.07-9.05
								c5,0,9.05,4.05,9.05,9.05v33.75C70.71,91.47,66.66,95.52,61.67,95.53z"/>
							<path id="Path_11678" class="st11" d="M61.67,43.66c-5,0.01-9.05,4.06-9.06,9.06V68c4.73,6.84,10.92,12.55,18.12,16.71v-32
								C70.71,47.72,66.66,43.67,61.67,43.66z"/>
							
								<ellipse id="Ellipse_14" transform="matrix(0.9737 -0.2279 0.2279 0.9737 -10.0265 17.056)" class="st7" cx="68.83" cy="51.94" rx="16.34" ry="22.46"/>
							<path id="Path_11679" class="st7" d="M43.04,174.25c0,0-28.24,21.32-19.18,91.13s18.65,67.68,19.18,101.25
								s14.92,79.94,23.45,89s29.47-39.51,29.47-82.62c0-25.19,0.01-37.29,5.87-76.73s4.63-96.99-18.82-122.04
								S43.04,174.25,43.04,174.25z"/>
							<path id="Path_11680" class="st11" d="M65.91,330.38c-0.02-16.52-5.49-51.64-4.25-100.17l-36.03,48.01
								c8.49,56.84,16.9,57.04,17.4,88.41c0.4,25.44,8.76,58.22,16.5,76.55c5.03,1.8,8.4,3.92,9.3,6.58
								c1.2,3.56,1.99,5.53,2.46,6.11c0.17-0.11,0.34-0.23,0.51-0.36c0.41-2.97-1.74-18.15-4.1-40.22
								C63.71,377.98,65.94,346.9,65.91,330.38z"/>
							<path id="Path_11681" class="st27" d="M30.35,149.32c4.7,27.6,1.88,31.33-4.71,54.25s-6.67,83.67-6.67,83.67
								s17.85,7.46,52.4,4.26s39.35-6.93,39.35-6.93s-3.93-59.15-8.89-76.74s-12.73-29.61-13.11-40.92S30.35,149.32,30.35,149.32z"
								/>
							<path id="Path_11682" class="st28" d="M51.9,471c12.08-0.99,19.97-13.42,19.97-13.42s4.19,14.1,16.27,13.45
								c10.37-0.56,6.81-6.09,2.27-13.11c-0.41,1.58-1.7,3.05-5.11,2.92c-7.14-0.28-13.84-8.94-13.84-8.94S59,461.49,54.38,460.8
								s2.25-11.79,2.25-11.8C51.49,456.94,43.04,471.72,51.9,471z"/>
						</g>
						<path id="Path_11683" class="st25" d="M67.29,75.44c-5.61-7.88-11.25-29.33-6.24-31.53s3.76-5.64,8.77-12.06
							s25.21-8.92,31.16,1.88s8.5,11.9,8.71,17.69s-14.04,20.2-14.04,20.2L67.29,75.44z"/>
						<path id="Path_11684" class="st7" d="M199.64,201.29c-1.64,2.45-3.2,4.27-4.36,4.27c-10.84,0-11.64,4.25-17.52,7.36
							c-7.55,4-5.95,10.13-5.42,10.48s16.6-2.46,21.99-5.97c4.48-2.92,7.66-4.51,9.84-7.71c0.66-0.86,1.4-1.66,2.21-2.39
							C203.96,205.53,201.7,203.5,199.64,201.29z"/>
						<path id="Path_11685" class="st7" d="M71,47.71c0,0-3.55,43.74-11.37,48.52s-22.74,22.54-20.61,60.91s4.97,54.92,7.82,69.74
							c2.84,14.82,56.14,5.79,61.82,0s12.08-58.73,0-85.55s-25.58-41.99-27-48.62s7.82-33.28,7.82-33.28L71,47.71z"/>
						<path id="Path_11686" class="st11" d="M81.51,91.27c-0.18-8.36,7.96-31.84,7.96-31.84L71,47.71c0,0-0.78,9.54-2.4,20.19
							C71,82.71,75.8,88.39,81.51,91.27z"/>
						<path id="Path_11687" class="st7" d="M104.73,59.99c1.78,12.85-2.65,22.91-11.9,24.19s-19.83-6.7-21.6-19.55
							s4.28-24.3,13.53-25.59S102.95,47.14,104.73,59.99z"/>
						<path id="Path_11688" class="st7" d="M206.16,109.17c5.44,3.38,9.59,11.84,7.2,18.71c-2.38,6.87-5.68-1.95-9.31-6.99
							S202.09,106.64,206.16,109.17z"/>
						<path id="Path_11689" class="st28" d="M109.4,201.11c-3.73,44.87,8.89,146.12,8.97,169.04s9.24,85.57,9.24,85.57
							s-14.92,4.29-20.78,4.79s-22.79-56.79-25.3-87.16s-18.35-84.28-18.35-84.28l5.43-92.49L109.4,201.11z"/>
						<path id="Path_11690" class="st14" d="M109.4,201.11l-40.79-4.53l-5.43,92.49c0,0,15.84,53.91,18.35,84.28
							c0.03,0.4,0.07,0.8,0.11,1.2c0.3-46.82,13.92-67.14,28.3-116.71C108.7,236.07,108.19,215.64,109.4,201.11z"/>
						<path id="Path_11691" class="st28" d="M107.8,216.14c-19.18,65.02-36.77,126.3-48.5,166.8s-8.2,82.14-8.2,82.14l-19.72,1.57
							c0,0-22.17-66.76-7.25-102.89s7.82-57.9,10.66-91.66c3.2-38.08,8.57-65.91,8.57-65.91L107.8,216.14z"/>
						<path id="Path_11692" class="st29" d="M108.66,141.33c-5.34-11.66-11.56-22.89-18.6-33.61c-2.83-0.39-5.67-0.62-8.53-0.68
							c-5.5-0.11-15.07-7.16-20.78-11.8c-0.32,0.38-0.7,0.71-1.12,0.98c-7.82,4.78-22.74,22.54-20.61,60.91s-5.92,51.47-3.08,66.29
							s67.03,9.24,72.72,3.45S120.74,168.15,108.66,141.33z"/>
						<path id="Path_11693" class="st29" d="M58.68,87.03l-5.77,15.22l36.56,14.86l4.22-3.62c0,0-5.64-8.22-4.22-13.19
							s3.08-6.4,0-7.58s-14.03-3.08-20.87-5.68S59.87,83.89,58.68,87.03z"/>
						<path id="Path_11694" class="st24" d="M115.53,186.74c-0.73-11.42-3.03-36.9-6.87-45.41c-1.41-3.14-2.84-6.1-4.27-8.92
							l-4.61-2c0,0-25.58-20.42-42.28-16.61s-17.41,66.02-7.82,72.84s13.5-11.41,48.97-5.75
							C104.43,181.79,110.8,187.19,115.53,186.74z"/>
						<path id="Path_11695" class="st28" d="M175.32,205.09c0.79,0.58,1.89,0.41,2.47-0.38l75.37-102.37
							c0.57-0.79,0.39-1.9-0.41-2.46c-0.78-0.56-1.86-0.39-2.44,0.37l-75.37,102.37C174.37,203.41,174.54,204.51,175.32,205.09z"/>
						<path id="Path_11696" class="st14" d="M257.49,103.85h-12.56c-2.1,0-3.81-1.7-3.81-3.81c0-2.1,1.7-3.81,3.81-3.81l0,0h12.56
							c2.1,0,3.81,1.7,3.81,3.81C261.3,102.15,259.59,103.85,257.49,103.85z"/>
						<path id="Path_11697" class="st25" d="M253.78,66.29l12.1,2.04c1.93,0.33,3.23,2.15,2.9,4.08c-0.05,0.3-0.14,0.59-0.26,0.86
							l-11.73,26.03c-0.75,1.67-2.66,2.49-4.4,1.89l-10.66-3.73c-1.85-0.65-2.82-2.67-2.17-4.51c0.02-0.07,0.05-0.14,0.08-0.21
							l10.28-24.34C250.56,66.89,252.16,66.02,253.78,66.29z"/>
						<path id="Path_11698" class="st28" d="M253.04,68.38l10.01,1.8c1.7,0.38,2.76,2.06,2.38,3.76c-0.05,0.2-0.11,0.4-0.2,0.6
							l-9.71,22.93c-0.56,1.45-2.17,2.18-3.64,1.66l-8.82-3.28c-1.62-0.67-2.4-2.53-1.73-4.15c0,0,0,0,0-0.01l8.51-21.45
							C250.33,68.94,251.67,68.16,253.04,68.38z"/>
						<g id="Group_618" transform="translate(205.486 22.865)">
							<g id="Group_614" transform="translate(6.904 8.693)">
								<path id="Path_11699" class="st30" d="M32.95,34.47c-0.09,0-0.18-0.02-0.27-0.07l-13.4-6.99c-0.28-0.15-0.39-0.49-0.24-0.77
									c0.15-0.28,0.49-0.39,0.77-0.24l13.4,6.99c0.28,0.15,0.39,0.49,0.24,0.77C33.35,34.35,33.16,34.47,32.95,34.47L32.95,34.47z
									"/>
							</g>
							<g id="Group_615" transform="translate(13.341)">
								<path id="Path_11700" class="st30" d="M28.99,40.35c-0.18,0-0.35-0.09-0.46-0.23l-9.45-12.87c-0.19-0.25-0.13-0.61,0.12-0.8
									c0.25-0.19,0.61-0.13,0.8,0.12l0,0l9.45,12.87c0.19,0.26,0.13,0.61-0.12,0.8C29.23,40.31,29.11,40.35,28.99,40.35
									L28.99,40.35z"/>
							</g>
							<g id="Group_616" transform="translate(2.96 24.664)">
								<path id="Path_11701" class="st30" d="M19.54,32.71c-0.32,0-0.57-0.25-0.58-0.57c0-0.25,0.16-0.47,0.4-0.55l16.39-5.23
									c0.3-0.08,0.62,0.09,0.71,0.4c0.08,0.29-0.08,0.59-0.36,0.69l-16.39,5.23C19.66,32.7,19.6,32.71,19.54,32.71z"/>
							</g>
							<g id="Group_617" transform="translate(0 17.386)">
								<path id="Path_11702" class="st30" d="M39.73,30.67c-0.03,0-0.05,0-0.08-0.01c-12.48-1.78-19.31-2.86-20.3-3.21
									c-0.29-0.12-0.44-0.45-0.32-0.75c0.11-0.28,0.41-0.42,0.7-0.33c0.52,0.18,3.81,0.83,20.08,3.16
									c0.31,0.04,0.53,0.33,0.49,0.64C40.26,30.46,40.02,30.67,39.73,30.67L39.73,30.67z"/>
							</g>
						</g>
						<g id="Group_619" transform="translate(222.15 46.24)">
							<path id="Path_11703" class="st31" d="M19.2,45.45c-0.67,1.62,0.1,3.48,1.73,4.15c0,0,0,0,0.01,0L22,50l15.16-7.71l5.93-14
								c0.26-0.62,0.33-1.3,0.19-1.96L20.04,43.33L19.2,45.45z"/>
							<path id="Path_11704" class="st31" d="M22.41,50.15l7.33,2.73c1.46,0.52,3.07-0.22,3.64-1.66l2.54-6.01
								C31.57,46.72,25.8,48.87,22.41,50.15z"/>
						</g>
						<path id="Path_11705" class="st7" d="M179.25,157.61l20.25-0.93c0,0,10.36-12.87,14.55-10.25s11.44-2.05,11.39,2.62
							s-5.92,16.82-12.95,18.06s-23.1,0-23.1,0L179.25,157.61z"/>
						<path id="Path_11706" class="st29" d="M63.38,110.16c11.86,0.83,52.23,36.3,70.59,49.54c25.22-4.1,55.43-3.79,55.43-3.79
							s6.28,11.83,5.88,12.77s-40.92,15-64.86,14.01s-34.98-8.5-53.25-10.68c-11.9-1.42-17.68,3.52-24.26-3.33s-8.9-42.01-5.3-49.1
							C50.56,113.6,56.73,109.92,63.38,110.16z"/>
						<path id="Path_11707" class="st25" d="M67.29,75.44c6.28-3.1,3.16-9.13,3.7-13.12s-1.2-7.2,0.3-6.93s1.16,15.34,3.05,15.24
							s1.19-11.37,3.18-11.69s2.78-3.12,1.21-8.06s-0.31-9.32,3.91-5.41s13.62,13,19.1,11.74s5.17-6.89,4.7-7.52
							S91.89,33.26,91.89,33.26L64.02,49.24L63.24,63.8L67.29,75.44z"/>
						<path id="Path_11708" class="st7" d="M72.29,58.34c0.38,3.79,0.5,9.53,0.83,10.35c-2.48,1.01-5.66-1.02-7.1-4.55
							c-1.44-3.52-1.3-8.15,1.21-9.08C68.8,54.49,71.85,53.93,72.29,58.34z"/>
						<path id="Path_11709" class="st25" d="M182.61,49.84c-3.95,12.79-25.98,12.97-27.05,16.52c-1.07,3.55-1.33,17.36-4.55,26.14
							c-5.15,14.04-7.46,18.68-14.64,20.81s-10.19-9.75-10.19-9.75s12.85-16.96,13.57-17.31s7.48-43.7,7.48-43.7
							s17.22-3.16,18.1-3.62s13.32,5.04,13.32,5.04L182.61,49.84z"/>
					</g>
				</g>
			</g>
		</g>
		<g id="Group_625" transform="translate(900.362)">
			<g>
				<defs>
					<circle id="SVGID_5_" cx="208.44" cy="215.81" r="133.98"/>
				</defs>
				<clipPath id="SVGID_6_">
					<use xlink:href="#SVGID_5_"  style="overflow:visible;"/>
				</clipPath>
				<g id="Group_624" class="st32">
					<circle id="Ellipse_16" class="st5" cx="208.44" cy="215.81" r="133.98"/>
					<g id="Group_623" transform="translate(130.134 99.948)">
						<path id="Path_11710" class="st33" d="M56.16,121.4c0,0-4.69,4.37-10.56,1.55s-27.27-17.95-26.62-21.65s10.66-4.58,10.66-4.58
							S60.63,121.23,56.16,121.4z"/>
						<path id="Path_11711" class="st34" d="M50.52,120.83c4.01-0.64-9.2-11.15-13.52-15.49c-2.21-2.29-4.59-4.42-7.1-6.37
							c0,0-7.38,0.9-7.38,2.33s21.18,18.34,21.18,18.34S48.71,121.12,50.52,120.83z"/>
						<path id="Path_11712" class="st7" d="M76.44,139.73c0,0-7.71-13.03-11.4-16.51s-16.16-10.21-18.05-10.25
							c-3.23-0.07,11.1,9.6,11.1,9.6s-1.96,12.6-0.22,17.16s19.98,10.64,19.98,10.64L76.44,139.73z"/>
						<path id="Path_11713" class="st35" d="M90.78,153.41c0,0-12.6-18.9-15.42-17.59s-10.43,17.59-10.43,17.59
							s22.15,23.02,22.15,18.68S90.78,153.41,90.78,153.41z"/>
						<path id="Path_11714" class="st7" d="M125.62,52.22c0,0,13.03,46.04,21.72,65.16s13.03,54.73,11.29,117.28
							s10.43,60.81-7.82,68.63s-83.4-5.21-92.09-25.19s5.82-101.33,27.37-131.18c21.27-29.47,30.84-39.96,30.84-46.91
							s-8.41-36.49-8.41-36.49L125.62,52.22z"/>
						<path id="Path_11715" class="st36" d="M58.72,278.09c-8.69-19.98,5.82-101.33,27.37-131.18
							c9.91-13.72,17.27-23.33,22.32-30.38c10.31-6.16,21.7-11.89,32.63-15.23c2.19,6.16,4.35,11.79,6.29,16.07
							c8.69,19.11,13.03,54.73,11.29,117.28s10.43,60.81-7.82,68.63S67.41,298.07,58.72,278.09z"/>
						<path id="Path_11716" class="st36" d="M148.78,93.05c-0.22-3.58-46.62,14.77-46.91,18.24s-3.03,16.44-6.87,23.42
							c-3.84,6.98,64.61,46,62.09,27S149.36,102.61,148.78,93.05z"/>
						<path id="Path_11717" class="st11" d="M116.89,100.77c0.03-0.26,0.04-0.52,0.04-0.77c0-6.95-8.41-36.49-8.41-36.49l17.1-11.29
							c0,0,3.02,10.69,7.13,23.91C127.44,91.98,122.47,97.39,116.89,100.77z"/>
						<path id="Path_11718" class="st7" d="M77.67,74.76c3.61,16.37,14.92,28.02,27.99,24.82c9.59-2.35,24.32-15.76,19.6-35.32
							c-3.94-16.3-17.2-27.3-30.34-24.4S74.06,58.39,77.67,74.76z"/>
						<path id="Path_11719" class="st7" d="M62.84,181.35c-11.86-20.48-13.19-39.62-21.59-45.6c-11.82-8.41-21.53-27.2-17.25-27.95
							s21.61,15.14,21.61,15.14s-4.51-6.17-3.43-6.69s9.81,5.82,11.16,13.31c1.35,7.49,18.13,41.9,32.2,52.92
							S74.7,201.84,62.84,181.35z"/>
						<path id="Path_11720" class="st35" d="M139.68,129.73c21.02,5.23,11.41,68.71-6.31,106.35s-51.02,5.12-63.47-4.1
							c-3.85-2.78-7.2-6.19-9.89-10.11c4-22.47,10.85-46.56,19.31-63.52C99.15,181.65,108.58,121.99,139.68,129.73z"/>
						<path id="Path_11721" class="st36" d="M133.36,125.18c26.43,2.65,11.96,68.63-7.37,95.27s-46.84,0.87-55.53-14.48
							s-26.28-41.45-26.28-58.42c0-3.18,6.52-3.84,14.33-3.26c7.36,0.54,40.62,46.33,40.62,46.33S110.26,122.86,133.36,125.18z"/>
						<path id="Path_11722" class="st21" d="M69.6,40.62c-16.16,6.8-6.48,28.33,2.04,29.13s18.38-14.91,23.44-15.44
							s-1.02,8.79,3.48,10.92c4.5,2.13,8.71,5.67,10.02,11.26s4.91,17.77-0.97,18.3s-12.27-5.86-16.26-6.12
							c-2.52-0.14-5.05,0.16-7.46,0.89c0,0,10.15,14.02,17.59,14.82s15.57-10.09,21.36-19.29s3.33-15.33,3.33-15.33
							s5.92,6.67,9.65,6.13s-5.59-5.86-5.86-21.57s-7.19-23.97-15.71-23.97s-7.46-4.34-20.47-3.99
							C82.05,26.66,73.4,39.02,69.6,40.62z"/>
						<path id="Path_11723" class="st7" d="M105.14,72.72c-0.38,4.06,1.71,7.57,4.65,7.84s5.64-2.79,6.02-6.85s-1.71-7.57-4.65-7.84
							S105.52,68.67,105.14,72.72z"/>
					</g>
				</g>
			</g>
		</g>
		<g id="Group_630" transform="translate(1279.517 292.126)">
			<g>
				<defs>
					<circle id="SVGID_7_" cx="154.58" cy="161.94" r="95.89"/>
				</defs>
				<clipPath id="SVGID_8_">
					<use xlink:href="#SVGID_7_"  style="overflow:visible;"/>
				</clipPath>
				<g id="Group_629" class="st37">
					<circle id="Ellipse_18" class="st5" cx="154.58" cy="161.94" r="95.89"/>
					<g id="Group_628" transform="translate(50.28 65.413)">
						<path id="Path_11724" class="st6" d="M89.2,50.84c-7.31,14.61-1.26,31.44,13.11,37.39c14.47,5.99,30.29,2.59,37.59-12.03
							s1.88-32.14-12.12-39.14S96.51,36.23,89.2,50.84z"/>
						<g id="Group_626" transform="translate(107.739 23.465)">
							<path id="Path_11725" class="st6" d="M20.85,66.69c-0.4,0.01-0.81-0.03-1.2-0.13c-0.5-0.13-0.79-0.64-0.66-1.14
								c0.13-0.5,0.64-0.79,1.14-0.66c0.01,0,0.02,0.01,0.03,0.01c0.02,0.01,3.38,0.8,8.42-3.67c5.69-5.05,9.66-16.5,3.77-33.54
								c-0.17-0.49,0.09-1.02,0.57-1.18c0.49-0.17,1.02,0.09,1.18,0.58c7.79,22.53-1.32,32.9-4.29,35.54
								C25.73,66.12,22.5,66.69,20.85,66.69z"/>
						</g>
						<g id="Group_627" transform="translate(0 76.252)">
							<path id="Path_11726" class="st38" d="M106.25,31.46c-8.32,1.86-18.82,24.98-23.96,39.78
								c-5.19,14.94-13.98,33.46-19.74,39.22s-43.58,19.1-43.58,19.1s93.46,0.18,91.54,0S106.25,31.46,106.25,31.46z"/>
							<path id="Path_11727" class="st39" d="M56.63,122.13c5.12-0.73,23.57,1.64,15.72-1.65s-6.76-7.49-6.76-7.49
								s11.15,9.32,13.16,1.17c1.73-7.03,2.4-31.84,8.98-56.7c5.44-12.33,12.55-24.67,18.53-26.01c0,0,0.21,8.75,0.56,21.03
								c-2.29,27.17-6.19,67.08-7.18,77.14c-12.39,0.02-33.12,0-50.46-0.02l-11.54-0.55C37.62,129.06,51.51,122.86,56.63,122.13z"/>
							<path id="Path_11728" class="st38" d="M136.82,26.33c0,0,26.46,14.78,32.62,17.93s-17.28,95.42-22.49,99.38
								s-51.12,0.68-56.34-4.3s4.01-20.27-0.51-50.89s13.79-57.05,16.15-56.99s17.71-5.12,17.71-5.12L136.82,26.33z"/>
							<path id="Path_11729" class="st39" d="M146.95,143.64c-5.21,3.95-38.06,4.04-52.04-0.31c-1.58-0.49-8.74-3.35-8.91-6.03
								c1.69-0.32,8.39,0.49,11.11-0.14c9.46-2.17,14.67-13.89,14.67-13.89s5.21-1.87,16.86-6.81s6.85-19.87,7.13-26.45
								s11.51-28.1,32.62-44.41l1.94,0.87C171.82,61.47,151.78,139.98,146.95,143.64z"/>
							<path id="Path_11730" class="st7" d="M120.59,120.66c-16.63,3.11-20.72,6.92-29.78,8.39c-10.28,1.66-9.05,3.93-1.42,3.93
								s26.81,0.3,33.39-1.17S120.59,120.66,120.59,120.66z"/>
							<path id="Path_11731" class="st38" d="M171.53,45.99c12.75,40.75,30.81,86.99,27.94,86.99s-76.06,2.96-78.94,0.49
								s-2.06-11.92-1.65-13.15s41.61-8.54,41.61-8.54s-5.43-10.57-7.48-31.23S169.11,38.26,171.53,45.99z"/>
						</g>
						<path id="Path_11732" class="st7" d="M127.13,67.18l10.27,37.52c0,0-17.35,27.08-22.12,24.67s2.67-22.01,2.67-24.67
							s-7.44-30.15-7.44-30.15L127.13,67.18z"/>
						<path id="Path_11733" class="st11" d="M117.59,106.61c0.18-0.62,0.3-1.26,0.36-1.91c0-2.66-7.44-30.15-7.44-30.15l16.62-7.37
							l3.4,12.42C128.39,89.49,123.96,98.74,117.59,106.61z"/>
						<path id="Path_11734" class="st7" d="M88.72,66.56c-1.96,10.88-0.67,25.33,8.99,29s21.3-3.35,25.99-15.7s0.67-25.33-8.99-29
							S91.06,53.56,88.72,66.56z"/>
						
							<ellipse id="Ellipse_19" transform="matrix(0.3354 -0.9421 0.9421 0.3354 13.9009 168.6746)" class="st7" cx="126.49" cy="74.49" rx="7.31" ry="5.39"/>
						<path id="Path_11735" class="st6" d="M88.61,52.89c3.29,25.53,34.3,22.24,34.3,22.24s6.4-8.41,9.27-4
							c2.88,4.41-3.99-25.88-21.79-26.84C104.55,43.98,88.61,52.89,88.61,52.89z"/>
						<ellipse id="Ellipse_20" class="st6" cx="136.93" cy="42.09" rx="16.8" ry="15.76"/>
					</g>
				</g>
			</g>
		</g>
		<g id="Group_635" transform="translate(10.907 441.557)">
			<g>
				<defs>
					<circle id="SVGID_9_" cx="139.23" cy="146.6" r="120.26"/>
				</defs>
				<clipPath id="SVGID_10_">
					<use xlink:href="#SVGID_9_"  style="overflow:visible;"/>
				</clipPath>
				<g id="Group_634" class="st40">
					<circle id="Ellipse_22" class="st5" cx="139.23" cy="146.6" r="120.26"/>
					<g id="Group_633" transform="translate(38.724 30.942)">
						<g id="Group_631" transform="translate(55.749 17.261)">
							<path id="Path_11736" class="st33" d="M103.21,88.71c2.34,2.05,5.66,2.54,8.48,1.24c4.71-2.27,21.91-14.43,21.39-17.39
								s-8.56-3.68-8.56-3.68S99.62,88.57,103.21,88.71z"/>
							<path id="Path_11737" class="st34" d="M107.75,88.25c-3.23-0.52,7.39-8.96,10.86-12.45c1.78-1.84,3.69-3.55,5.71-5.12
								c0,0,5.93,0.72,5.93,1.87S113.23,87.3,113.23,87.3S109.2,88.48,107.75,88.25z"/>
							<path id="Path_11738" class="st7" d="M86.91,103.44c0,0,6.2-10.47,9.16-13.26s12.98-8.2,14.5-8.24
								c2.6-0.06-8.92,7.71-8.92,7.71s1.57,10.12,0.17,13.79s-16.05,8.55-16.05,8.55L86.91,103.44z"/>
							<path id="Path_11739" class="st41" d="M75.4,114.43c0,0,10.12-15.18,12.39-14.14s8.38,14.14,8.38,14.14
								s-17.8,18.5-17.8,15.01C78.36,125.94,75.4,114.43,75.4,114.43z"/>
							<path id="Path_11740" class="st7" d="M47.4,33.12c0,0-10.47,37-17.45,52.35s-10.47,43.98-9.08,94.24s-8.38,48.86,6.28,55.15
								s67.01-4.19,73.99-20.24s-4.67-81.42-21.99-105.41C62.07,85.52,54.38,77.09,54.38,71.51s6.76-29.32,6.76-29.32L47.4,33.12z"
								/>
							
								<linearGradient id="Path_11741_1_" gradientUnits="userSpaceOnUse" x1="-284.2623" y1="460.1576" x2="-286.7043" y2="458.6706" gradientTransform="matrix(84.2432 0 0 -164.1459 24669.5391 74900.6562)">
								<stop  offset="0" style="stop-color:#FFC34E"/>
								<stop  offset="1" style="stop-color:#FB8627"/>
							</linearGradient>
							<path id="Path_11741" class="st42" d="M101.16,214.61c6.98-16.06-4.67-81.42-21.99-105.41
								c-7.96-11.03-13.88-18.75-17.93-24.41c-8.29-4.95-17.44-9.56-26.22-12.23c-1.76,4.95-3.49,9.47-5.06,12.91
								c-6.98,15.36-10.47,43.98-9.08,94.24s-8.38,48.86,6.28,55.15S94.18,230.67,101.16,214.61z"/>
							
								<linearGradient id="Path_11742_1_" gradientUnits="userSpaceOnUse" x1="-286.4696" y1="465.4068" x2="-290.5786" y2="461.3198" gradientTransform="matrix(50.0689 0 0 -59.6951 14847.7686 27327.3496)">
								<stop  offset="0" style="stop-color:#FFC34E"/>
								<stop  offset="1" style="stop-color:#FB8627"/>
							</linearGradient>
							<path id="Path_11742" class="st43" d="M28.79,65.92c0.17-2.87,37.46,11.87,37.7,14.66s2.43,13.21,5.52,18.82
								s-51.91,36.96-49.89,21.7S28.33,73.6,28.79,65.92z"/>
							<path id="Path_11743" class="st11" d="M54.42,72.13c-0.02-0.21-0.03-0.42-0.03-0.62c0-5.58,6.76-29.32,6.76-29.32
								l-13.74-9.07c0,0-2.43,8.59-5.73,19.21C45.94,65.07,49.93,69.41,54.42,72.13z"/>
							<path id="Path_11744" class="st7" d="M81.97,51.17c-2.54,11.5-10.48,19.68-19.66,17.43c-6.73-1.65-17.08-11.07-13.76-24.81
								c2.77-11.45,12.08-19.17,21.31-17.13S84.52,39.67,81.97,51.17z"/>
							<path id="Path_11745" class="st7" d="M97.85,136.88c9.53-16.46,10.6-31.83,17.35-36.64c9.5-6.75,17.3-21.86,13.86-22.45
								s-17.37,12.16-17.37,12.16s3.62-4.96,2.76-5.37s-7.88,4.68-8.97,10.69s-14.56,33.66-25.87,42.52S88.32,153.34,97.85,136.88z"
								/>
							
								<linearGradient id="Path_11746_1_" gradientUnits="userSpaceOnUse" x1="-287.6526" y1="462.5584" x2="-289.5716" y2="460.0374" gradientTransform="matrix(73.6334 0 0 -100.2794 21626.8008 45838.5195)">
								<stop  offset="0" style="stop-color:#FFC34E"/>
								<stop  offset="1" style="stop-color:#FB8627"/>
							</linearGradient>
							<path id="Path_11746" class="st44" d="M36.1,95.4c-16.89,4.2-9.16,55.21,5.08,85.46s41,4.12,51-3.29
								c3.1-2.23,5.78-4.98,7.95-8.12c-3.21-18.05-8.72-37.41-15.52-51.04C68.67,137.11,61.09,89.18,36.1,95.4z"/>
							
								<linearGradient id="Path_11747_1_" gradientUnits="userSpaceOnUse" x1="-287.2162" y1="461.6985" x2="-289.8542" y2="458.6665" gradientTransform="matrix(83.222 0 0 -85.8713 24386.5684 39274.0117)">
								<stop  offset="0" style="stop-color:#FFC34E"/>
								<stop  offset="1" style="stop-color:#FB8627"/>
							</linearGradient>
							<path id="Path_11747" class="st45" d="M41.18,91.74c-21.24,2.13-9.61,55.15,5.92,76.55c15.53,21.41,37.64,0.7,44.61-11.63
								s21.12-33.3,21.12-46.94c0-2.56-5.23-3.08-11.52-2.62c-5.92,0.44-32.64,37.23-32.64,37.23S59.75,89.88,41.18,91.74z"/>
						</g>
						<path id="Path_11748" class="st21" d="M129.26,32.73c22.17,1.52,19.34,35.87,19.34,35.87s-18.28,0.53-23.73-1.05
							s-11-5.85-11-5.85s-3.35,13.01-12.52,13.74l-9.16,0.73c0,0-6.04-24.7-1.27-35.84C100.83,17.22,120.62,28.79,129.26,32.73z"/>
						<path id="Path_11749" class="st7" d="M105.08,66c1.31,3.38,4.42,5.32,6.94,4.34s3.5-4.51,2.18-7.89
							c-1.32-3.38-4.42-5.32-6.94-4.34S103.77,62.62,105.08,66z"/>
						<path id="Path_11750" class="st21" d="M94.13,62.05c0-0.37-0.3-0.66-0.66-0.66c-0.27,0-0.5,0.16-0.61,0.4
							c-2,4.67-6.2,12.77-11.43,13.34c-7.38,0.81-60.03,5.1-42.51,45.73c11.07,25.67,19.09,35.91,8.2,45.42
							c-10.02,8.74-23.23,0.51-26.52-1.69c-0.3-0.2-0.71-0.12-0.92,0.18c-0.05,0.08-0.09,0.17-0.1,0.26
							c-0.93,5.66-4.01,32.75,22.24,32.36c29.31-0.43,43.3-26.92,31.36-51.22s11.72-30.52,12.68-44.17
							c0.93-13.15,0.23-19.8,0.04-21.26c-0.03-0.2,0.04-0.4,0.18-0.55l7.86-8.05c0.12-0.12,0.19-0.29,0.19-0.46L94.13,62.05z"/>
						<g id="Group_632" transform="translate(0.707 47.145)">
							<path id="Path_11751" class="st21" d="M35.44,121.91c-5.97,0-15.35-2.44-15.77-2.55c-0.5-0.13-0.79-0.64-0.66-1.14
								c0.11-0.44,0.53-0.73,0.98-0.69c0.13,0.01,12.73,1.09,17.66-2.79c6.22-4.91,2.75-12.92-3.01-26.21
								c-2.43-5.61-5.19-11.97-7.72-19.32c-4.8-13.94,0.36-23.52,5.53-29.1c10.86-11.72,32.01-16.76,50.29-11.99
								c0.5,0.13,0.8,0.64,0.67,1.13s-0.64,0.8-1.13,0.67c-0.43-0.11-0.86-0.22-1.29-0.32C57.71,30,42.7,35.4,36.36,45.65
								c-5.55,8.97-4.4,21.76,3.39,38c7.61,15.85,9.65,27,6.07,33.14c-1.78,3.05-4.96,4.81-9.2,5.09
								C36.25,121.9,35.85,121.91,35.44,121.91z M28.59,119.36c2.61,0.5,5.26,0.72,7.91,0.66c3.65-0.24,6.24-1.65,7.72-4.17
								c2.24-3.83,2.99-12.39-6.14-31.39c-8.09-16.85-9.2-30.23-3.3-39.78c5.73-9.27,17.93-14.78,36.34-16.43
								c-14.49-0.67-29.05,4.2-37.32,13.13c-6.92,7.47-8.7,16.89-5.13,27.23c2.51,7.29,5.25,13.61,7.67,19.19
								c5.9,13.62,9.81,22.62,2.46,28.41C36.3,118.17,32.29,119.02,28.59,119.36L28.59,119.36z"/>
						</g>
					</g>
				</g>
			</g>
		</g>
		<g id="Group_638" transform="translate(631.119 84.822)">
			<g>
				<defs>
					<circle id="SVGID_11_" cx="77.37" cy="84.73" r="58.4"/>
				</defs>
				<clipPath id="SVGID_12_">
					<use xlink:href="#SVGID_11_"  style="overflow:visible;"/>
				</clipPath>
				<g id="Group_637" class="st46">
					<circle id="Ellipse_24" class="st47" cx="77.37" cy="84.73" r="58.4"/>
					<g id="Group_636" transform="translate(15.381 10.62)">
						<path id="Path_11752" class="st48" d="M43.92,68.72c-0.15-0.43-3.77-21.27-4.21-29.37s13.02-9.26,13.02-9.26
							s11-5.93,18.95-2.89c7.22,2.65,13.25,7.8,16.99,14.52c3.62,6.37-3.18,26.2-3.18,26.2L43.92,68.72z"/>
						<path id="Path_11753" class="st0" d="M18.97,135.66c-0.05-0.34,0.93-8.54,0.96-8.87c1.83-17.26,23.11-22.12,44.35-22.12
							c24.95,0,41.88,4.57,44.58,22.51c0.08,0.53,1.52,8.74,1.45,9.3C64.07,137.1,18.97,135.66,18.97,135.66z"/>
						<path id="Path_11754" class="st7" d="M68.57,118.06c-2.47,3.65-4.28,3.8-6.97,0c-2.13-3.02-9.26-9.92-9.26-13.4l2.92-34.74
							c0.01-3.49,2.84-6.32,6.33-6.33h6.97c3.49,0.01,6.32,2.84,6.33,6.33l1.36,34.74C76.26,108.15,70.79,114.79,68.57,118.06z"/>
						<path id="Path_11755" class="st11" d="M68.57,63.59H61.6c-3.49,0.01-6.32,2.84-6.33,6.33l-2.54,30.82
							c7.82,2.49,18.39-2.57,23.06-8.15L74.9,69.92C74.89,66.43,72.06,63.6,68.57,63.59z"/>
						<path id="Path_11756" class="st49" d="M41.17,107.2l11.17,20.65c0,0,5.98-4.92,6.56-3.95s-1.06,13.14-1.06,13.14
							s13.31,0.18,13.89-0.4s-2.7-13.22-1.35-13.22s5.41,3.67,5.41,3.67l12.47-19.88l-2.74-0.67l-20.44,11l-21.86-10.75L41.17,107.2
							z"/>
						<path id="Path_11757" class="st24" d="M53.95,116.71l8.3,5.57l-2.57,14.78l11.19-0.62l-2.79-13.44l6.88-6.28l-3.23-3.04H57.18
							L53.95,116.71z"/>
						<path id="Path_11758" class="st0" d="M52.92,97.08l-10.26,9.76c0,0,10.45,18.59,11.03,18.59s8.87-10.25,8.87-10.25l5.31-0.09
							l8.39,8.8l9.75-17.24l-9.94-10.54c0,0-8.49,16.4-10.03,16.78s-1.55,0.58-2.8-0.39S52.92,97.08,52.92,97.08z"/>
						<ellipse id="Ellipse_25" class="st7" cx="65.09" cy="63.94" rx="21.06" ry="28.7"/>
						<path id="Path_11759" class="st7" d="M46.18,63.5c1.97,4.15,1.33,8.58-1.44,9.89s-6.6-0.98-8.57-5.13s-1.33-8.58,1.44-9.89
							S44.21,59.35,46.18,63.5z"/>
						<path id="Path_11760" class="st7" d="M83.04,63.5c-1.97,4.15-1.32,8.58,1.44,9.89s6.6-0.98,8.57-5.13s1.32-8.58-1.44-9.89
							S85.01,59.35,83.04,63.5z"/>
						<path id="Path_11761" class="st0" d="M74.43,75.71c0,0-4.18,6.78-9.34,6.78s-9.34-6.78-9.34-6.78H74.43z"/>
						<path id="Path_11762" class="st48" d="M52.73,44.42c8.68-6.08,12.59-5.06,19.1,4.92s14.32,10.16,14.32,10.16l1.01-10.35
							c0,0-9.7-18.76-22.72-16.3S44.03,47.02,44.03,47.02s-0.63,21.97,1.18,22.71s2.03-7.09,3.33-8.68s-1.3-9.11,0.43-12.59
							S52.73,44.42,52.73,44.42z"/>
						<path id="Path_11763" class="st48" d="M80.65,55.7c3.03,3.32,1.88,16.49,3.47,16.35s2.17-12.59,1.74-13.89
							S80.65,55.7,80.65,55.7z"/>
					</g>
				</g>
			</g>
		</g>
		<g id="Group_641" transform="translate(1.527 271.78)">
			<g>
				<defs>
					<circle id="SVGID_13_" cx="77.37" cy="84.73" r="58.4"/>
				</defs>
				<clipPath id="SVGID_14_">
					<use xlink:href="#SVGID_13_"  style="overflow:visible;"/>
				</clipPath>
				<g id="Group_640" class="st50">
					<circle id="Ellipse_27" class="st47" cx="77.37" cy="84.73" r="58.4"/>
					<g id="Group_639" transform="translate(12.17 18.048)">
						<path id="Path_11764" class="st28" d="M18.97,120.99c7.06-15.2,19.02-20.06,38.65-20.06c23.38,0,38.86,14.43,42.3,26.76
							C58.06,128.26,18.97,120.99,18.97,120.99z"/>
						<path id="Path_11765" class="st51" d="M49.46,27.01c-9.9,2.78-9.46,8.34-12.76,13.5s-10.46,8.6-11.32,12.04
							s2.21,10.61-1.43,14.62s-4.87,6.02-3.44,10.03s4.59,10.32,4.87,11.18s4.3,6.88,9.18,7.74s14.05,2.29,18.64,4.3
							s19.34-2.57,27.53-2.28s13.76-5.74,13.19-9.76s6.04-12.04,6.02-18.92c-0.02-7.39-8.6-12.9-10.9-17.78s0.29-13.47-8.32-18.57
							c-5.44-3.22-9.17-2.93-13.48-4.37S55.77,25.24,49.46,27.01z"/>
						<path id="Path_11766" class="st7" d="M61.5,113.05c-2.24,3.3-3.88,3.44-6.31,0c-1.93-2.73-5.73-8.95-5.73-12.1V69.47
							c0.01-3.16,2.57-5.72,5.73-5.73h6.31c3.16,0.01,5.73,2.57,5.73,5.73v31.48C67.23,104.1,63.51,110.09,61.5,113.05z"/>
						<path id="Path_11767" class="st11" d="M61.5,63.74h-6.31c-3.16,0.01-5.72,2.57-5.73,5.73v28.08
							c7.08,2.26,13.55-2.23,17.78-7.28V69.47C67.22,66.31,64.66,63.75,61.5,63.74z"/>
						<ellipse id="Ellipse_28" class="st7" cx="58.35" cy="64.06" rx="19.07" ry="25.98"/>
						<path id="Path_11768" class="st51" d="M67.23,43.38C55.19,63.74,37.41,61.73,37.41,61.73s0.43-26.95,14.55-28.39
							c14.12-1.43,22.44,4.23,25.3,13.59s0,15.52,0,15.52c-3-2.52-5.36-5.71-6.88-9.32C69.08,49.96,68.03,46.7,67.23,43.38z"/>
						<path id="Path_11769" class="st7" d="M41.23,63.66c1.78,3.76,1.2,7.76-1.3,8.95s-5.98-0.89-7.76-4.65
							c-1.78-3.76-1.2-7.76,1.3-8.95S39.45,59.9,41.23,63.66z"/>
						<path id="Path_11770" class="st7" d="M74.6,63.66c-1.78,3.76-1.2,7.76,1.3,8.95s5.98-0.89,7.76-4.65s1.2-7.76-1.3-8.95
							S76.38,59.9,74.6,63.66z"/>
						<path id="Path_11771" class="st0" d="M65.51,78.15c0,0-3.21,4.16-7.17,4.16s-7.17-4.16-7.17-4.16H65.51z"/>
					</g>
				</g>
			</g>
		</g>
		<g id="Group_644" transform="translate(1362.164 110.236)">
			<g>
				<defs>
					<circle id="SVGID_15_" cx="106.97" cy="114.33" r="62.22"/>
				</defs>
				<clipPath id="SVGID_16_">
					<use xlink:href="#SVGID_15_"  style="overflow:visible;"/>
				</clipPath>
				<g id="Group_643" class="st52">
					<circle id="Ellipse_30" class="st47" cx="106.97" cy="114.33" r="62.22"/>
					<g id="Group_642" transform="translate(45.494 40.201)">
						<path id="Path_11772" class="st53" d="M29.09,64.91c0,17.1,10.29,44.69,34.58,43.8s29.66-27.18,30.6-34.6
							S29.09,64.91,29.09,64.91z"/>
						<path id="Path_11773" class="st24" d="M18.97,131.49c8.02-17.25,21.59-22.78,43.88-22.78c26.54,0,40.31,9.61,44.22,23.61
							c-15.61,0.21-30.48,15.74-43.4,15.62C37.26,147.7,18.97,131.49,18.97,131.49z"/>
						<path id="Path_11774" class="st7" d="M67.25,122.48c-2.54,3.75-4.4,3.91-7.16,0c-2.19-3.1-6.51-10.16-6.51-13.74V73.01
							c0.01-3.59,2.92-6.5,6.51-6.51h7.16c3.59,0.01,6.5,2.92,6.51,6.51v35.73C73.76,112.32,69.53,119.12,67.25,122.48z"/>
						<path id="Path_11775" class="st11" d="M67.25,66.5h-7.16c-3.59,0.01-6.5,2.92-6.51,6.51v31.88
							c8.04,2.56,15.38-2.53,20.18-8.26V73.01C73.75,69.42,70.84,66.51,67.25,66.5z"/>
						<path id="Path_11776" class="st7" d="M85.31,66.86c0,16.29-9.69,29.49-21.64,29.49s-21.65-13.2-21.65-29.49
							s9.69-29.49,21.65-29.49S85.31,50.57,85.31,66.86z"/>
						<path id="Path_11777" class="st53" d="M75.56,44.44c-2.57,9.07-8.21,8.96-16.07,11.94s-11.61,5.98-14.19,11.78
							c-3.28,7.4,1.49,28.97,1.49,28.97S26.9,82.24,29.2,58.82S45.31,26.33,58.3,26.33s17.94,7.92,17.94,7.92s6.92,0.03,13.47,7.78
							c8.8,10.42,6.09,35.74,0,44.81S79.56,98.76,79.69,98.35s5.69-21.23,2.71-34.11S75.56,44.44,75.56,44.44z"/>
						<path id="Path_11778" class="st0" d="M71.81,82.85c0,0-3.64,4.72-8.14,4.72s-8.14-4.72-8.14-4.72H71.81z"/>
					</g>
				</g>
			</g>
		</g>
		<g id="Group_645" transform="translate(148.979 55.052)">
			<path id="Path_11779" class="st54" d="M165.53,319.46c-80.69-0.1-146.02-65.6-145.92-146.3s65.6-146.02,146.3-145.92
				s146.02,65.6,145.92,146.3c-0.08,58.65-35.22,111.58-89.25,134.4C204.53,315.58,185.13,319.5,165.53,319.46z M165.53,29.39
				C86.4,29.39,22.02,93.76,22.02,172.9S86.4,316.41,165.53,316.41s143.51-64.38,143.51-143.51S244.66,29.39,165.53,29.39z"/>
		</g>
		<g id="Group_646" transform="translate(944.835 53.969)">
			<path id="Path_11780" class="st54" d="M154.47,297.34c-74.6-0.1-135-60.65-134.91-135.26s60.65-135,135.26-134.91
				c74.6,0.1,135,60.65,134.91,135.26c-0.07,54.23-32.56,103.15-82.51,124.26C190.53,293.75,172.59,297.38,154.47,297.34z
				 M154.47,29.39c-73.03,0-132.45,59.42-132.45,132.45s59.42,132.45,132.45,132.45s132.45-59.42,132.45-132.45
				S227.51,29.39,154.47,29.39L154.47,29.39z"/>
		</g>
		<g id="Group_647" transform="translate(1317.71 330.318)">
			<path id="Path_11781" class="st54" d="M116.39,221.17c-53.8,0-97.42-43.62-97.42-97.42c0-53.8,43.62-97.42,97.42-97.42
				s97.42,43.62,97.42,97.42c0,25.84-10.26,50.62-28.53,68.88C167.04,210.97,142.24,221.24,116.39,221.17z M116.39,29.39
				c-52.12,0-94.36,42.25-94.36,94.36c0,52.12,42.25,94.37,94.36,94.37s94.36-42.25,94.36-94.37l0,0
				C210.69,71.66,168.48,29.45,116.39,29.39L116.39,29.39z"/>
		</g>
		<g id="Group_648" transform="translate(9.38 440.031)">
			<path id="Path_11782" class="st54" d="M140.76,269.91c-67.26,0-121.79-54.53-121.79-121.79c0-67.26,54.53-121.79,121.79-121.79
				c67.26,0,121.79,54.53,121.79,121.79c0,32.3-12.83,63.28-35.67,86.12C204.09,257.16,173.08,270,140.76,269.91z M140.76,29.39
				c-65.58,0-118.74,53.16-118.74,118.74c0,65.58,53.16,118.74,118.74,118.74S259.5,213.7,259.5,148.12l0,0
				C259.42,82.58,206.31,29.46,140.76,29.39z"/>
		</g>
		<g id="Group_649" transform="translate(629.54 83.296)">
			<path id="Path_11783" class="st54" d="M78.89,146.18c-33.09,0-59.92-26.83-59.92-59.92c0-33.09,26.83-59.92,59.92-59.92
				c33.09,0,59.92,26.83,59.92,59.92c0,0,0,0,0,0C138.78,119.34,111.97,146.14,78.89,146.18z M78.89,29.39
				c-31.41,0-56.87,25.46-56.87,56.87s25.46,56.87,56.87,56.87s56.87-25.46,56.87-56.87l0,0C135.73,54.86,110.28,29.42,78.89,29.39
				L78.89,29.39z"/>
		</g>
		<g id="Group_650" transform="translate(0 270.253)">
			<path id="Path_11784" class="st54" d="M78.89,146.18c-33.09,0-59.92-26.83-59.92-59.92c0-33.09,26.83-59.92,59.92-59.92
				s59.92,26.83,59.92,59.92c0,0,0,0,0,0C138.78,119.34,111.97,146.14,78.89,146.18z M78.89,29.39c-31.41,0-56.87,25.46-56.87,56.87
				s25.46,56.87,56.87,56.87s56.87-25.46,56.87-56.87C135.73,54.86,110.29,29.42,78.89,29.39L78.89,29.39z"/>
		</g>
		<g id="Group_651" transform="translate(1386.41 134.482)">
			<path id="Path_11785" class="st54" d="M82.72,153.83c-35.21,0-63.75-28.54-63.75-63.75s28.54-63.75,63.75-63.75
				s63.75,28.54,63.75,63.75c0,0,0,0,0,0.01C146.43,125.28,117.91,153.79,82.72,153.83z M82.72,29.39c-33.52,0-60.7,27.18-60.7,60.7
				c0,33.52,27.18,60.7,60.7,60.7s60.7-27.18,60.7-60.7v0C143.38,56.58,116.23,29.42,82.72,29.39L82.72,29.39z"/>
		</g>
		<g id="Group_652" transform="translate(946.995 91.619)">
			<circle id="Ellipse_32" class="st29" cx="51.25" cy="58.61" r="28.45"/>
			<path id="Path_11786" class="st0" d="M50.97,48.61c0,0-9.94-8.76-16.97-0.34c-9.65,11.56,16.97,26.26,16.97,26.26
				s27.1-15.17,17.62-26.86C61.42,38.82,50.97,48.61,50.97,48.61z"/>
		</g>
		<g id="Group_653" transform="translate(1090.199 489.157)">
			<circle id="Ellipse_33" class="st29" cx="53.44" cy="60.81" r="28.45"/>
			<path id="Path_11787" class="st0" d="M53.16,50.8c0,0-9.94-8.76-16.97-0.34c-9.65,11.56,16.97,26.26,16.97,26.26
				s27.1-15.17,17.62-26.86C63.62,41.01,53.16,50.8,53.16,50.8z"/>
		</g>
		<g id="Group_654" transform="translate(236.362 451.76)">
			<circle id="Ellipse_34" class="st29" cx="56.16" cy="63.53" r="28.44"/>
			<path id="Path_11788" class="st0" d="M55.9,53.54c0,0-9.94-8.76-16.97-0.34C29.27,64.75,55.9,79.45,55.9,79.45
				S83,64.28,73.52,52.59C66.35,43.75,55.9,53.54,55.9,53.54z"/>
		</g>
		<g id="Group_655" transform="translate(177.592 393.929)">
			<path id="Path_11789" class="st29" d="M52.84,43.27c0,9.35-7.58,16.94-16.94,16.94c-9.35,0-16.94-7.58-16.94-16.94
				c0-9.35,7.58-16.94,16.93-16.94C45.26,26.33,52.84,33.91,52.84,43.27C52.84,43.27,52.84,43.27,52.84,43.27z"/>
			<path id="Path_11790" class="st0" d="M35.74,37.31c0,0-5.91-5.22-10.1-0.2c-5.75,6.88,10.1,15.63,10.1,15.63
				s16.13-9.03,10.49-15.99C41.96,31.49,35.74,37.31,35.74,37.31z"/>
		</g>
		<g id="Group_656" transform="translate(894.132 36.478)">
			<path id="Path_11791" class="st29" d="M59.17,46.43c0,11.1-9,20.1-20.1,20.1c-11.1,0-20.1-9-20.1-20.1c0-11.1,9-20.1,20.1-20.1
				S59.17,35.33,59.17,46.43C59.17,46.43,59.17,46.43,59.17,46.43z"/>
			<path id="Path_11792" class="st0" d="M38.87,39.37c0,0-7.02-6.19-11.99-0.24c-6.82,8.16,11.99,18.55,11.99,18.55
				S58.02,46.96,51.32,38.7C46.26,32.45,38.87,39.37,38.87,39.37z"/>
		</g>
		<g id="Group_657" transform="translate(1153.612 396.612)">
			<path id="Path_11793" class="st29" d="M59.17,46.43c0,11.1-9,20.1-20.1,20.1c-11.1,0-20.1-9-20.1-20.1c0-11.1,9-20.1,20.1-20.1
				S59.17,35.33,59.17,46.43C59.17,46.43,59.17,46.43,59.17,46.43z"/>
			<path id="Path_11794" class="st0" d="M38.87,39.37c0,0-7.02-6.19-11.99-0.24c-6.82,8.16,11.99,18.55,11.99,18.55
				S58.02,46.96,51.32,38.7C46.26,32.45,38.87,39.37,38.87,39.37z"/>
		</g>
		<g id="Group_658" transform="translate(598.079 126.792)">
			<circle id="Ellipse_35" class="st28" cx="53.2" cy="60.55" r="28.45"/>
			<path id="Path_11795" class="st0" d="M52.56,41.82c3.69-0.51,6.87,8.65,6.61,11.58s6.87-0.38,10.31,2.16s2.42,15.78,0,16.67
				s-12.17,1.02-15.31-0.64c-1.58-0.95-3.41-1.42-5.26-1.35L47.3,56.41c1.52-0.55,2.92-1.4,4.12-2.5
				C53.58,52,52.56,41.82,52.56,41.82z M36.15,74.26c0.89,0.76,10.94,3.18,11.45-1.91s-2.04-15.9-2.04-15.9s-6.99-0.35-9.41,0.89
				C35.22,57.81,35.26,73.5,36.15,74.26L36.15,74.26z"/>
		</g>
		<g id="Group_659" transform="translate(274.61 558.335)">
			<circle id="Ellipse_36" class="st28" cx="54.43" cy="61.79" r="28.45"/>
			<path id="Path_11796" class="st0" d="M53.79,43.05c3.69-0.51,6.87,8.65,6.62,11.58s6.87-0.38,10.3,2.16s2.42,15.78,0,16.67
				s-12.17,1.02-15.31-0.64c-1.58-0.95-3.41-1.42-5.26-1.34l-1.62-13.84c1.52-0.55,2.92-1.4,4.12-2.5
				C54.81,53.22,53.79,43.05,53.79,43.05z M37.38,75.49c0.89,0.76,10.94,3.18,11.45-1.91s-2.04-15.9-2.04-15.9s-6.99-0.35-9.41,0.89
				C36.44,59.04,36.49,74.73,37.38,75.49z"/>
		</g>
		<g id="Group_660" transform="translate(1315.302 345.365)">
			<circle id="Ellipse_37" class="st28" cx="45.05" cy="52.41" r="26.08"/>
			<path id="Path_11797" class="st0" d="M44.47,35.24c3.38-0.47,6.3,7.93,6.06,10.61s6.3-0.35,9.45,1.98s2.22,14.46,0,15.28
				s-11.15,0.93-14.03-0.58c-1.45-0.87-3.13-1.3-4.82-1.23L39.64,48.6c1.4-0.51,2.68-1.29,3.78-2.29
				C45.4,44.56,44.47,35.24,44.47,35.24z M29.42,64.98c0.82,0.7,10.03,2.92,10.5-1.75s-1.86-14.58-1.86-14.58s-6.41-0.32-8.63,0.81
				C28.57,49.9,28.61,64.28,29.42,64.98z"/>
		</g>
		<g id="Group_661" transform="translate(496.568 247.602)">
			<circle id="Ellipse_38" class="st28" cx="50.2" cy="57.57" r="22.09"/>
			<path id="Path_11798" class="st0" d="M49.71,43.02c2.86-0.4,5.33,6.72,5.14,8.99s5.33-0.3,8,1.68s1.88,12.25,0,12.94
				s-9.44,0.79-11.88-0.49c-1.23-0.74-2.65-1.1-4.08-1.04l-1.26-10.74c1.18-0.43,2.27-1.09,3.2-1.94
				C50.5,50.92,49.71,43.02,49.71,43.02z M36.97,68.2c0.69,0.59,8.49,2.47,8.89-1.48s-1.58-12.34-1.58-12.34s-5.43-0.27-7.31,0.69
				C36.25,55.43,36.28,67.61,36.97,68.2L36.97,68.2z"/>
		</g>
		<g id="Group_662" transform="translate(62.986 260.697)">
			<circle id="Ellipse_39" class="st36" cx="59.21" cy="66.57" r="28.45"/>
			<path id="Path_11799" class="st0" d="M45.63,81.65c-4.2-25.14,15.04-25.76,15.04-25.76v-7.45l15.25,15.25L61.23,78.38v-8.52
				c0,0-7.39,0.31-10.18,4.34S45.63,81.65,45.63,81.65z"/>
		</g>
		<g id="Group_663" transform="translate(680.204 554.174)">
			<circle id="Ellipse_40" class="st36" cx="55.08" cy="62.42" r="28.46"/>
			<path id="Path_11800" class="st0" d="M41.5,77.51c-4.2-25.14,15.04-25.76,15.04-25.76V44.3l15.25,15.25L57.09,74.24v-8.52
				c0,0-7.39,0.31-10.18,4.34S41.5,77.51,41.5,77.51z"/>
		</g>
		<g id="Group_665" transform="translate(522.097 70.634)">
			<circle id="Ellipse_41" class="st54" cx="57.57" cy="33.97" r="7.63"/>
			<circle id="Ellipse_42" class="st54" cx="57.57" cy="68.32" r="7.63"/>
			<circle id="Ellipse_43" class="st54" cx="28.94" cy="51.72" r="7.63"/>
			<g id="Group_664" transform="translate(8.447 6.107)">
				<path id="Path_11801" class="st54" d="M49.12,63.74c-0.27,0-0.53-0.07-0.76-0.21L19.73,46.94c-0.73-0.42-0.98-1.36-0.56-2.09
					c0.13-0.22,0.3-0.4,0.52-0.53l28.63-17.76c0.71-0.46,1.65-0.26,2.11,0.45c0.46,0.71,0.26,1.65-0.45,2.11
					c-0.02,0.01-0.04,0.02-0.05,0.03L23.46,45.57l26.42,15.32c0.73,0.42,0.98,1.36,0.56,2.09C50.17,63.45,49.67,63.74,49.12,63.74
					L49.12,63.74z"/>
			</g>
		</g>
		<g id="Group_667" transform="translate(1467.128 272.04)">
			<circle id="Ellipse_44" class="st54" cx="55.23" cy="33.97" r="7.63"/>
			<circle id="Ellipse_45" class="st54" cx="55.23" cy="68.32" r="7.63"/>
			<circle id="Ellipse_46" class="st54" cx="26.6" cy="51.73" r="7.63"/>
			<g id="Group_666" transform="translate(6.107 6.107)">
				<path id="Path_11802" class="st54" d="M49.12,63.74c-0.27,0-0.53-0.07-0.76-0.21L19.73,46.94c-0.73-0.42-0.98-1.36-0.56-2.09
					c0.13-0.22,0.3-0.4,0.52-0.53l28.62-17.76c0.71-0.46,1.65-0.26,2.11,0.45s0.26,1.65-0.45,2.11c-0.02,0.01-0.04,0.02-0.06,0.04
					L23.46,45.58l26.42,15.32c0.73,0.42,0.98,1.36,0.56,2.09C50.17,63.45,49.66,63.74,49.12,63.74z"/>
			</g>
		</g>
		<g id="Group_668" transform="translate(1318.153 75.25)">
			<path id="Rectangle_92" class="st22" d="M28.54,26.33h2.13c5.29,0,9.57,4.29,9.57,9.57l0,0c0,5.29-4.29,9.57-9.57,9.57h-2.13
				c-5.29,0-9.57-4.29-9.57-9.57l0,0C18.97,30.62,23.26,26.33,28.54,26.33z"/>
			<path id="Rectangle_93" class="st22" d="M67.22,26.33h2.13c5.29,0,9.57,4.29,9.57,9.57l0,0c0,5.29-4.29,9.57-9.57,9.57h-2.13
				c-5.29,0-9.57-4.29-9.57-9.57l0,0C57.64,30.62,61.93,26.33,67.22,26.33z"/>
			<path id="Rectangle_94" class="st22" d="M105.89,26.33h2.13c5.29,0,9.57,4.29,9.57,9.57l0,0c0,5.29-4.29,9.57-9.57,9.57h-2.13
				c-5.29,0-9.57-4.29-9.57-9.57l0,0C96.32,30.62,100.61,26.33,105.89,26.33z"/>
		</g>
	</g>
</g>
</svg>
