<?xml version="1.0" encoding="utf-8"?>
<!-- Generator: Adobe Illustrator 25.2.1, SVG Export Plug-In . SVG Version: 6.00 Build 0)  -->
<svg version="1.1" id="Layer_1" xmlns="http://www.w3.org/2000/svg" xmlns:xlink="http://www.w3.org/1999/xlink" x="0px" y="0px"
	 viewBox="0 0 239.28 222.49" style="enable-background:new 0 0 239.28 222.49;" xml:space="preserve">
<style type="text/css">
	.st0{clip-path:url(#SVGID_2_);}
	.st1{fill:#3C74CC;}
</style>
<g>
	<defs>
		<rect id="SVGID_1_" x="25.4" y="17.24" width="188" height="188"/>
	</defs>
	<clipPath id="SVGID_2_">
		<use xlink:href="#SVGID_1_"  style="overflow:visible;"/>
	</clipPath>
	<g id="Mask_Group_2" transform="translate(-1431 -2913)" class="st0">
		<path id="noun_programming_227807" class="st1" d="M1467.44,3091.59h165.71c6.21,0,11.24-5.03,11.24-11.24v-4.85
			c-0.03-0.98-0.37-1.93-0.97-2.71l-8.34-10.27c-1.35-1.64-2.1-3.69-2.13-5.81v-33.72l0,0v-49.62c0.01-9.09-7.36-16.47-16.45-16.47
			c-0.01,0-0.01,0-0.02,0H1484.3c-9.09-0.01-16.47,7.36-16.47,16.45c0,0.01,0,0.02,0,0.03v83.34c0,2.13-0.75,4.19-2.13,5.81
			l-8.33,10.66c-0.6,0.78-0.94,1.73-0.97,2.71v4.84c0.01,6.01,4.89,10.87,10.9,10.86
			C1467.34,3091.6,1467.39,3091.59,1467.44,3091.59z M1568.23,3075.7c0,3.1-2.52,5.62-5.62,5.62h-24.23c-3.1,0-5.62-2.52-5.62-5.62
			v-1.16h35.66L1568.23,3075.7L1568.23,3075.7z M1484.3,3045.27v-71.91h132.18v73.26l0,0v11.44H1484.3V3045.27z M1559.89,2991.39
			l7.56,4.26l-26.55,46.51l-7.56-4.26L1559.89,2991.39z M1528.11,3001.28l-15.51,15.51l15.51,15.5l-6.2,6.2l-15.51-15.5l-6.01-6.2
			l6.2-6.2l15.51-15.51L1528.11,3001.28z M1594.2,3010.39l6.2,6.2l-6.2,6.2l-15.51,15.51l-6.01-6.2l15.51-15.51l-15.5-15.5l6.2-6.2
			L1594.2,3010.39z"/>
	</g>
</g>
</svg>
