<?xml version="1.0" encoding="utf-8"?>
<!-- Generator: Adobe Illustrator 25.2.1, SVG Export Plug-In . SVG Version: 6.00 Build 0)  -->
<svg version="1.1" id="Layer_1" xmlns="http://www.w3.org/2000/svg" xmlns:xlink="http://www.w3.org/1999/xlink" x="0px" y="0px"
	 viewBox="0 0 221.91 216.67" style="enable-background:new 0 0 221.91 216.67;" xml:space="preserve">
<style type="text/css">
	.st0{clip-path:url(#SVGID_2_);}
	.st1{fill:#3C74CC;}
</style>
<g>
	<defs>
		<rect id="SVGID_1_" x="16.72" y="16.17" width="188" height="188"/>
	</defs>
	<clipPath id="SVGID_2_">
		<use xlink:href="#SVGID_1_"  style="overflow:visible;"/>
	</clipPath>
	<g id="Mask_Group_5" transform="translate(-866 -2606)" class="st0">
		<path id="noun_Video_2575102" class="st1" d="M1054.13,2685.69c9.15,0.03,16.56,7.44,16.59,16.59v88.47
			c-0.03,9.15-7.44,16.56-16.59,16.59H899.3c-9.15-0.03-16.56-7.44-16.59-16.59v-88.47c0.03-9.15,7.44-16.56,16.59-16.59H1054.13z
			 M965.93,2717.21c-2.46-1.73-5.85-1.14-7.58,1.32c-0.64,0.91-0.98,1.99-0.99,3.1v49.76c-0.07,2.96,2.28,5.42,5.24,5.49
			c1.2,0.03,2.37-0.35,3.33-1.06l35.94-24.88c2.52-1.89,3.03-5.46,1.14-7.98c-0.33-0.43-0.71-0.82-1.14-1.14L965.93,2717.21z
			 M937.73,2652.24c-2.14,2.14-5.6,2.14-7.74,0c-2.14-2.14-2.14-5.6,0-7.74c25.73-25.88,67.57-26,93.45-0.27
			c0.09,0.09,0.18,0.18,0.27,0.27c2.16,2.12,2.2,5.58,0.08,7.74c-2.12,2.16-5.58,2.2-7.74,0.08c-0.03-0.03-0.05-0.05-0.08-0.08
			C994.35,2630.67,959.36,2630.67,937.73,2652.24z M957.09,2671.87c-2.16,2.12-5.63,2.08-7.74-0.08c-2.09-2.13-2.09-5.53,0-7.66
			c14.99-15.12,39.4-15.22,54.51-0.23c0.08,0.08,0.15,0.15,0.23,0.23c2.12,2.16,2.08,5.63-0.08,7.74c-2.13,2.09-5.53,2.09-7.66,0
			C985.48,2661.09,967.95,2661.09,957.09,2671.87z M968.42,2760.89v-28.48l20.73,14.38L968.42,2760.89z"/>
	</g>
</g>
</svg>
